<?xml version="1.0" encoding="utf-8" standalone="no"?>
<!DOCTYPE svg PUBLIC "-//W3C//DTD SVG 1.1//EN"
  "http://www.w3.org/Graphics/SVG/1.1/DTD/svg11.dtd">
<svg xmlns:xlink="http://www.w3.org/1999/xlink" width="460.8pt" height="345.6pt" viewBox="0 0 460.8 345.6" xmlns="http://www.w3.org/2000/svg" version="1.1">
 <metadata>
  <rdf:RDF xmlns:dc="http://purl.org/dc/elements/1.1/" xmlns:cc="http://creativecommons.org/ns#" xmlns:rdf="http://www.w3.org/1999/02/22-rdf-syntax-ns#">
   <cc:Work>
    <dc:type rdf:resource="http://purl.org/dc/dcmitype/StillImage"/>
    <dc:date>2023-05-02T10:33:14.823745</dc:date>
    <dc:format>image/svg+xml</dc:format>
    <dc:creator>
     <cc:Agent>
      <dc:title>Matplotlib v3.7.1, https://matplotlib.org/</dc:title>
     </cc:Agent>
    </dc:creator>
   </cc:Work>
  </rdf:RDF>
 </metadata>
 <defs>
  <style type="text/css">*{stroke-linejoin: round; stroke-linecap: butt}</style>
 </defs>
 <g id="figure_1">
  <g id="patch_1">
   <path d="M 0 345.6 
L 460.8 345.6 
L 460.8 0 
L 0 0 
z
" style="fill: #ffffff"/>
  </g>
  <g id="axes_1">
   <g id="patch_2">
    <path d="M 57.6 307.584 
L 414.72 307.584 
L 414.72 41.472 
L 57.6 41.472 
z
" style="fill: #ffffff"/>
   </g>
   <g id="PolyCollection_1">
    <path d="M 73.832727 88.119865 
L 73.832727 132.018782 
L 77.112066 130.274661 
L 80.391405 139.215947 
L 83.670744 203.581764 
L 86.950083 208.947263 
L 90.229421 219.062559 
L 93.50876 219.49548 
L 96.788099 154.830123 
L 100.067438 155.258741 
L 103.346777 246.59656 
L 106.626116 253.155394 
L 109.905455 252.73996 
L 113.184793 239.066709 
L 116.464132 230.637572 
L 119.743471 230.943752 
L 123.02281 228.03369 
L 126.302149 231.333871 
L 129.581488 229.095867 
L 132.860826 214.88904 
L 136.140165 228.980388 
L 139.419504 277.342173 
L 142.698843 261.151592 
L 145.978182 267.214427 
L 149.257521 271.084917 
L 152.53686 269.675901 
L 155.816198 254.841931 
L 159.095537 250.812419 
L 162.374876 252.762201 
L 165.654215 249.293013 
L 168.933554 250.530296 
L 172.212893 295.488 
L 175.492231 244.730542 
L 178.77157 213.56676 
L 182.050909 264.830044 
L 185.330248 204.929422 
L 188.609587 138.943655 
L 191.888926 146.769933 
L 195.168264 145.544206 
L 198.447603 145.351095 
L 201.726942 141.465018 
L 205.006281 134.55473 
L 208.28562 213.353103 
L 211.564959 132.476321 
L 214.844298 128.334061 
L 218.123636 161.370893 
L 221.402975 163.044086 
L 224.682314 170.073907 
L 227.961653 169.939781 
L 231.240992 170.063672 
L 234.520331 159.692942 
L 237.799669 159.128545 
L 241.079008 166.966871 
L 244.358347 172.099269 
L 247.637686 157.511697 
L 250.917025 167.13647 
L 254.196364 158.27949 
L 257.475702 151.877179 
L 260.755041 182.313389 
L 264.03438 181.332286 
L 267.313719 173.055226 
L 270.593058 178.324668 
L 273.872397 163.182742 
L 277.151736 164.848824 
L 280.431074 171.762776 
L 283.710413 161.846155 
L 286.989752 158.75877 
L 290.269091 174.159142 
L 293.54843 159.96591 
L 296.827769 158.707116 
L 300.107107 141.301071 
L 303.386446 142.213839 
L 306.665785 157.983517 
L 309.945124 158.782169 
L 313.224463 158.320604 
L 316.503802 158.623578 
L 319.78314 148.109955 
L 323.062479 152.536465 
L 326.341818 152.170104 
L 329.621157 158.260049 
L 332.900496 142.55321 
L 336.179835 150.116635 
L 339.459174 145.001672 
L 342.738512 145.465194 
L 346.017851 140.645008 
L 349.29719 130.685611 
L 352.576529 132.775314 
L 355.855868 121.936162 
L 359.135207 122.9177 
L 362.414545 128.876251 
L 365.693884 121.180559 
L 368.973223 133.522963 
L 372.252562 116.595666 
L 375.531901 123.733466 
L 378.81124 120.365141 
L 382.090579 113.359096 
L 385.369917 131.610545 
L 388.649256 108.949948 
L 391.928595 107.304605 
L 395.207934 104.696028 
L 398.487273 114.773989 
L 398.487273 62.875349 
L 398.487273 62.875349 
L 395.207934 53.568 
L 391.928595 57.323486 
L 388.649256 58.63997 
L 385.369917 67.368029 
L 382.090579 64.199827 
L 378.81124 69.66962 
L 375.531901 73.519928 
L 372.252562 68.323346 
L 368.973223 70.457613 
L 365.693884 67.610264 
L 362.414545 76.737632 
L 359.135207 69.338067 
L 355.855868 68.142349 
L 352.576529 76.507677 
L 349.29719 74.253075 
L 346.017851 80.136753 
L 342.738512 82.497284 
L 339.459174 81.746034 
L 336.179835 84.360113 
L 332.900496 78.434173 
L 329.621157 89.391067 
L 326.341818 82.497682 
L 323.062479 84.01254 
L 319.78314 79.027119 
L 316.503802 91.461457 
L 313.224463 91.151941 
L 309.945124 92.651802 
L 306.665785 94.859181 
L 303.386446 90.505645 
L 300.107107 88.684083 
L 296.827769 97.931563 
L 293.54843 100.058963 
L 290.269091 106.134777 
L 286.989752 98.199278 
L 283.710413 98.359548 
L 280.431074 106.867211 
L 277.151736 101.903231 
L 273.872397 100.431032 
L 270.593058 109.88058 
L 267.313719 102.834598 
L 264.03438 112.122877 
L 260.755041 114.291722 
L 257.475702 89.551331 
L 254.196364 95.497985 
L 250.917025 100.527029 
L 247.637686 93.812901 
L 244.358347 106.285723 
L 241.079008 102.735345 
L 237.799669 95.526833 
L 234.520331 98.013219 
L 231.240992 93.729473 
L 227.961653 93.526703 
L 224.682314 93.806737 
L 221.402975 93.63105 
L 218.123636 91.323058 
L 214.844298 83.279308 
L 211.564959 90.068537 
L 208.28562 88.697337 
L 205.006281 93.361082 
L 201.726942 88.644092 
L 198.447603 93.137462 
L 195.168264 93.682256 
L 191.888926 92.062785 
L 188.609587 90.439217 
L 185.330248 80.907532 
L 182.050909 98.185029 
L 178.77157 90.378024 
L 175.492231 79.862447 
L 172.212893 98.246366 
L 168.933554 85.883752 
L 165.654215 84.551493 
L 162.374876 88.077816 
L 159.095537 85.623503 
L 155.816198 89.90344 
L 152.53686 105.303145 
L 149.257521 107.081993 
L 145.978182 104.487796 
L 142.698843 93.822362 
L 139.419504 107.465879 
L 136.140165 96.303841 
L 132.860826 84.485402 
L 129.581488 95.657537 
L 126.302149 99.697556 
L 123.02281 95.328486 
L 119.743471 99.149982 
L 116.464132 97.220573 
L 113.184793 104.51493 
L 109.905455 118.593311 
L 106.626116 119.102446 
L 103.346777 111.907962 
L 100.067438 99.775797 
L 96.788099 95.660322 
L 93.50876 93.247286 
L 90.229421 92.870845 
L 86.950083 86.816404 
L 83.670744 79.978768 
L 80.391405 92.364597 
L 77.112066 86.23717 
L 73.832727 88.119865 
z
" clip-path="url(#pc861f56143)" style="fill: #1f77b4; fill-opacity: 0.2"/>
   </g>
   <g id="matplotlib.axis_1">
    <g id="xtick_1">
     <g id="line2d_1">
      <defs>
       <path id="m7d66370e53" d="M 0 0 
L 0 3.5 
" style="stroke: #000000; stroke-width: 0.8"/>
      </defs>
      <g>
       <use xlink:href="#m7d66370e53" x="73.832727" y="307.584" style="stroke: #000000; stroke-width: 0.8"/>
      </g>
     </g>
     <g id="text_1">
      <!-- 0 -->
      <g transform="translate(70.651477 322.182437) scale(0.1 -0.1)">
       <defs>
        <path id="DejaVuSans-30" d="M 2034 4250 
Q 1547 4250 1301 3770 
Q 1056 3291 1056 2328 
Q 1056 1369 1301 889 
Q 1547 409 2034 409 
Q 2525 409 2770 889 
Q 3016 1369 3016 2328 
Q 3016 3291 2770 3770 
Q 2525 4250 2034 4250 
z
M 2034 4750 
Q 2819 4750 3233 4129 
Q 3647 3509 3647 2328 
Q 3647 1150 3233 529 
Q 2819 -91 2034 -91 
Q 1250 -91 836 529 
Q 422 1150 422 2328 
Q 422 3509 836 4129 
Q 1250 4750 2034 4750 
z
" transform="scale(0.015625)"/>
       </defs>
       <use xlink:href="#DejaVuSans-30"/>
      </g>
     </g>
    </g>
    <g id="xtick_2">
     <g id="line2d_2">
      <g>
       <use xlink:href="#m7d66370e53" x="90.229421" y="307.584" style="stroke: #000000; stroke-width: 0.8"/>
      </g>
     </g>
     <g id="text_2">
      <!-- 5 -->
      <g transform="translate(87.048171 322.182437) scale(0.1 -0.1)">
       <defs>
        <path id="DejaVuSans-35" d="M 691 4666 
L 3169 4666 
L 3169 4134 
L 1269 4134 
L 1269 2991 
Q 1406 3038 1543 3061 
Q 1681 3084 1819 3084 
Q 2600 3084 3056 2656 
Q 3513 2228 3513 1497 
Q 3513 744 3044 326 
Q 2575 -91 1722 -91 
Q 1428 -91 1123 -41 
Q 819 9 494 109 
L 494 744 
Q 775 591 1075 516 
Q 1375 441 1709 441 
Q 2250 441 2565 725 
Q 2881 1009 2881 1497 
Q 2881 1984 2565 2268 
Q 2250 2553 1709 2553 
Q 1456 2553 1204 2497 
Q 953 2441 691 2322 
L 691 4666 
z
" transform="scale(0.015625)"/>
       </defs>
       <use xlink:href="#DejaVuSans-35"/>
      </g>
     </g>
    </g>
    <g id="xtick_3">
     <g id="line2d_3">
      <g>
       <use xlink:href="#m7d66370e53" x="106.626116" y="307.584" style="stroke: #000000; stroke-width: 0.8"/>
      </g>
     </g>
     <g id="text_3">
      <!-- 10 -->
      <g transform="translate(100.263616 322.182437) scale(0.1 -0.1)">
       <defs>
        <path id="DejaVuSans-31" d="M 794 531 
L 1825 531 
L 1825 4091 
L 703 3866 
L 703 4441 
L 1819 4666 
L 2450 4666 
L 2450 531 
L 3481 531 
L 3481 0 
L 794 0 
L 794 531 
z
" transform="scale(0.015625)"/>
       </defs>
       <use xlink:href="#DejaVuSans-31"/>
       <use xlink:href="#DejaVuSans-30" x="63.623047"/>
      </g>
     </g>
    </g>
    <g id="xtick_4">
     <g id="line2d_4">
      <g>
       <use xlink:href="#m7d66370e53" x="123.02281" y="307.584" style="stroke: #000000; stroke-width: 0.8"/>
      </g>
     </g>
     <g id="text_4">
      <!-- 15 -->
      <g transform="translate(116.66031 322.182437) scale(0.1 -0.1)">
       <use xlink:href="#DejaVuSans-31"/>
       <use xlink:href="#DejaVuSans-35" x="63.623047"/>
      </g>
     </g>
    </g>
    <g id="xtick_5">
     <g id="line2d_5">
      <g>
       <use xlink:href="#m7d66370e53" x="139.419504" y="307.584" style="stroke: #000000; stroke-width: 0.8"/>
      </g>
     </g>
     <g id="text_5">
      <!-- 20 -->
      <g transform="translate(133.057004 322.182437) scale(0.1 -0.1)">
       <defs>
        <path id="DejaVuSans-32" d="M 1228 531 
L 3431 531 
L 3431 0 
L 469 0 
L 469 531 
Q 828 903 1448 1529 
Q 2069 2156 2228 2338 
Q 2531 2678 2651 2914 
Q 2772 3150 2772 3378 
Q 2772 3750 2511 3984 
Q 2250 4219 1831 4219 
Q 1534 4219 1204 4116 
Q 875 4013 500 3803 
L 500 4441 
Q 881 4594 1212 4672 
Q 1544 4750 1819 4750 
Q 2544 4750 2975 4387 
Q 3406 4025 3406 3419 
Q 3406 3131 3298 2873 
Q 3191 2616 2906 2266 
Q 2828 2175 2409 1742 
Q 1991 1309 1228 531 
z
" transform="scale(0.015625)"/>
       </defs>
       <use xlink:href="#DejaVuSans-32"/>
       <use xlink:href="#DejaVuSans-30" x="63.623047"/>
      </g>
     </g>
    </g>
    <g id="xtick_6">
     <g id="line2d_6">
      <g>
       <use xlink:href="#m7d66370e53" x="155.816198" y="307.584" style="stroke: #000000; stroke-width: 0.8"/>
      </g>
     </g>
     <g id="text_6">
      <!-- 25 -->
      <g transform="translate(149.453698 322.182437) scale(0.1 -0.1)">
       <use xlink:href="#DejaVuSans-32"/>
       <use xlink:href="#DejaVuSans-35" x="63.623047"/>
      </g>
     </g>
    </g>
    <g id="xtick_7">
     <g id="line2d_7">
      <g>
       <use xlink:href="#m7d66370e53" x="172.212893" y="307.584" style="stroke: #000000; stroke-width: 0.8"/>
      </g>
     </g>
     <g id="text_7">
      <!-- 30 -->
      <g transform="translate(165.850393 322.182437) scale(0.1 -0.1)">
       <defs>
        <path id="DejaVuSans-33" d="M 2597 2516 
Q 3050 2419 3304 2112 
Q 3559 1806 3559 1356 
Q 3559 666 3084 287 
Q 2609 -91 1734 -91 
Q 1441 -91 1130 -33 
Q 819 25 488 141 
L 488 750 
Q 750 597 1062 519 
Q 1375 441 1716 441 
Q 2309 441 2620 675 
Q 2931 909 2931 1356 
Q 2931 1769 2642 2001 
Q 2353 2234 1838 2234 
L 1294 2234 
L 1294 2753 
L 1863 2753 
Q 2328 2753 2575 2939 
Q 2822 3125 2822 3475 
Q 2822 3834 2567 4026 
Q 2313 4219 1838 4219 
Q 1578 4219 1281 4162 
Q 984 4106 628 3988 
L 628 4550 
Q 988 4650 1302 4700 
Q 1616 4750 1894 4750 
Q 2613 4750 3031 4423 
Q 3450 4097 3450 3541 
Q 3450 3153 3228 2886 
Q 3006 2619 2597 2516 
z
" transform="scale(0.015625)"/>
       </defs>
       <use xlink:href="#DejaVuSans-33"/>
       <use xlink:href="#DejaVuSans-30" x="63.623047"/>
      </g>
     </g>
    </g>
    <g id="xtick_8">
     <g id="line2d_8">
      <g>
       <use xlink:href="#m7d66370e53" x="188.609587" y="307.584" style="stroke: #000000; stroke-width: 0.8"/>
      </g>
     </g>
     <g id="text_8">
      <!-- 35 -->
      <g transform="translate(182.247087 322.182437) scale(0.1 -0.1)">
       <use xlink:href="#DejaVuSans-33"/>
       <use xlink:href="#DejaVuSans-35" x="63.623047"/>
      </g>
     </g>
    </g>
    <g id="xtick_9">
     <g id="line2d_9">
      <g>
       <use xlink:href="#m7d66370e53" x="205.006281" y="307.584" style="stroke: #000000; stroke-width: 0.8"/>
      </g>
     </g>
     <g id="text_9">
      <!-- 40 -->
      <g transform="translate(198.643781 322.182437) scale(0.1 -0.1)">
       <defs>
        <path id="DejaVuSans-34" d="M 2419 4116 
L 825 1625 
L 2419 1625 
L 2419 4116 
z
M 2253 4666 
L 3047 4666 
L 3047 1625 
L 3713 1625 
L 3713 1100 
L 3047 1100 
L 3047 0 
L 2419 0 
L 2419 1100 
L 313 1100 
L 313 1709 
L 2253 4666 
z
" transform="scale(0.015625)"/>
       </defs>
       <use xlink:href="#DejaVuSans-34"/>
       <use xlink:href="#DejaVuSans-30" x="63.623047"/>
      </g>
     </g>
    </g>
    <g id="xtick_10">
     <g id="line2d_10">
      <g>
       <use xlink:href="#m7d66370e53" x="221.402975" y="307.584" style="stroke: #000000; stroke-width: 0.8"/>
      </g>
     </g>
     <g id="text_10">
      <!-- 45 -->
      <g transform="translate(215.040475 322.182437) scale(0.1 -0.1)">
       <use xlink:href="#DejaVuSans-34"/>
       <use xlink:href="#DejaVuSans-35" x="63.623047"/>
      </g>
     </g>
    </g>
    <g id="xtick_11">
     <g id="line2d_11">
      <g>
       <use xlink:href="#m7d66370e53" x="237.799669" y="307.584" style="stroke: #000000; stroke-width: 0.8"/>
      </g>
     </g>
     <g id="text_11">
      <!-- 50 -->
      <g transform="translate(231.437169 322.182437) scale(0.1 -0.1)">
       <use xlink:href="#DejaVuSans-35"/>
       <use xlink:href="#DejaVuSans-30" x="63.623047"/>
      </g>
     </g>
    </g>
    <g id="xtick_12">
     <g id="line2d_12">
      <g>
       <use xlink:href="#m7d66370e53" x="254.196364" y="307.584" style="stroke: #000000; stroke-width: 0.8"/>
      </g>
     </g>
     <g id="text_12">
      <!-- 55 -->
      <g transform="translate(247.833864 322.182437) scale(0.1 -0.1)">
       <use xlink:href="#DejaVuSans-35"/>
       <use xlink:href="#DejaVuSans-35" x="63.623047"/>
      </g>
     </g>
    </g>
    <g id="xtick_13">
     <g id="line2d_13">
      <g>
       <use xlink:href="#m7d66370e53" x="270.593058" y="307.584" style="stroke: #000000; stroke-width: 0.8"/>
      </g>
     </g>
     <g id="text_13">
      <!-- 60 -->
      <g transform="translate(264.230558 322.182437) scale(0.1 -0.1)">
       <defs>
        <path id="DejaVuSans-36" d="M 2113 2584 
Q 1688 2584 1439 2293 
Q 1191 2003 1191 1497 
Q 1191 994 1439 701 
Q 1688 409 2113 409 
Q 2538 409 2786 701 
Q 3034 994 3034 1497 
Q 3034 2003 2786 2293 
Q 2538 2584 2113 2584 
z
M 3366 4563 
L 3366 3988 
Q 3128 4100 2886 4159 
Q 2644 4219 2406 4219 
Q 1781 4219 1451 3797 
Q 1122 3375 1075 2522 
Q 1259 2794 1537 2939 
Q 1816 3084 2150 3084 
Q 2853 3084 3261 2657 
Q 3669 2231 3669 1497 
Q 3669 778 3244 343 
Q 2819 -91 2113 -91 
Q 1303 -91 875 529 
Q 447 1150 447 2328 
Q 447 3434 972 4092 
Q 1497 4750 2381 4750 
Q 2619 4750 2861 4703 
Q 3103 4656 3366 4563 
z
" transform="scale(0.015625)"/>
       </defs>
       <use xlink:href="#DejaVuSans-36"/>
       <use xlink:href="#DejaVuSans-30" x="63.623047"/>
      </g>
     </g>
    </g>
    <g id="xtick_14">
     <g id="line2d_14">
      <g>
       <use xlink:href="#m7d66370e53" x="286.989752" y="307.584" style="stroke: #000000; stroke-width: 0.8"/>
      </g>
     </g>
     <g id="text_14">
      <!-- 65 -->
      <g transform="translate(280.627252 322.182437) scale(0.1 -0.1)">
       <use xlink:href="#DejaVuSans-36"/>
       <use xlink:href="#DejaVuSans-35" x="63.623047"/>
      </g>
     </g>
    </g>
    <g id="xtick_15">
     <g id="line2d_15">
      <g>
       <use xlink:href="#m7d66370e53" x="303.386446" y="307.584" style="stroke: #000000; stroke-width: 0.8"/>
      </g>
     </g>
     <g id="text_15">
      <!-- 70 -->
      <g transform="translate(297.023946 322.182437) scale(0.1 -0.1)">
       <defs>
        <path id="DejaVuSans-37" d="M 525 4666 
L 3525 4666 
L 3525 4397 
L 1831 0 
L 1172 0 
L 2766 4134 
L 525 4134 
L 525 4666 
z
" transform="scale(0.015625)"/>
       </defs>
       <use xlink:href="#DejaVuSans-37"/>
       <use xlink:href="#DejaVuSans-30" x="63.623047"/>
      </g>
     </g>
    </g>
    <g id="xtick_16">
     <g id="line2d_16">
      <g>
       <use xlink:href="#m7d66370e53" x="319.78314" y="307.584" style="stroke: #000000; stroke-width: 0.8"/>
      </g>
     </g>
     <g id="text_16">
      <!-- 75 -->
      <g transform="translate(313.42064 322.182437) scale(0.1 -0.1)">
       <use xlink:href="#DejaVuSans-37"/>
       <use xlink:href="#DejaVuSans-35" x="63.623047"/>
      </g>
     </g>
    </g>
    <g id="xtick_17">
     <g id="line2d_17">
      <g>
       <use xlink:href="#m7d66370e53" x="336.179835" y="307.584" style="stroke: #000000; stroke-width: 0.8"/>
      </g>
     </g>
     <g id="text_17">
      <!-- 80 -->
      <g transform="translate(329.817335 322.182437) scale(0.1 -0.1)">
       <defs>
        <path id="DejaVuSans-38" d="M 2034 2216 
Q 1584 2216 1326 1975 
Q 1069 1734 1069 1313 
Q 1069 891 1326 650 
Q 1584 409 2034 409 
Q 2484 409 2743 651 
Q 3003 894 3003 1313 
Q 3003 1734 2745 1975 
Q 2488 2216 2034 2216 
z
M 1403 2484 
Q 997 2584 770 2862 
Q 544 3141 544 3541 
Q 544 4100 942 4425 
Q 1341 4750 2034 4750 
Q 2731 4750 3128 4425 
Q 3525 4100 3525 3541 
Q 3525 3141 3298 2862 
Q 3072 2584 2669 2484 
Q 3125 2378 3379 2068 
Q 3634 1759 3634 1313 
Q 3634 634 3220 271 
Q 2806 -91 2034 -91 
Q 1263 -91 848 271 
Q 434 634 434 1313 
Q 434 1759 690 2068 
Q 947 2378 1403 2484 
z
M 1172 3481 
Q 1172 3119 1398 2916 
Q 1625 2713 2034 2713 
Q 2441 2713 2670 2916 
Q 2900 3119 2900 3481 
Q 2900 3844 2670 4047 
Q 2441 4250 2034 4250 
Q 1625 4250 1398 4047 
Q 1172 3844 1172 3481 
z
" transform="scale(0.015625)"/>
       </defs>
       <use xlink:href="#DejaVuSans-38"/>
       <use xlink:href="#DejaVuSans-30" x="63.623047"/>
      </g>
     </g>
    </g>
    <g id="xtick_18">
     <g id="line2d_18">
      <g>
       <use xlink:href="#m7d66370e53" x="352.576529" y="307.584" style="stroke: #000000; stroke-width: 0.8"/>
      </g>
     </g>
     <g id="text_18">
      <!-- 85 -->
      <g transform="translate(346.214029 322.182437) scale(0.1 -0.1)">
       <use xlink:href="#DejaVuSans-38"/>
       <use xlink:href="#DejaVuSans-35" x="63.623047"/>
      </g>
     </g>
    </g>
    <g id="xtick_19">
     <g id="line2d_19">
      <g>
       <use xlink:href="#m7d66370e53" x="368.973223" y="307.584" style="stroke: #000000; stroke-width: 0.8"/>
      </g>
     </g>
     <g id="text_19">
      <!-- 90 -->
      <g transform="translate(362.610723 322.182437) scale(0.1 -0.1)">
       <defs>
        <path id="DejaVuSans-39" d="M 703 97 
L 703 672 
Q 941 559 1184 500 
Q 1428 441 1663 441 
Q 2288 441 2617 861 
Q 2947 1281 2994 2138 
Q 2813 1869 2534 1725 
Q 2256 1581 1919 1581 
Q 1219 1581 811 2004 
Q 403 2428 403 3163 
Q 403 3881 828 4315 
Q 1253 4750 1959 4750 
Q 2769 4750 3195 4129 
Q 3622 3509 3622 2328 
Q 3622 1225 3098 567 
Q 2575 -91 1691 -91 
Q 1453 -91 1209 -44 
Q 966 3 703 97 
z
M 1959 2075 
Q 2384 2075 2632 2365 
Q 2881 2656 2881 3163 
Q 2881 3666 2632 3958 
Q 2384 4250 1959 4250 
Q 1534 4250 1286 3958 
Q 1038 3666 1038 3163 
Q 1038 2656 1286 2365 
Q 1534 2075 1959 2075 
z
" transform="scale(0.015625)"/>
       </defs>
       <use xlink:href="#DejaVuSans-39"/>
       <use xlink:href="#DejaVuSans-30" x="63.623047"/>
      </g>
     </g>
    </g>
    <g id="xtick_20">
     <g id="line2d_20">
      <g>
       <use xlink:href="#m7d66370e53" x="385.369917" y="307.584" style="stroke: #000000; stroke-width: 0.8"/>
      </g>
     </g>
     <g id="text_20">
      <!-- 95 -->
      <g transform="translate(379.007417 322.182437) scale(0.1 -0.1)">
       <use xlink:href="#DejaVuSans-39"/>
       <use xlink:href="#DejaVuSans-35" x="63.623047"/>
      </g>
     </g>
    </g>
    <g id="xtick_21">
     <g id="line2d_21">
      <g>
       <use xlink:href="#m7d66370e53" x="401.766612" y="307.584" style="stroke: #000000; stroke-width: 0.8"/>
      </g>
     </g>
     <g id="text_21">
      <!-- 100 -->
      <g transform="translate(392.222862 322.182437) scale(0.1 -0.1)">
       <use xlink:href="#DejaVuSans-31"/>
       <use xlink:href="#DejaVuSans-30" x="63.623047"/>
       <use xlink:href="#DejaVuSans-30" x="127.246094"/>
      </g>
     </g>
    </g>
    <g id="text_22">
     <!-- Generation -->
     <g transform="translate(197.109844 338.899937) scale(0.14 -0.14)">
      <defs>
       <path id="DejaVuSans-47" d="M 3809 666 
L 3809 1919 
L 2778 1919 
L 2778 2438 
L 4434 2438 
L 4434 434 
Q 4069 175 3628 42 
Q 3188 -91 2688 -91 
Q 1594 -91 976 548 
Q 359 1188 359 2328 
Q 359 3472 976 4111 
Q 1594 4750 2688 4750 
Q 3144 4750 3555 4637 
Q 3966 4525 4313 4306 
L 4313 3634 
Q 3963 3931 3569 4081 
Q 3175 4231 2741 4231 
Q 1884 4231 1454 3753 
Q 1025 3275 1025 2328 
Q 1025 1384 1454 906 
Q 1884 428 2741 428 
Q 3075 428 3337 486 
Q 3600 544 3809 666 
z
" transform="scale(0.015625)"/>
       <path id="DejaVuSans-65" d="M 3597 1894 
L 3597 1613 
L 953 1613 
Q 991 1019 1311 708 
Q 1631 397 2203 397 
Q 2534 397 2845 478 
Q 3156 559 3463 722 
L 3463 178 
Q 3153 47 2828 -22 
Q 2503 -91 2169 -91 
Q 1331 -91 842 396 
Q 353 884 353 1716 
Q 353 2575 817 3079 
Q 1281 3584 2069 3584 
Q 2775 3584 3186 3129 
Q 3597 2675 3597 1894 
z
M 3022 2063 
Q 3016 2534 2758 2815 
Q 2500 3097 2075 3097 
Q 1594 3097 1305 2825 
Q 1016 2553 972 2059 
L 3022 2063 
z
" transform="scale(0.015625)"/>
       <path id="DejaVuSans-6e" d="M 3513 2113 
L 3513 0 
L 2938 0 
L 2938 2094 
Q 2938 2591 2744 2837 
Q 2550 3084 2163 3084 
Q 1697 3084 1428 2787 
Q 1159 2491 1159 1978 
L 1159 0 
L 581 0 
L 581 3500 
L 1159 3500 
L 1159 2956 
Q 1366 3272 1645 3428 
Q 1925 3584 2291 3584 
Q 2894 3584 3203 3211 
Q 3513 2838 3513 2113 
z
" transform="scale(0.015625)"/>
       <path id="DejaVuSans-72" d="M 2631 2963 
Q 2534 3019 2420 3045 
Q 2306 3072 2169 3072 
Q 1681 3072 1420 2755 
Q 1159 2438 1159 1844 
L 1159 0 
L 581 0 
L 581 3500 
L 1159 3500 
L 1159 2956 
Q 1341 3275 1631 3429 
Q 1922 3584 2338 3584 
Q 2397 3584 2469 3576 
Q 2541 3569 2628 3553 
L 2631 2963 
z
" transform="scale(0.015625)"/>
       <path id="DejaVuSans-61" d="M 2194 1759 
Q 1497 1759 1228 1600 
Q 959 1441 959 1056 
Q 959 750 1161 570 
Q 1363 391 1709 391 
Q 2188 391 2477 730 
Q 2766 1069 2766 1631 
L 2766 1759 
L 2194 1759 
z
M 3341 1997 
L 3341 0 
L 2766 0 
L 2766 531 
Q 2569 213 2275 61 
Q 1981 -91 1556 -91 
Q 1019 -91 701 211 
Q 384 513 384 1019 
Q 384 1609 779 1909 
Q 1175 2209 1959 2209 
L 2766 2209 
L 2766 2266 
Q 2766 2663 2505 2880 
Q 2244 3097 1772 3097 
Q 1472 3097 1187 3025 
Q 903 2953 641 2809 
L 641 3341 
Q 956 3463 1253 3523 
Q 1550 3584 1831 3584 
Q 2591 3584 2966 3190 
Q 3341 2797 3341 1997 
z
" transform="scale(0.015625)"/>
       <path id="DejaVuSans-74" d="M 1172 4494 
L 1172 3500 
L 2356 3500 
L 2356 3053 
L 1172 3053 
L 1172 1153 
Q 1172 725 1289 603 
Q 1406 481 1766 481 
L 2356 481 
L 2356 0 
L 1766 0 
Q 1100 0 847 248 
Q 594 497 594 1153 
L 594 3053 
L 172 3053 
L 172 3500 
L 594 3500 
L 594 4494 
L 1172 4494 
z
" transform="scale(0.015625)"/>
       <path id="DejaVuSans-69" d="M 603 3500 
L 1178 3500 
L 1178 0 
L 603 0 
L 603 3500 
z
M 603 4863 
L 1178 4863 
L 1178 4134 
L 603 4134 
L 603 4863 
z
" transform="scale(0.015625)"/>
       <path id="DejaVuSans-6f" d="M 1959 3097 
Q 1497 3097 1228 2736 
Q 959 2375 959 1747 
Q 959 1119 1226 758 
Q 1494 397 1959 397 
Q 2419 397 2687 759 
Q 2956 1122 2956 1747 
Q 2956 2369 2687 2733 
Q 2419 3097 1959 3097 
z
M 1959 3584 
Q 2709 3584 3137 3096 
Q 3566 2609 3566 1747 
Q 3566 888 3137 398 
Q 2709 -91 1959 -91 
Q 1206 -91 779 398 
Q 353 888 353 1747 
Q 353 2609 779 3096 
Q 1206 3584 1959 3584 
z
" transform="scale(0.015625)"/>
      </defs>
      <use xlink:href="#DejaVuSans-47"/>
      <use xlink:href="#DejaVuSans-65" x="77.490234"/>
      <use xlink:href="#DejaVuSans-6e" x="139.013672"/>
      <use xlink:href="#DejaVuSans-65" x="202.392578"/>
      <use xlink:href="#DejaVuSans-72" x="263.916016"/>
      <use xlink:href="#DejaVuSans-61" x="305.029297"/>
      <use xlink:href="#DejaVuSans-74" x="366.308594"/>
      <use xlink:href="#DejaVuSans-69" x="405.517578"/>
      <use xlink:href="#DejaVuSans-6f" x="433.300781"/>
      <use xlink:href="#DejaVuSans-6e" x="494.482422"/>
     </g>
    </g>
   </g>
   <g id="matplotlib.axis_2">
    <g id="ytick_1">
     <g id="line2d_22">
      <defs>
       <path id="mf2edf892e5" d="M 0 0 
L -3.5 0 
" style="stroke: #000000; stroke-width: 0.8"/>
      </defs>
      <g>
       <use xlink:href="#mf2edf892e5" x="57.6" y="275.831732" style="stroke: #000000; stroke-width: 0.8"/>
      </g>
     </g>
     <g id="text_23">
      <!-- 52.5 -->
      <g transform="translate(28.334375 279.630951) scale(0.1 -0.1)">
       <defs>
        <path id="DejaVuSans-2e" d="M 684 794 
L 1344 794 
L 1344 0 
L 684 0 
L 684 794 
z
" transform="scale(0.015625)"/>
       </defs>
       <use xlink:href="#DejaVuSans-35"/>
       <use xlink:href="#DejaVuSans-32" x="63.623047"/>
       <use xlink:href="#DejaVuSans-2e" x="127.246094"/>
       <use xlink:href="#DejaVuSans-35" x="159.033203"/>
      </g>
     </g>
    </g>
    <g id="ytick_2">
     <g id="line2d_23">
      <g>
       <use xlink:href="#mf2edf892e5" x="57.6" y="243.019766" style="stroke: #000000; stroke-width: 0.8"/>
      </g>
     </g>
     <g id="text_24">
      <!-- 55.0 -->
      <g transform="translate(28.334375 246.818984) scale(0.1 -0.1)">
       <use xlink:href="#DejaVuSans-35"/>
       <use xlink:href="#DejaVuSans-35" x="63.623047"/>
       <use xlink:href="#DejaVuSans-2e" x="127.246094"/>
       <use xlink:href="#DejaVuSans-30" x="159.033203"/>
      </g>
     </g>
    </g>
    <g id="ytick_3">
     <g id="line2d_24">
      <g>
       <use xlink:href="#mf2edf892e5" x="57.6" y="210.207799" style="stroke: #000000; stroke-width: 0.8"/>
      </g>
     </g>
     <g id="text_25">
      <!-- 57.5 -->
      <g transform="translate(28.334375 214.007018) scale(0.1 -0.1)">
       <use xlink:href="#DejaVuSans-35"/>
       <use xlink:href="#DejaVuSans-37" x="63.623047"/>
       <use xlink:href="#DejaVuSans-2e" x="127.246094"/>
       <use xlink:href="#DejaVuSans-35" x="159.033203"/>
      </g>
     </g>
    </g>
    <g id="ytick_4">
     <g id="line2d_25">
      <g>
       <use xlink:href="#mf2edf892e5" x="57.6" y="177.395833" style="stroke: #000000; stroke-width: 0.8"/>
      </g>
     </g>
     <g id="text_26">
      <!-- 60.0 -->
      <g transform="translate(28.334375 181.195052) scale(0.1 -0.1)">
       <use xlink:href="#DejaVuSans-36"/>
       <use xlink:href="#DejaVuSans-30" x="63.623047"/>
       <use xlink:href="#DejaVuSans-2e" x="127.246094"/>
       <use xlink:href="#DejaVuSans-30" x="159.033203"/>
      </g>
     </g>
    </g>
    <g id="ytick_5">
     <g id="line2d_26">
      <g>
       <use xlink:href="#mf2edf892e5" x="57.6" y="144.583866" style="stroke: #000000; stroke-width: 0.8"/>
      </g>
     </g>
     <g id="text_27">
      <!-- 62.5 -->
      <g transform="translate(28.334375 148.383085) scale(0.1 -0.1)">
       <use xlink:href="#DejaVuSans-36"/>
       <use xlink:href="#DejaVuSans-32" x="63.623047"/>
       <use xlink:href="#DejaVuSans-2e" x="127.246094"/>
       <use xlink:href="#DejaVuSans-35" x="159.033203"/>
      </g>
     </g>
    </g>
    <g id="ytick_6">
     <g id="line2d_27">
      <g>
       <use xlink:href="#mf2edf892e5" x="57.6" y="111.7719" style="stroke: #000000; stroke-width: 0.8"/>
      </g>
     </g>
     <g id="text_28">
      <!-- 65.0 -->
      <g transform="translate(28.334375 115.571119) scale(0.1 -0.1)">
       <use xlink:href="#DejaVuSans-36"/>
       <use xlink:href="#DejaVuSans-35" x="63.623047"/>
       <use xlink:href="#DejaVuSans-2e" x="127.246094"/>
       <use xlink:href="#DejaVuSans-30" x="159.033203"/>
      </g>
     </g>
    </g>
    <g id="ytick_7">
     <g id="line2d_28">
      <g>
       <use xlink:href="#mf2edf892e5" x="57.6" y="78.959934" style="stroke: #000000; stroke-width: 0.8"/>
      </g>
     </g>
     <g id="text_29">
      <!-- 67.5 -->
      <g transform="translate(28.334375 82.759152) scale(0.1 -0.1)">
       <use xlink:href="#DejaVuSans-36"/>
       <use xlink:href="#DejaVuSans-37" x="63.623047"/>
       <use xlink:href="#DejaVuSans-2e" x="127.246094"/>
       <use xlink:href="#DejaVuSans-35" x="159.033203"/>
      </g>
     </g>
    </g>
    <g id="ytick_8">
     <g id="line2d_29">
      <g>
       <use xlink:href="#mf2edf892e5" x="57.6" y="46.147967" style="stroke: #000000; stroke-width: 0.8"/>
      </g>
     </g>
     <g id="text_30">
      <!-- 70.0 -->
      <g transform="translate(28.334375 49.947186) scale(0.1 -0.1)">
       <use xlink:href="#DejaVuSans-37"/>
       <use xlink:href="#DejaVuSans-30" x="63.623047"/>
       <use xlink:href="#DejaVuSans-2e" x="127.246094"/>
       <use xlink:href="#DejaVuSans-30" x="159.033203"/>
      </g>
     </g>
    </g>
    <g id="text_31">
     <!-- Test Accuracy -->
     <g transform="translate(21.422812 222.4955) rotate(-90) scale(0.14 -0.14)">
      <defs>
       <path id="DejaVuSans-54" d="M -19 4666 
L 3928 4666 
L 3928 4134 
L 2272 4134 
L 2272 0 
L 1638 0 
L 1638 4134 
L -19 4134 
L -19 4666 
z
" transform="scale(0.015625)"/>
       <path id="DejaVuSans-73" d="M 2834 3397 
L 2834 2853 
Q 2591 2978 2328 3040 
Q 2066 3103 1784 3103 
Q 1356 3103 1142 2972 
Q 928 2841 928 2578 
Q 928 2378 1081 2264 
Q 1234 2150 1697 2047 
L 1894 2003 
Q 2506 1872 2764 1633 
Q 3022 1394 3022 966 
Q 3022 478 2636 193 
Q 2250 -91 1575 -91 
Q 1294 -91 989 -36 
Q 684 19 347 128 
L 347 722 
Q 666 556 975 473 
Q 1284 391 1588 391 
Q 1994 391 2212 530 
Q 2431 669 2431 922 
Q 2431 1156 2273 1281 
Q 2116 1406 1581 1522 
L 1381 1569 
Q 847 1681 609 1914 
Q 372 2147 372 2553 
Q 372 3047 722 3315 
Q 1072 3584 1716 3584 
Q 2034 3584 2315 3537 
Q 2597 3491 2834 3397 
z
" transform="scale(0.015625)"/>
       <path id="DejaVuSans-20" transform="scale(0.015625)"/>
       <path id="DejaVuSans-41" d="M 2188 4044 
L 1331 1722 
L 3047 1722 
L 2188 4044 
z
M 1831 4666 
L 2547 4666 
L 4325 0 
L 3669 0 
L 3244 1197 
L 1141 1197 
L 716 0 
L 50 0 
L 1831 4666 
z
" transform="scale(0.015625)"/>
       <path id="DejaVuSans-63" d="M 3122 3366 
L 3122 2828 
Q 2878 2963 2633 3030 
Q 2388 3097 2138 3097 
Q 1578 3097 1268 2742 
Q 959 2388 959 1747 
Q 959 1106 1268 751 
Q 1578 397 2138 397 
Q 2388 397 2633 464 
Q 2878 531 3122 666 
L 3122 134 
Q 2881 22 2623 -34 
Q 2366 -91 2075 -91 
Q 1284 -91 818 406 
Q 353 903 353 1747 
Q 353 2603 823 3093 
Q 1294 3584 2113 3584 
Q 2378 3584 2631 3529 
Q 2884 3475 3122 3366 
z
" transform="scale(0.015625)"/>
       <path id="DejaVuSans-75" d="M 544 1381 
L 544 3500 
L 1119 3500 
L 1119 1403 
Q 1119 906 1312 657 
Q 1506 409 1894 409 
Q 2359 409 2629 706 
Q 2900 1003 2900 1516 
L 2900 3500 
L 3475 3500 
L 3475 0 
L 2900 0 
L 2900 538 
Q 2691 219 2414 64 
Q 2138 -91 1772 -91 
Q 1169 -91 856 284 
Q 544 659 544 1381 
z
M 1991 3584 
L 1991 3584 
z
" transform="scale(0.015625)"/>
       <path id="DejaVuSans-79" d="M 2059 -325 
Q 1816 -950 1584 -1140 
Q 1353 -1331 966 -1331 
L 506 -1331 
L 506 -850 
L 844 -850 
Q 1081 -850 1212 -737 
Q 1344 -625 1503 -206 
L 1606 56 
L 191 3500 
L 800 3500 
L 1894 763 
L 2988 3500 
L 3597 3500 
L 2059 -325 
z
" transform="scale(0.015625)"/>
      </defs>
      <use xlink:href="#DejaVuSans-54"/>
      <use xlink:href="#DejaVuSans-65" x="44.083984"/>
      <use xlink:href="#DejaVuSans-73" x="105.607422"/>
      <use xlink:href="#DejaVuSans-74" x="157.707031"/>
      <use xlink:href="#DejaVuSans-20" x="196.916016"/>
      <use xlink:href="#DejaVuSans-41" x="228.703125"/>
      <use xlink:href="#DejaVuSans-63" x="295.361328"/>
      <use xlink:href="#DejaVuSans-63" x="350.341797"/>
      <use xlink:href="#DejaVuSans-75" x="405.322266"/>
      <use xlink:href="#DejaVuSans-72" x="468.701172"/>
      <use xlink:href="#DejaVuSans-61" x="509.814453"/>
      <use xlink:href="#DejaVuSans-63" x="571.09375"/>
      <use xlink:href="#DejaVuSans-79" x="626.074219"/>
     </g>
    </g>
   </g>
   <g id="line2d_30">
    <path d="M 73.832727 110.069323 
L 77.112066 108.255915 
L 80.391405 115.790272 
L 83.670744 141.780266 
L 86.950083 147.881834 
L 90.229421 155.966702 
L 93.50876 156.371383 
L 96.788099 125.245223 
L 100.067438 127.517269 
L 103.346777 179.252261 
L 106.626116 186.12892 
L 109.905455 185.666636 
L 113.184793 171.79082 
L 116.464132 163.929073 
L 119.743471 165.046867 
L 123.02281 161.681088 
L 126.302149 165.515713 
L 129.581488 162.376702 
L 132.860826 149.687221 
L 136.140165 162.642114 
L 139.419504 192.404026 
L 142.698843 177.486977 
L 145.978182 185.851112 
L 149.257521 189.083455 
L 152.53686 187.489523 
L 155.816198 172.372685 
L 159.095537 168.217961 
L 162.374876 170.420009 
L 165.654215 166.922253 
L 168.933554 168.207024 
L 172.212893 196.867183 
L 175.492231 162.296495 
L 178.77157 151.972392 
L 182.050909 181.507537 
L 185.330248 142.918477 
L 188.609587 114.691436 
L 191.888926 119.416359 
L 195.168264 119.613231 
L 198.447603 119.244278 
L 201.726942 115.054555 
L 205.006281 113.957906 
L 208.28562 151.02522 
L 211.564959 111.272429 
L 214.844298 105.806684 
L 218.123636 126.346975 
L 221.402975 128.337568 
L 224.682314 131.940322 
L 227.961653 131.733242 
L 231.240992 131.896573 
L 234.520331 128.853081 
L 237.799669 127.327689 
L 241.079008 134.851108 
L 244.358347 139.192496 
L 247.637686 125.662299 
L 250.917025 133.83175 
L 254.196364 126.888737 
L 257.475702 120.714255 
L 260.755041 148.302556 
L 264.03438 146.727582 
L 267.313719 137.944912 
L 270.593058 144.102624 
L 273.872397 131.806887 
L 277.151736 133.376028 
L 280.431074 139.314994 
L 283.710413 130.102852 
L 286.989752 128.479024 
L 290.269091 140.146959 
L 293.54843 130.012437 
L 296.827769 128.319339 
L 300.107107 114.992577 
L 303.386446 116.359742 
L 306.665785 126.421349 
L 309.945124 125.716986 
L 313.224463 124.736272 
L 316.503802 125.042517 
L 319.78314 113.568537 
L 323.062479 118.274503 
L 326.341818 117.333893 
L 329.621157 123.825558 
L 332.900496 110.493692 
L 336.179835 117.238374 
L 339.459174 113.373853 
L 342.738512 113.981239 
L 346.017851 110.390881 
L 349.29719 102.469343 
L 352.576529 104.641495 
L 355.855868 95.039255 
L 359.135207 96.127884 
L 362.414545 102.806942 
L 365.693884 94.395412 
L 368.973223 101.990288 
L 372.252562 92.459506 
L 375.531901 98.626697 
L 378.81124 95.017381 
L 382.090579 88.779461 
L 385.369917 99.489287 
L 388.649256 83.794959 
L 391.928595 82.314046 
L 395.207934 79.132014 
L 398.487273 88.824669 
" clip-path="url(#pc861f56143)" style="fill: none; stroke: #1f77b4; stroke-linecap: square"/>
    <defs>
     <path id="md998ad8066" d="M 0 2.5 
C 0.663008 2.5 1.29895 2.236584 1.767767 1.767767 
C 2.236584 1.29895 2.5 0.663008 2.5 0 
C 2.5 -0.663008 2.236584 -1.29895 1.767767 -1.767767 
C 1.29895 -2.236584 0.663008 -2.5 0 -2.5 
C -0.663008 -2.5 -1.29895 -2.236584 -1.767767 -1.767767 
C -2.236584 -1.29895 -2.5 -0.663008 -2.5 0 
C -2.5 0.663008 -2.236584 1.29895 -1.767767 1.767767 
C -1.29895 2.236584 -0.663008 2.5 0 2.5 
z
" style="stroke: #1f77b4"/>
    </defs>
    <g clip-path="url(#pc861f56143)">
     <use xlink:href="#md998ad8066" x="73.832727" y="110.069323" style="fill: #1f77b4; stroke: #1f77b4"/>
     <use xlink:href="#md998ad8066" x="77.112066" y="108.255915" style="fill: #1f77b4; stroke: #1f77b4"/>
     <use xlink:href="#md998ad8066" x="80.391405" y="115.790272" style="fill: #1f77b4; stroke: #1f77b4"/>
     <use xlink:href="#md998ad8066" x="83.670744" y="141.780266" style="fill: #1f77b4; stroke: #1f77b4"/>
     <use xlink:href="#md998ad8066" x="86.950083" y="147.881834" style="fill: #1f77b4; stroke: #1f77b4"/>
     <use xlink:href="#md998ad8066" x="90.229421" y="155.966702" style="fill: #1f77b4; stroke: #1f77b4"/>
     <use xlink:href="#md998ad8066" x="93.50876" y="156.371383" style="fill: #1f77b4; stroke: #1f77b4"/>
     <use xlink:href="#md998ad8066" x="96.788099" y="125.245223" style="fill: #1f77b4; stroke: #1f77b4"/>
     <use xlink:href="#md998ad8066" x="100.067438" y="127.517269" style="fill: #1f77b4; stroke: #1f77b4"/>
     <use xlink:href="#md998ad8066" x="103.346777" y="179.252261" style="fill: #1f77b4; stroke: #1f77b4"/>
     <use xlink:href="#md998ad8066" x="106.626116" y="186.12892" style="fill: #1f77b4; stroke: #1f77b4"/>
     <use xlink:href="#md998ad8066" x="109.905455" y="185.666636" style="fill: #1f77b4; stroke: #1f77b4"/>
     <use xlink:href="#md998ad8066" x="113.184793" y="171.79082" style="fill: #1f77b4; stroke: #1f77b4"/>
     <use xlink:href="#md998ad8066" x="116.464132" y="163.929073" style="fill: #1f77b4; stroke: #1f77b4"/>
     <use xlink:href="#md998ad8066" x="119.743471" y="165.046867" style="fill: #1f77b4; stroke: #1f77b4"/>
     <use xlink:href="#md998ad8066" x="123.02281" y="161.681088" style="fill: #1f77b4; stroke: #1f77b4"/>
     <use xlink:href="#md998ad8066" x="126.302149" y="165.515713" style="fill: #1f77b4; stroke: #1f77b4"/>
     <use xlink:href="#md998ad8066" x="129.581488" y="162.376702" style="fill: #1f77b4; stroke: #1f77b4"/>
     <use xlink:href="#md998ad8066" x="132.860826" y="149.687221" style="fill: #1f77b4; stroke: #1f77b4"/>
     <use xlink:href="#md998ad8066" x="136.140165" y="162.642114" style="fill: #1f77b4; stroke: #1f77b4"/>
     <use xlink:href="#md998ad8066" x="139.419504" y="192.404026" style="fill: #1f77b4; stroke: #1f77b4"/>
     <use xlink:href="#md998ad8066" x="142.698843" y="177.486977" style="fill: #1f77b4; stroke: #1f77b4"/>
     <use xlink:href="#md998ad8066" x="145.978182" y="185.851112" style="fill: #1f77b4; stroke: #1f77b4"/>
     <use xlink:href="#md998ad8066" x="149.257521" y="189.083455" style="fill: #1f77b4; stroke: #1f77b4"/>
     <use xlink:href="#md998ad8066" x="152.53686" y="187.489523" style="fill: #1f77b4; stroke: #1f77b4"/>
     <use xlink:href="#md998ad8066" x="155.816198" y="172.372685" style="fill: #1f77b4; stroke: #1f77b4"/>
     <use xlink:href="#md998ad8066" x="159.095537" y="168.217961" style="fill: #1f77b4; stroke: #1f77b4"/>
     <use xlink:href="#md998ad8066" x="162.374876" y="170.420009" style="fill: #1f77b4; stroke: #1f77b4"/>
     <use xlink:href="#md998ad8066" x="165.654215" y="166.922253" style="fill: #1f77b4; stroke: #1f77b4"/>
     <use xlink:href="#md998ad8066" x="168.933554" y="168.207024" style="fill: #1f77b4; stroke: #1f77b4"/>
     <use xlink:href="#md998ad8066" x="172.212893" y="196.867183" style="fill: #1f77b4; stroke: #1f77b4"/>
     <use xlink:href="#md998ad8066" x="175.492231" y="162.296495" style="fill: #1f77b4; stroke: #1f77b4"/>
     <use xlink:href="#md998ad8066" x="178.77157" y="151.972392" style="fill: #1f77b4; stroke: #1f77b4"/>
     <use xlink:href="#md998ad8066" x="182.050909" y="181.507537" style="fill: #1f77b4; stroke: #1f77b4"/>
     <use xlink:href="#md998ad8066" x="185.330248" y="142.918477" style="fill: #1f77b4; stroke: #1f77b4"/>
     <use xlink:href="#md998ad8066" x="188.609587" y="114.691436" style="fill: #1f77b4; stroke: #1f77b4"/>
     <use xlink:href="#md998ad8066" x="191.888926" y="119.416359" style="fill: #1f77b4; stroke: #1f77b4"/>
     <use xlink:href="#md998ad8066" x="195.168264" y="119.613231" style="fill: #1f77b4; stroke: #1f77b4"/>
     <use xlink:href="#md998ad8066" x="198.447603" y="119.244278" style="fill: #1f77b4; stroke: #1f77b4"/>
     <use xlink:href="#md998ad8066" x="201.726942" y="115.054555" style="fill: #1f77b4; stroke: #1f77b4"/>
     <use xlink:href="#md998ad8066" x="205.006281" y="113.957906" style="fill: #1f77b4; stroke: #1f77b4"/>
     <use xlink:href="#md998ad8066" x="208.28562" y="151.02522" style="fill: #1f77b4; stroke: #1f77b4"/>
     <use xlink:href="#md998ad8066" x="211.564959" y="111.272429" style="fill: #1f77b4; stroke: #1f77b4"/>
     <use xlink:href="#md998ad8066" x="214.844298" y="105.806684" style="fill: #1f77b4; stroke: #1f77b4"/>
     <use xlink:href="#md998ad8066" x="218.123636" y="126.346975" style="fill: #1f77b4; stroke: #1f77b4"/>
     <use xlink:href="#md998ad8066" x="221.402975" y="128.337568" style="fill: #1f77b4; stroke: #1f77b4"/>
     <use xlink:href="#md998ad8066" x="224.682314" y="131.940322" style="fill: #1f77b4; stroke: #1f77b4"/>
     <use xlink:href="#md998ad8066" x="227.961653" y="131.733242" style="fill: #1f77b4; stroke: #1f77b4"/>
     <use xlink:href="#md998ad8066" x="231.240992" y="131.896573" style="fill: #1f77b4; stroke: #1f77b4"/>
     <use xlink:href="#md998ad8066" x="234.520331" y="128.853081" style="fill: #1f77b4; stroke: #1f77b4"/>
     <use xlink:href="#md998ad8066" x="237.799669" y="127.327689" style="fill: #1f77b4; stroke: #1f77b4"/>
     <use xlink:href="#md998ad8066" x="241.079008" y="134.851108" style="fill: #1f77b4; stroke: #1f77b4"/>
     <use xlink:href="#md998ad8066" x="244.358347" y="139.192496" style="fill: #1f77b4; stroke: #1f77b4"/>
     <use xlink:href="#md998ad8066" x="247.637686" y="125.662299" style="fill: #1f77b4; stroke: #1f77b4"/>
     <use xlink:href="#md998ad8066" x="250.917025" y="133.83175" style="fill: #1f77b4; stroke: #1f77b4"/>
     <use xlink:href="#md998ad8066" x="254.196364" y="126.888737" style="fill: #1f77b4; stroke: #1f77b4"/>
     <use xlink:href="#md998ad8066" x="257.475702" y="120.714255" style="fill: #1f77b4; stroke: #1f77b4"/>
     <use xlink:href="#md998ad8066" x="260.755041" y="148.302556" style="fill: #1f77b4; stroke: #1f77b4"/>
     <use xlink:href="#md998ad8066" x="264.03438" y="146.727582" style="fill: #1f77b4; stroke: #1f77b4"/>
     <use xlink:href="#md998ad8066" x="267.313719" y="137.944912" style="fill: #1f77b4; stroke: #1f77b4"/>
     <use xlink:href="#md998ad8066" x="270.593058" y="144.102624" style="fill: #1f77b4; stroke: #1f77b4"/>
     <use xlink:href="#md998ad8066" x="273.872397" y="131.806887" style="fill: #1f77b4; stroke: #1f77b4"/>
     <use xlink:href="#md998ad8066" x="277.151736" y="133.376028" style="fill: #1f77b4; stroke: #1f77b4"/>
     <use xlink:href="#md998ad8066" x="280.431074" y="139.314994" style="fill: #1f77b4; stroke: #1f77b4"/>
     <use xlink:href="#md998ad8066" x="283.710413" y="130.102852" style="fill: #1f77b4; stroke: #1f77b4"/>
     <use xlink:href="#md998ad8066" x="286.989752" y="128.479024" style="fill: #1f77b4; stroke: #1f77b4"/>
     <use xlink:href="#md998ad8066" x="290.269091" y="140.146959" style="fill: #1f77b4; stroke: #1f77b4"/>
     <use xlink:href="#md998ad8066" x="293.54843" y="130.012437" style="fill: #1f77b4; stroke: #1f77b4"/>
     <use xlink:href="#md998ad8066" x="296.827769" y="128.319339" style="fill: #1f77b4; stroke: #1f77b4"/>
     <use xlink:href="#md998ad8066" x="300.107107" y="114.992577" style="fill: #1f77b4; stroke: #1f77b4"/>
     <use xlink:href="#md998ad8066" x="303.386446" y="116.359742" style="fill: #1f77b4; stroke: #1f77b4"/>
     <use xlink:href="#md998ad8066" x="306.665785" y="126.421349" style="fill: #1f77b4; stroke: #1f77b4"/>
     <use xlink:href="#md998ad8066" x="309.945124" y="125.716986" style="fill: #1f77b4; stroke: #1f77b4"/>
     <use xlink:href="#md998ad8066" x="313.224463" y="124.736272" style="fill: #1f77b4; stroke: #1f77b4"/>
     <use xlink:href="#md998ad8066" x="316.503802" y="125.042517" style="fill: #1f77b4; stroke: #1f77b4"/>
     <use xlink:href="#md998ad8066" x="319.78314" y="113.568537" style="fill: #1f77b4; stroke: #1f77b4"/>
     <use xlink:href="#md998ad8066" x="323.062479" y="118.274503" style="fill: #1f77b4; stroke: #1f77b4"/>
     <use xlink:href="#md998ad8066" x="326.341818" y="117.333893" style="fill: #1f77b4; stroke: #1f77b4"/>
     <use xlink:href="#md998ad8066" x="329.621157" y="123.825558" style="fill: #1f77b4; stroke: #1f77b4"/>
     <use xlink:href="#md998ad8066" x="332.900496" y="110.493692" style="fill: #1f77b4; stroke: #1f77b4"/>
     <use xlink:href="#md998ad8066" x="336.179835" y="117.238374" style="fill: #1f77b4; stroke: #1f77b4"/>
     <use xlink:href="#md998ad8066" x="339.459174" y="113.373853" style="fill: #1f77b4; stroke: #1f77b4"/>
     <use xlink:href="#md998ad8066" x="342.738512" y="113.981239" style="fill: #1f77b4; stroke: #1f77b4"/>
     <use xlink:href="#md998ad8066" x="346.017851" y="110.390881" style="fill: #1f77b4; stroke: #1f77b4"/>
     <use xlink:href="#md998ad8066" x="349.29719" y="102.469343" style="fill: #1f77b4; stroke: #1f77b4"/>
     <use xlink:href="#md998ad8066" x="352.576529" y="104.641495" style="fill: #1f77b4; stroke: #1f77b4"/>
     <use xlink:href="#md998ad8066" x="355.855868" y="95.039255" style="fill: #1f77b4; stroke: #1f77b4"/>
     <use xlink:href="#md998ad8066" x="359.135207" y="96.127884" style="fill: #1f77b4; stroke: #1f77b4"/>
     <use xlink:href="#md998ad8066" x="362.414545" y="102.806942" style="fill: #1f77b4; stroke: #1f77b4"/>
     <use xlink:href="#md998ad8066" x="365.693884" y="94.395412" style="fill: #1f77b4; stroke: #1f77b4"/>
     <use xlink:href="#md998ad8066" x="368.973223" y="101.990288" style="fill: #1f77b4; stroke: #1f77b4"/>
     <use xlink:href="#md998ad8066" x="372.252562" y="92.459506" style="fill: #1f77b4; stroke: #1f77b4"/>
     <use xlink:href="#md998ad8066" x="375.531901" y="98.626697" style="fill: #1f77b4; stroke: #1f77b4"/>
     <use xlink:href="#md998ad8066" x="378.81124" y="95.017381" style="fill: #1f77b4; stroke: #1f77b4"/>
     <use xlink:href="#md998ad8066" x="382.090579" y="88.779461" style="fill: #1f77b4; stroke: #1f77b4"/>
     <use xlink:href="#md998ad8066" x="385.369917" y="99.489287" style="fill: #1f77b4; stroke: #1f77b4"/>
     <use xlink:href="#md998ad8066" x="388.649256" y="83.794959" style="fill: #1f77b4; stroke: #1f77b4"/>
     <use xlink:href="#md998ad8066" x="391.928595" y="82.314046" style="fill: #1f77b4; stroke: #1f77b4"/>
     <use xlink:href="#md998ad8066" x="395.207934" y="79.132014" style="fill: #1f77b4; stroke: #1f77b4"/>
     <use xlink:href="#md998ad8066" x="398.487273" y="88.824669" style="fill: #1f77b4; stroke: #1f77b4"/>
    </g>
   </g>
   <g id="patch_3">
    <path d="M 57.6 307.584 
L 57.6 41.472 
" style="fill: none; stroke: #000000; stroke-width: 0.8; stroke-linejoin: miter; stroke-linecap: square"/>
   </g>
   <g id="patch_4">
    <path d="M 414.72 307.584 
L 414.72 41.472 
" style="fill: none; stroke: #000000; stroke-width: 0.8; stroke-linejoin: miter; stroke-linecap: square"/>
   </g>
   <g id="patch_5">
    <path d="M 57.6 307.584 
L 414.72 307.584 
" style="fill: none; stroke: #000000; stroke-width: 0.8; stroke-linejoin: miter; stroke-linecap: square"/>
   </g>
   <g id="patch_6">
    <path d="M 57.6 41.472 
L 414.72 41.472 
" style="fill: none; stroke: #000000; stroke-width: 0.8; stroke-linejoin: miter; stroke-linecap: square"/>
   </g>
   <g id="text_32">
    <!-- Mean Test Accuracy (with 95% Confidence  -->
    <g transform="translate(67.257656 19.685688) scale(0.14 -0.14)">
     <defs>
      <path id="DejaVuSans-Bold-4d" d="M 588 4666 
L 2119 4666 
L 3181 2169 
L 4250 4666 
L 5778 4666 
L 5778 0 
L 4641 0 
L 4641 3413 
L 3566 897 
L 2803 897 
L 1728 3413 
L 1728 0 
L 588 0 
L 588 4666 
z
" transform="scale(0.015625)"/>
      <path id="DejaVuSans-Bold-65" d="M 4031 1759 
L 4031 1441 
L 1416 1441 
Q 1456 1047 1700 850 
Q 1944 653 2381 653 
Q 2734 653 3104 758 
Q 3475 863 3866 1075 
L 3866 213 
Q 3469 63 3072 -14 
Q 2675 -91 2278 -91 
Q 1328 -91 801 392 
Q 275 875 275 1747 
Q 275 2603 792 3093 
Q 1309 3584 2216 3584 
Q 3041 3584 3536 3087 
Q 4031 2591 4031 1759 
z
M 2881 2131 
Q 2881 2450 2695 2645 
Q 2509 2841 2209 2841 
Q 1884 2841 1681 2658 
Q 1478 2475 1428 2131 
L 2881 2131 
z
" transform="scale(0.015625)"/>
      <path id="DejaVuSans-Bold-61" d="M 2106 1575 
Q 1756 1575 1579 1456 
Q 1403 1338 1403 1106 
Q 1403 894 1545 773 
Q 1688 653 1941 653 
Q 2256 653 2472 879 
Q 2688 1106 2688 1447 
L 2688 1575 
L 2106 1575 
z
M 3816 1997 
L 3816 0 
L 2688 0 
L 2688 519 
Q 2463 200 2181 54 
Q 1900 -91 1497 -91 
Q 953 -91 614 226 
Q 275 544 275 1050 
Q 275 1666 698 1953 
Q 1122 2241 2028 2241 
L 2688 2241 
L 2688 2328 
Q 2688 2594 2478 2717 
Q 2269 2841 1825 2841 
Q 1466 2841 1156 2769 
Q 847 2697 581 2553 
L 581 3406 
Q 941 3494 1303 3539 
Q 1666 3584 2028 3584 
Q 2975 3584 3395 3211 
Q 3816 2838 3816 1997 
z
" transform="scale(0.015625)"/>
      <path id="DejaVuSans-Bold-6e" d="M 4056 2131 
L 4056 0 
L 2931 0 
L 2931 347 
L 2931 1631 
Q 2931 2084 2911 2256 
Q 2891 2428 2841 2509 
Q 2775 2619 2662 2680 
Q 2550 2741 2406 2741 
Q 2056 2741 1856 2470 
Q 1656 2200 1656 1722 
L 1656 0 
L 538 0 
L 538 3500 
L 1656 3500 
L 1656 2988 
Q 1909 3294 2193 3439 
Q 2478 3584 2822 3584 
Q 3428 3584 3742 3212 
Q 4056 2841 4056 2131 
z
" transform="scale(0.015625)"/>
      <path id="DejaVuSans-Bold-20" transform="scale(0.015625)"/>
      <path id="DejaVuSans-Bold-54" d="M 31 4666 
L 4331 4666 
L 4331 3756 
L 2784 3756 
L 2784 0 
L 1581 0 
L 1581 3756 
L 31 3756 
L 31 4666 
z
" transform="scale(0.015625)"/>
      <path id="DejaVuSans-Bold-73" d="M 3272 3391 
L 3272 2541 
Q 2913 2691 2578 2766 
Q 2244 2841 1947 2841 
Q 1628 2841 1473 2761 
Q 1319 2681 1319 2516 
Q 1319 2381 1436 2309 
Q 1553 2238 1856 2203 
L 2053 2175 
Q 2913 2066 3209 1816 
Q 3506 1566 3506 1031 
Q 3506 472 3093 190 
Q 2681 -91 1863 -91 
Q 1516 -91 1145 -36 
Q 775 19 384 128 
L 384 978 
Q 719 816 1070 734 
Q 1422 653 1784 653 
Q 2113 653 2278 743 
Q 2444 834 2444 1013 
Q 2444 1163 2330 1236 
Q 2216 1309 1875 1350 
L 1678 1375 
Q 931 1469 631 1722 
Q 331 1975 331 2491 
Q 331 3047 712 3315 
Q 1094 3584 1881 3584 
Q 2191 3584 2531 3537 
Q 2872 3491 3272 3391 
z
" transform="scale(0.015625)"/>
      <path id="DejaVuSans-Bold-74" d="M 1759 4494 
L 1759 3500 
L 2913 3500 
L 2913 2700 
L 1759 2700 
L 1759 1216 
Q 1759 972 1856 886 
Q 1953 800 2241 800 
L 2816 800 
L 2816 0 
L 1856 0 
Q 1194 0 917 276 
Q 641 553 641 1216 
L 641 2700 
L 84 2700 
L 84 3500 
L 641 3500 
L 641 4494 
L 1759 4494 
z
" transform="scale(0.015625)"/>
      <path id="DejaVuSans-Bold-41" d="M 3419 850 
L 1538 850 
L 1241 0 
L 31 0 
L 1759 4666 
L 3194 4666 
L 4922 0 
L 3713 0 
L 3419 850 
z
M 1838 1716 
L 3116 1716 
L 2478 3572 
L 1838 1716 
z
" transform="scale(0.015625)"/>
      <path id="DejaVuSans-Bold-63" d="M 3366 3391 
L 3366 2478 
Q 3138 2634 2908 2709 
Q 2678 2784 2431 2784 
Q 1963 2784 1702 2511 
Q 1441 2238 1441 1747 
Q 1441 1256 1702 982 
Q 1963 709 2431 709 
Q 2694 709 2930 787 
Q 3166 866 3366 1019 
L 3366 103 
Q 3103 6 2833 -42 
Q 2563 -91 2291 -91 
Q 1344 -91 809 395 
Q 275 881 275 1747 
Q 275 2613 809 3098 
Q 1344 3584 2291 3584 
Q 2566 3584 2833 3536 
Q 3100 3488 3366 3391 
z
" transform="scale(0.015625)"/>
      <path id="DejaVuSans-Bold-75" d="M 500 1363 
L 500 3500 
L 1625 3500 
L 1625 3150 
Q 1625 2866 1622 2436 
Q 1619 2006 1619 1863 
Q 1619 1441 1641 1255 
Q 1663 1069 1716 984 
Q 1784 875 1895 815 
Q 2006 756 2150 756 
Q 2500 756 2700 1025 
Q 2900 1294 2900 1772 
L 2900 3500 
L 4019 3500 
L 4019 0 
L 2900 0 
L 2900 506 
Q 2647 200 2364 54 
Q 2081 -91 1741 -91 
Q 1134 -91 817 281 
Q 500 653 500 1363 
z
" transform="scale(0.015625)"/>
      <path id="DejaVuSans-Bold-72" d="M 3138 2547 
Q 2991 2616 2845 2648 
Q 2700 2681 2553 2681 
Q 2122 2681 1889 2404 
Q 1656 2128 1656 1613 
L 1656 0 
L 538 0 
L 538 3500 
L 1656 3500 
L 1656 2925 
Q 1872 3269 2151 3426 
Q 2431 3584 2822 3584 
Q 2878 3584 2943 3579 
Q 3009 3575 3134 3559 
L 3138 2547 
z
" transform="scale(0.015625)"/>
      <path id="DejaVuSans-Bold-79" d="M 78 3500 
L 1197 3500 
L 2138 1125 
L 2938 3500 
L 4056 3500 
L 2584 -331 
Q 2363 -916 2067 -1148 
Q 1772 -1381 1288 -1381 
L 641 -1381 
L 641 -647 
L 991 -647 
Q 1275 -647 1404 -556 
Q 1534 -466 1606 -231 
L 1638 -134 
L 78 3500 
z
" transform="scale(0.015625)"/>
      <path id="DejaVuSans-Bold-28" d="M 2413 -844 
L 1484 -844 
Q 1006 -72 778 623 
Q 550 1319 550 2003 
Q 550 2688 779 3389 
Q 1009 4091 1484 4856 
L 2413 4856 
Q 2013 4116 1813 3408 
Q 1613 2700 1613 2009 
Q 1613 1319 1811 609 
Q 2009 -100 2413 -844 
z
" transform="scale(0.015625)"/>
      <path id="DejaVuSans-Bold-77" d="M 225 3500 
L 1313 3500 
L 1900 1088 
L 2491 3500 
L 3425 3500 
L 4013 1113 
L 4603 3500 
L 5691 3500 
L 4769 0 
L 3547 0 
L 2956 2406 
L 2369 0 
L 1147 0 
L 225 3500 
z
" transform="scale(0.015625)"/>
      <path id="DejaVuSans-Bold-69" d="M 538 3500 
L 1656 3500 
L 1656 0 
L 538 0 
L 538 3500 
z
M 538 4863 
L 1656 4863 
L 1656 3950 
L 538 3950 
L 538 4863 
z
" transform="scale(0.015625)"/>
      <path id="DejaVuSans-Bold-68" d="M 4056 2131 
L 4056 0 
L 2931 0 
L 2931 347 
L 2931 1625 
Q 2931 2084 2911 2256 
Q 2891 2428 2841 2509 
Q 2775 2619 2662 2680 
Q 2550 2741 2406 2741 
Q 2056 2741 1856 2470 
Q 1656 2200 1656 1722 
L 1656 0 
L 538 0 
L 538 4863 
L 1656 4863 
L 1656 2988 
Q 1909 3294 2193 3439 
Q 2478 3584 2822 3584 
Q 3428 3584 3742 3212 
Q 4056 2841 4056 2131 
z
" transform="scale(0.015625)"/>
      <path id="DejaVuSans-Bold-39" d="M 641 103 
L 641 966 
Q 928 831 1190 764 
Q 1453 697 1709 697 
Q 2247 697 2547 995 
Q 2847 1294 2900 1881 
Q 2688 1725 2447 1647 
Q 2206 1569 1925 1569 
Q 1209 1569 770 1986 
Q 331 2403 331 3084 
Q 331 3838 820 4291 
Q 1309 4744 2131 4744 
Q 3044 4744 3544 4128 
Q 4044 3513 4044 2388 
Q 4044 1231 3459 570 
Q 2875 -91 1856 -91 
Q 1528 -91 1228 -42 
Q 928 6 641 103 
z
M 2125 2350 
Q 2441 2350 2600 2554 
Q 2759 2759 2759 3169 
Q 2759 3575 2600 3781 
Q 2441 3988 2125 3988 
Q 1809 3988 1650 3781 
Q 1491 3575 1491 3169 
Q 1491 2759 1650 2554 
Q 1809 2350 2125 2350 
z
" transform="scale(0.015625)"/>
      <path id="DejaVuSans-Bold-35" d="M 678 4666 
L 3669 4666 
L 3669 3781 
L 1638 3781 
L 1638 3059 
Q 1775 3097 1914 3117 
Q 2053 3138 2203 3138 
Q 3056 3138 3531 2711 
Q 4006 2284 4006 1522 
Q 4006 766 3489 337 
Q 2972 -91 2053 -91 
Q 1656 -91 1267 -14 
Q 878 63 494 219 
L 494 1166 
Q 875 947 1217 837 
Q 1559 728 1863 728 
Q 2300 728 2551 942 
Q 2803 1156 2803 1522 
Q 2803 1891 2551 2103 
Q 2300 2316 1863 2316 
Q 1603 2316 1309 2248 
Q 1016 2181 678 2041 
L 678 4666 
z
" transform="scale(0.015625)"/>
      <path id="DejaVuSans-Bold-25" d="M 4959 1925 
Q 4738 1925 4616 1733 
Q 4494 1541 4494 1184 
Q 4494 825 4614 633 
Q 4734 441 4959 441 
Q 5184 441 5303 633 
Q 5422 825 5422 1184 
Q 5422 1541 5301 1733 
Q 5181 1925 4959 1925 
z
M 4959 2450 
Q 5541 2450 5875 2112 
Q 6209 1775 6209 1184 
Q 6209 594 5875 251 
Q 5541 -91 4959 -91 
Q 4378 -91 4042 251 
Q 3706 594 3706 1184 
Q 3706 1772 4042 2111 
Q 4378 2450 4959 2450 
z
M 2094 -91 
L 1403 -91 
L 4319 4750 
L 5013 4750 
L 2094 -91 
z
M 1453 4750 
Q 2034 4750 2367 4411 
Q 2700 4072 2700 3481 
Q 2700 2891 2367 2550 
Q 2034 2209 1453 2209 
Q 872 2209 539 2550 
Q 206 2891 206 3481 
Q 206 4072 539 4411 
Q 872 4750 1453 4750 
z
M 1453 4225 
Q 1228 4225 1106 4031 
Q 984 3838 984 3481 
Q 984 3122 1106 2926 
Q 1228 2731 1453 2731 
Q 1678 2731 1798 2926 
Q 1919 3122 1919 3481 
Q 1919 3838 1797 4031 
Q 1675 4225 1453 4225 
z
" transform="scale(0.015625)"/>
      <path id="DejaVuSans-Bold-43" d="M 4288 256 
Q 3956 84 3597 -3 
Q 3238 -91 2847 -91 
Q 1681 -91 1000 561 
Q 319 1213 319 2328 
Q 319 3447 1000 4098 
Q 1681 4750 2847 4750 
Q 3238 4750 3597 4662 
Q 3956 4575 4288 4403 
L 4288 3438 
Q 3953 3666 3628 3772 
Q 3303 3878 2944 3878 
Q 2300 3878 1931 3465 
Q 1563 3053 1563 2328 
Q 1563 1606 1931 1193 
Q 2300 781 2944 781 
Q 3303 781 3628 887 
Q 3953 994 4288 1222 
L 4288 256 
z
" transform="scale(0.015625)"/>
      <path id="DejaVuSans-Bold-6f" d="M 2203 2784 
Q 1831 2784 1636 2517 
Q 1441 2250 1441 1747 
Q 1441 1244 1636 976 
Q 1831 709 2203 709 
Q 2569 709 2762 976 
Q 2956 1244 2956 1747 
Q 2956 2250 2762 2517 
Q 2569 2784 2203 2784 
z
M 2203 3584 
Q 3106 3584 3614 3096 
Q 4122 2609 4122 1747 
Q 4122 884 3614 396 
Q 3106 -91 2203 -91 
Q 1297 -91 786 396 
Q 275 884 275 1747 
Q 275 2609 786 3096 
Q 1297 3584 2203 3584 
z
" transform="scale(0.015625)"/>
      <path id="DejaVuSans-Bold-66" d="M 2841 4863 
L 2841 4128 
L 2222 4128 
Q 1984 4128 1890 4042 
Q 1797 3956 1797 3744 
L 1797 3500 
L 2753 3500 
L 2753 2700 
L 1797 2700 
L 1797 0 
L 678 0 
L 678 2700 
L 122 2700 
L 122 3500 
L 678 3500 
L 678 3744 
Q 678 4316 997 4589 
Q 1316 4863 1984 4863 
L 2841 4863 
z
" transform="scale(0.015625)"/>
      <path id="DejaVuSans-Bold-64" d="M 2919 2988 
L 2919 4863 
L 4044 4863 
L 4044 0 
L 2919 0 
L 2919 506 
Q 2688 197 2409 53 
Q 2131 -91 1766 -91 
Q 1119 -91 703 423 
Q 288 938 288 1747 
Q 288 2556 703 3070 
Q 1119 3584 1766 3584 
Q 2128 3584 2408 3439 
Q 2688 3294 2919 2988 
z
M 2181 722 
Q 2541 722 2730 984 
Q 2919 1247 2919 1747 
Q 2919 2247 2730 2509 
Q 2541 2772 2181 2772 
Q 1825 2772 1636 2509 
Q 1447 2247 1447 1747 
Q 1447 1247 1636 984 
Q 1825 722 2181 722 
z
" transform="scale(0.015625)"/>
     </defs>
     <use xlink:href="#DejaVuSans-Bold-4d"/>
     <use xlink:href="#DejaVuSans-Bold-65" x="99.511719"/>
     <use xlink:href="#DejaVuSans-Bold-61" x="167.333984"/>
     <use xlink:href="#DejaVuSans-Bold-6e" x="234.814453"/>
     <use xlink:href="#DejaVuSans-Bold-20" x="306.005859"/>
     <use xlink:href="#DejaVuSans-Bold-54" x="340.820312"/>
     <use xlink:href="#DejaVuSans-Bold-65" x="395.783203"/>
     <use xlink:href="#DejaVuSans-Bold-73" x="463.605469"/>
     <use xlink:href="#DejaVuSans-Bold-74" x="523.126953"/>
     <use xlink:href="#DejaVuSans-Bold-20" x="570.929688"/>
     <use xlink:href="#DejaVuSans-Bold-41" x="605.744141"/>
     <use xlink:href="#DejaVuSans-Bold-63" x="683.136719"/>
     <use xlink:href="#DejaVuSans-Bold-63" x="742.414062"/>
     <use xlink:href="#DejaVuSans-Bold-75" x="801.691406"/>
     <use xlink:href="#DejaVuSans-Bold-72" x="872.882812"/>
     <use xlink:href="#DejaVuSans-Bold-61" x="922.199219"/>
     <use xlink:href="#DejaVuSans-Bold-63" x="989.679688"/>
     <use xlink:href="#DejaVuSans-Bold-79" x="1048.957031"/>
     <use xlink:href="#DejaVuSans-Bold-20" x="1114.142578"/>
     <use xlink:href="#DejaVuSans-Bold-28" x="1148.957031"/>
     <use xlink:href="#DejaVuSans-Bold-77" x="1194.660156"/>
     <use xlink:href="#DejaVuSans-Bold-69" x="1287.042969"/>
     <use xlink:href="#DejaVuSans-Bold-74" x="1321.320312"/>
     <use xlink:href="#DejaVuSans-Bold-68" x="1369.123047"/>
     <use xlink:href="#DejaVuSans-Bold-20" x="1440.314453"/>
     <use xlink:href="#DejaVuSans-Bold-39" x="1475.128906"/>
     <use xlink:href="#DejaVuSans-Bold-35" x="1544.708984"/>
     <use xlink:href="#DejaVuSans-Bold-25" x="1614.289062"/>
     <use xlink:href="#DejaVuSans-Bold-20" x="1714.484375"/>
     <use xlink:href="#DejaVuSans-Bold-43" x="1749.298828"/>
     <use xlink:href="#DejaVuSans-Bold-6f" x="1822.6875"/>
     <use xlink:href="#DejaVuSans-Bold-6e" x="1891.388672"/>
     <use xlink:href="#DejaVuSans-Bold-66" x="1962.580078"/>
     <use xlink:href="#DejaVuSans-Bold-69" x="2006.085938"/>
     <use xlink:href="#DejaVuSans-Bold-64" x="2040.363281"/>
     <use xlink:href="#DejaVuSans-Bold-65" x="2111.945312"/>
     <use xlink:href="#DejaVuSans-Bold-6e" x="2179.767578"/>
     <use xlink:href="#DejaVuSans-Bold-63" x="2250.958984"/>
     <use xlink:href="#DejaVuSans-Bold-65" x="2310.236328"/>
     <use xlink:href="#DejaVuSans-Bold-20" x="2378.058594"/>
    </g>
    <!-- Interval) over Generations -->
    <g transform="translate(131.590937 35.472) scale(0.14 -0.14)">
     <defs>
      <path id="DejaVuSans-Bold-49" d="M 588 4666 
L 1791 4666 
L 1791 0 
L 588 0 
L 588 4666 
z
" transform="scale(0.015625)"/>
      <path id="DejaVuSans-Bold-76" d="M 97 3500 
L 1216 3500 
L 2088 1081 
L 2956 3500 
L 4078 3500 
L 2700 0 
L 1472 0 
L 97 3500 
z
" transform="scale(0.015625)"/>
      <path id="DejaVuSans-Bold-6c" d="M 538 4863 
L 1656 4863 
L 1656 0 
L 538 0 
L 538 4863 
z
" transform="scale(0.015625)"/>
      <path id="DejaVuSans-Bold-29" d="M 513 -844 
Q 913 -100 1113 609 
Q 1313 1319 1313 2009 
Q 1313 2700 1113 3408 
Q 913 4116 513 4856 
L 1441 4856 
Q 1916 4091 2145 3389 
Q 2375 2688 2375 2003 
Q 2375 1319 2147 623 
Q 1919 -72 1441 -844 
L 513 -844 
z
" transform="scale(0.015625)"/>
      <path id="DejaVuSans-Bold-47" d="M 4781 347 
Q 4331 128 3847 18 
Q 3363 -91 2847 -91 
Q 1681 -91 1000 561 
Q 319 1213 319 2328 
Q 319 3456 1012 4103 
Q 1706 4750 2913 4750 
Q 3378 4750 3804 4662 
Q 4231 4575 4609 4403 
L 4609 3438 
Q 4219 3659 3833 3768 
Q 3447 3878 3059 3878 
Q 2341 3878 1952 3476 
Q 1563 3075 1563 2328 
Q 1563 1588 1938 1184 
Q 2313 781 3003 781 
Q 3191 781 3352 804 
Q 3513 828 3641 878 
L 3641 1784 
L 2906 1784 
L 2906 2591 
L 4781 2591 
L 4781 347 
z
" transform="scale(0.015625)"/>
     </defs>
     <use xlink:href="#DejaVuSans-Bold-49"/>
     <use xlink:href="#DejaVuSans-Bold-6e" x="37.207031"/>
     <use xlink:href="#DejaVuSans-Bold-74" x="108.398438"/>
     <use xlink:href="#DejaVuSans-Bold-65" x="156.201172"/>
     <use xlink:href="#DejaVuSans-Bold-72" x="224.023438"/>
     <use xlink:href="#DejaVuSans-Bold-76" x="273.339844"/>
     <use xlink:href="#DejaVuSans-Bold-61" x="338.525391"/>
     <use xlink:href="#DejaVuSans-Bold-6c" x="406.005859"/>
     <use xlink:href="#DejaVuSans-Bold-29" x="440.283203"/>
     <use xlink:href="#DejaVuSans-Bold-20" x="485.986328"/>
     <use xlink:href="#DejaVuSans-Bold-6f" x="520.800781"/>
     <use xlink:href="#DejaVuSans-Bold-76" x="589.501953"/>
     <use xlink:href="#DejaVuSans-Bold-65" x="654.6875"/>
     <use xlink:href="#DejaVuSans-Bold-72" x="722.509766"/>
     <use xlink:href="#DejaVuSans-Bold-20" x="771.826172"/>
     <use xlink:href="#DejaVuSans-Bold-47" x="806.640625"/>
     <use xlink:href="#DejaVuSans-Bold-65" x="888.720703"/>
     <use xlink:href="#DejaVuSans-Bold-6e" x="956.542969"/>
     <use xlink:href="#DejaVuSans-Bold-65" x="1027.734375"/>
     <use xlink:href="#DejaVuSans-Bold-72" x="1095.556641"/>
     <use xlink:href="#DejaVuSans-Bold-61" x="1144.873047"/>
     <use xlink:href="#DejaVuSans-Bold-74" x="1212.353516"/>
     <use xlink:href="#DejaVuSans-Bold-69" x="1260.15625"/>
     <use xlink:href="#DejaVuSans-Bold-6f" x="1294.433594"/>
     <use xlink:href="#DejaVuSans-Bold-6e" x="1363.134766"/>
     <use xlink:href="#DejaVuSans-Bold-73" x="1434.326172"/>
    </g>
   </g>
  </g>
 </g>
 <defs>
  <clipPath id="pc861f56143">
   <rect x="57.6" y="41.472" width="357.12" height="266.112"/>
  </clipPath>
 </defs>
</svg>
