<?xml version="1.0" encoding="utf-8" standalone="no"?>
<!DOCTYPE svg PUBLIC "-//W3C//DTD SVG 1.1//EN"
  "http://www.w3.org/Graphics/SVG/1.1/DTD/svg11.dtd">
<svg xmlns:xlink="http://www.w3.org/1999/xlink" width="460.8pt" height="345.6pt" viewBox="0 0 460.8 345.6" xmlns="http://www.w3.org/2000/svg" version="1.1">
 <metadata>
  <rdf:RDF xmlns:dc="http://purl.org/dc/elements/1.1/" xmlns:cc="http://creativecommons.org/ns#" xmlns:rdf="http://www.w3.org/1999/02/22-rdf-syntax-ns#">
   <cc:Work>
    <dc:type rdf:resource="http://purl.org/dc/dcmitype/StillImage"/>
    <dc:date>2023-05-03T17:48:53.379793</dc:date>
    <dc:format>image/svg+xml</dc:format>
    <dc:creator>
     <cc:Agent>
      <dc:title>Matplotlib v3.7.1, https://matplotlib.org/</dc:title>
     </cc:Agent>
    </dc:creator>
   </cc:Work>
  </rdf:RDF>
 </metadata>
 <defs>
  <style type="text/css">*{stroke-linejoin: round; stroke-linecap: butt}</style>
 </defs>
 <g id="figure_1">
  <g id="patch_1">
   <path d="M 0 345.6 
L 460.8 345.6 
L 460.8 0 
L 0 0 
z
" style="fill: #ffffff"/>
  </g>
  <g id="axes_1">
   <g id="patch_2">
    <path d="M 57.6 307.584 
L 414.72 307.584 
L 414.72 41.472 
L 57.6 41.472 
z
" style="fill: #ffffff"/>
   </g>
   <g id="PolyCollection_1">
    <path d="M 73.832727 219.153539 
L 73.832727 295.058675 
L 75.456 295.488 
L 77.079273 272.561146 
L 78.702545 256.980872 
L 80.325818 254.997988 
L 81.949091 226.494158 
L 83.572364 207.239232 
L 85.195636 202.032187 
L 86.818909 199.281421 
L 88.442182 195.011126 
L 90.065455 199.684367 
L 91.688727 182.328817 
L 93.312 169.843521 
L 94.935273 169.200688 
L 96.558545 169.130397 
L 98.181818 167.121383 
L 99.805091 164.737532 
L 101.428364 169.147212 
L 103.051636 164.872861 
L 104.674909 155.578637 
L 106.298182 155.650886 
L 107.921455 150.710785 
L 109.544727 153.058758 
L 111.168 147.491228 
L 112.791273 153.659344 
L 114.414545 153.42694 
L 116.037818 152.694917 
L 117.661091 151.123067 
L 119.284364 147.031962 
L 120.907636 144.261311 
L 122.530909 154.041203 
L 124.154182 154.682152 
L 125.777455 149.076799 
L 127.400727 156.623416 
L 129.024 162.001914 
L 130.647273 151.190672 
L 132.270545 155.349295 
L 133.893818 144.805298 
L 135.517091 157.38306 
L 137.140364 145.011479 
L 138.763636 150.74793 
L 140.386909 157.460989 
L 142.010182 146.892306 
L 143.633455 160.369205 
L 145.256727 161.260409 
L 146.88 170.632743 
L 148.503273 169.96915 
L 150.126545 162.193052 
L 151.749818 171.509858 
L 153.373091 163.312631 
L 154.996364 171.895441 
L 156.619636 177.042938 
L 158.242909 178.03299 
L 159.866182 175.133388 
L 161.489455 179.196752 
L 163.112727 188.623062 
L 164.736 188.748488 
L 166.359273 187.403506 
L 167.982545 182.028135 
L 169.605818 186.286452 
L 171.229091 176.768442 
L 172.852364 176.944722 
L 174.475636 183.562336 
L 176.098909 183.999577 
L 177.722182 186.343938 
L 179.345455 183.562336 
L 180.968727 181.788478 
L 182.592 182.809146 
L 184.215273 184.793984 
L 185.838545 187.030898 
L 187.461818 186.663282 
L 189.085091 184.321702 
L 190.708364 189.91644 
L 192.331636 188.697277 
L 193.954909 181.839547 
L 195.578182 188.706888 
L 197.201455 189.029883 
L 198.824727 187.130016 
L 200.448 187.132229 
L 202.071273 189.029883 
L 203.694545 184.461185 
L 205.317818 186.849166 
L 206.941091 186.849166 
L 208.564364 189.029883 
L 210.187636 189.029883 
L 211.810909 186.849166 
L 213.434182 186.849166 
L 215.057455 189.91644 
L 216.680727 188.706888 
L 218.304 188.706888 
L 219.927273 188.706888 
L 221.550545 189.596994 
L 223.173818 188.706888 
L 224.797091 185.873599 
L 226.420364 185.017174 
L 228.043636 189.596994 
L 229.666909 185.873599 
L 231.290182 188.706888 
L 232.913455 185.873599 
L 234.536727 189.459567 
L 236.16 185.017174 
L 237.783273 189.596994 
L 239.406545 188.706888 
L 241.029818 188.487224 
L 242.653091 189.91644 
L 244.276364 188.487224 
L 245.899636 189.596994 
L 247.522909 189.596994 
L 249.146182 185.017174 
L 250.769455 185.873599 
L 252.392727 185.017174 
L 254.016 189.596994 
L 255.639273 188.706888 
L 257.262545 189.596994 
L 258.885818 185.017174 
L 260.509091 189.459567 
L 262.132364 185.873599 
L 263.755636 189.596994 
L 265.378909 186.303852 
L 267.002182 185.017174 
L 268.625455 185.873599 
L 270.248727 189.91644 
L 271.872 185.873599 
L 273.495273 185.155333 
L 275.118545 185.017174 
L 276.741818 185.017174 
L 278.365091 186.378938 
L 279.988364 189.596994 
L 281.611636 185.017174 
L 283.234909 189.91644 
L 284.858182 185.017174 
L 286.481455 186.378938 
L 288.104727 189.91644 
L 289.728 190.551079 
L 291.351273 185.017174 
L 292.974545 185.873599 
L 294.597818 185.873599 
L 296.221091 185.017174 
L 297.844364 188.706888 
L 299.467636 189.596994 
L 301.090909 189.91644 
L 302.714182 189.596994 
L 304.337455 185.017174 
L 305.960727 189.321856 
L 307.584 189.459567 
L 309.207273 188.706888 
L 310.830545 185.017174 
L 312.453818 185.017174 
L 314.077091 185.017174 
L 315.700364 186.849166 
L 317.323636 189.459567 
L 318.946909 185.017174 
L 320.570182 189.596994 
L 322.193455 185.017174 
L 323.816727 185.873599 
L 325.44 185.017174 
L 327.063273 188.706888 
L 328.686545 185.017174 
L 330.309818 189.91644 
L 331.933091 185.017174 
L 333.556364 185.017174 
L 335.179636 189.596994 
L 336.802909 185.017174 
L 338.426182 185.017174 
L 340.049455 185.155333 
L 341.672727 189.91644 
L 343.296 185.017174 
L 344.919273 185.017174 
L 346.542545 189.596994 
L 348.165818 185.155333 
L 349.789091 185.017174 
L 351.412364 189.596994 
L 353.035636 185.017174 
L 354.658909 185.017174 
L 356.282182 185.128482 
L 357.905455 189.596994 
L 359.528727 185.017174 
L 361.152 185.017174 
L 362.775273 185.017174 
L 364.398545 185.810163 
L 366.021818 185.873599 
L 367.645091 185.017174 
L 369.268364 189.029883 
L 370.891636 189.596994 
L 372.514909 185.017174 
L 374.138182 185.017174 
L 375.761455 185.873599 
L 377.384727 185.873599 
L 379.008 189.596994 
L 380.631273 189.596994 
L 382.254545 189.596994 
L 383.877818 186.378938 
L 385.501091 189.596994 
L 387.124364 185.873599 
L 388.747636 185.017174 
L 390.370909 186.849166 
L 391.994182 188.706888 
L 393.617455 185.873599 
L 395.240727 184.461185 
L 396.864 185.873599 
L 398.487273 53.568 
L 398.487273 53.568 
L 398.487273 53.568 
L 396.864 184.723219 
L 395.240727 150.520051 
L 393.617455 184.723219 
L 391.994182 163.800904 
L 390.370909 156.895348 
L 388.747636 185.017174 
L 387.124364 184.723219 
L 385.501091 171.674077 
L 383.877818 184.780351 
L 382.254545 171.674077 
L 380.631273 171.674077 
L 379.008 171.674077 
L 377.384727 184.723219 
L 375.761455 184.723219 
L 374.138182 185.017174 
L 372.514909 185.017174 
L 370.891636 171.674077 
L 369.268364 164.040379 
L 367.645091 185.017174 
L 366.021818 184.723219 
L 364.398545 184.522295 
L 362.775273 185.017174 
L 361.152 185.017174 
L 359.528727 185.017174 
L 357.905455 171.674077 
L 356.282182 184.377146 
L 354.658909 185.017174 
L 353.035636 185.017174 
L 351.412364 171.674077 
L 349.789091 185.017174 
L 348.165818 184.614655 
L 346.542545 171.674077 
L 344.919273 185.017174 
L 343.296 185.017174 
L 341.672727 171.9171 
L 340.049455 184.614655 
L 338.426182 185.017174 
L 336.802909 185.017174 
L 335.179636 171.674077 
L 333.556364 185.017174 
L 331.933091 185.017174 
L 330.309818 171.9171 
L 328.686545 185.017174 
L 327.063273 163.800904 
L 325.44 185.017174 
L 323.816727 184.723219 
L 322.193455 185.017174 
L 320.570182 171.674077 
L 318.946909 185.017174 
L 317.323636 171.547143 
L 315.700364 156.895348 
L 314.077091 185.017174 
L 312.453818 185.017174 
L 310.830545 185.017174 
L 309.207273 163.800904 
L 307.584 171.547143 
L 305.960727 171.420493 
L 304.337455 185.017174 
L 302.714182 171.674077 
L 301.090909 171.9171 
L 299.467636 171.674077 
L 297.844364 163.800904 
L 296.221091 185.017174 
L 294.597818 184.723219 
L 292.974545 184.723219 
L 291.351273 185.017174 
L 289.728 172.4074 
L 288.104727 171.9171 
L 286.481455 184.780351 
L 284.858182 185.017174 
L 283.234909 171.9171 
L 281.611636 185.017174 
L 279.988364 171.674077 
L 278.365091 184.780351 
L 276.741818 185.017174 
L 275.118545 185.017174 
L 273.495273 184.614655 
L 271.872 184.723219 
L 270.248727 171.9171 
L 268.625455 184.723219 
L 267.002182 185.017174 
L 265.378909 184.591075 
L 263.755636 171.674077 
L 262.132364 184.723219 
L 260.509091 171.547143 
L 258.885818 185.017174 
L 257.262545 171.674077 
L 255.639273 163.800904 
L 254.016 171.674077 
L 252.392727 185.017174 
L 250.769455 184.723219 
L 249.146182 185.017174 
L 247.522909 171.674077 
L 245.899636 171.674077 
L 244.276364 165.224254 
L 242.653091 171.9171 
L 241.029818 165.224254 
L 239.406545 163.800904 
L 237.783273 171.674077 
L 236.16 185.017174 
L 234.536727 171.547143 
L 232.913455 184.723219 
L 231.290182 163.800904 
L 229.666909 184.723219 
L 228.043636 171.674077 
L 226.420364 185.017174 
L 224.797091 184.723219 
L 223.173818 163.800904 
L 221.550545 171.674077 
L 219.927273 163.800904 
L 218.304 163.800904 
L 216.680727 163.800904 
L 215.057455 171.9171 
L 213.434182 156.895348 
L 211.810909 156.895348 
L 210.187636 164.040379 
L 208.564364 164.040379 
L 206.941091 156.895348 
L 205.317818 156.895348 
L 203.694545 150.520051 
L 202.071273 164.040379 
L 200.448 158.198449 
L 198.824727 158.380653 
L 197.201455 164.040379 
L 195.578182 163.800904 
L 193.954909 145.582096 
L 192.331636 165.132319 
L 190.708364 171.9171 
L 189.085091 151.452616 
L 187.461818 156.67063 
L 185.838545 157.011725 
L 184.215273 150.749722 
L 182.592 145.197465 
L 180.968727 145.205688 
L 179.345455 145.67046 
L 177.722182 152.855821 
L 176.098909 146.819382 
L 174.475636 145.67046 
L 172.852364 135.582723 
L 171.229091 134.735307 
L 169.605818 151.709622 
L 167.982545 142.547411 
L 166.359273 152.459966 
L 164.736 153.162375 
L 163.112727 154.080883 
L 161.489455 137.408598 
L 159.866182 131.190015 
L 158.242909 135.416905 
L 156.619636 132.120938 
L 154.996364 125.254081 
L 153.373091 115.281015 
L 151.749818 124.267238 
L 150.126545 114.735684 
L 148.503273 124.266779 
L 146.88 125.245598 
L 145.256727 111.877281 
L 143.633455 111.452305 
L 142.010182 98.515626 
L 140.386909 107.560262 
L 138.763636 100.976537 
L 137.140364 96.622281 
L 135.517091 106.496378 
L 133.893818 97.194067 
L 132.270545 106.859608 
L 130.647273 102.941165 
L 129.024 114.482471 
L 127.400727 109.055925 
L 125.777455 101.995203 
L 124.154182 107.329886 
L 122.530909 108.060831 
L 120.907636 98.491764 
L 119.284364 100.884585 
L 117.661091 105.916739 
L 116.037818 106.977248 
L 114.414545 108.405108 
L 112.791273 108.903915 
L 111.168 106.365 
L 109.544727 109.555123 
L 107.921455 108.140173 
L 106.298182 112.598942 
L 104.674909 113.014297 
L 103.051636 118.794262 
L 101.428364 123.480054 
L 99.805091 124.756777 
L 98.181818 127.063924 
L 96.558545 128.705338 
L 94.935273 126.413291 
L 93.312 126.788529 
L 91.688727 137.336368 
L 90.065455 153.00904 
L 88.442182 150.015819 
L 86.818909 153.552604 
L 85.195636 156.904634 
L 83.572364 159.212184 
L 81.949091 173.171096 
L 80.325818 195.570776 
L 78.702545 198.863858 
L 77.079273 207.396661 
L 75.456 215.096284 
L 73.832727 219.153539 
z
" clip-path="url(#p831504de36)" style="fill: #1f77b4; fill-opacity: 0.2"/>
   </g>
   <g id="matplotlib.axis_1">
    <g id="xtick_1">
     <g id="line2d_1">
      <defs>
       <path id="mb3e032777a" d="M 0 0 
L 0 3.5 
" style="stroke: #000000; stroke-width: 0.8"/>
      </defs>
      <g>
       <use xlink:href="#mb3e032777a" x="73.832727" y="307.584" style="stroke: #000000; stroke-width: 0.8"/>
      </g>
     </g>
     <g id="text_1">
      <!-- 0 -->
      <g transform="translate(70.651477 322.182437) scale(0.1 -0.1)">
       <defs>
        <path id="DejaVuSans-30" d="M 2034 4250 
Q 1547 4250 1301 3770 
Q 1056 3291 1056 2328 
Q 1056 1369 1301 889 
Q 1547 409 2034 409 
Q 2525 409 2770 889 
Q 3016 1369 3016 2328 
Q 3016 3291 2770 3770 
Q 2525 4250 2034 4250 
z
M 2034 4750 
Q 2819 4750 3233 4129 
Q 3647 3509 3647 2328 
Q 3647 1150 3233 529 
Q 2819 -91 2034 -91 
Q 1250 -91 836 529 
Q 422 1150 422 2328 
Q 422 3509 836 4129 
Q 1250 4750 2034 4750 
z
" transform="scale(0.015625)"/>
       </defs>
       <use xlink:href="#DejaVuSans-30"/>
      </g>
     </g>
    </g>
    <g id="xtick_2">
     <g id="line2d_2">
      <g>
       <use xlink:href="#mb3e032777a" x="81.949091" y="307.584" style="stroke: #000000; stroke-width: 0.8"/>
      </g>
     </g>
     <g id="text_2">
      <!-- 5 -->
      <g transform="translate(78.767841 322.182437) scale(0.1 -0.1)">
       <defs>
        <path id="DejaVuSans-35" d="M 691 4666 
L 3169 4666 
L 3169 4134 
L 1269 4134 
L 1269 2991 
Q 1406 3038 1543 3061 
Q 1681 3084 1819 3084 
Q 2600 3084 3056 2656 
Q 3513 2228 3513 1497 
Q 3513 744 3044 326 
Q 2575 -91 1722 -91 
Q 1428 -91 1123 -41 
Q 819 9 494 109 
L 494 744 
Q 775 591 1075 516 
Q 1375 441 1709 441 
Q 2250 441 2565 725 
Q 2881 1009 2881 1497 
Q 2881 1984 2565 2268 
Q 2250 2553 1709 2553 
Q 1456 2553 1204 2497 
Q 953 2441 691 2322 
L 691 4666 
z
" transform="scale(0.015625)"/>
       </defs>
       <use xlink:href="#DejaVuSans-35"/>
      </g>
     </g>
    </g>
    <g id="xtick_3">
     <g id="line2d_3">
      <g>
       <use xlink:href="#mb3e032777a" x="90.065455" y="307.584" style="stroke: #000000; stroke-width: 0.8"/>
      </g>
     </g>
     <g id="text_3">
      <!-- 10 -->
      <g transform="translate(83.702955 322.182437) scale(0.1 -0.1)">
       <defs>
        <path id="DejaVuSans-31" d="M 794 531 
L 1825 531 
L 1825 4091 
L 703 3866 
L 703 4441 
L 1819 4666 
L 2450 4666 
L 2450 531 
L 3481 531 
L 3481 0 
L 794 0 
L 794 531 
z
" transform="scale(0.015625)"/>
       </defs>
       <use xlink:href="#DejaVuSans-31"/>
       <use xlink:href="#DejaVuSans-30" x="63.623047"/>
      </g>
     </g>
    </g>
    <g id="xtick_4">
     <g id="line2d_4">
      <g>
       <use xlink:href="#mb3e032777a" x="98.181818" y="307.584" style="stroke: #000000; stroke-width: 0.8"/>
      </g>
     </g>
     <g id="text_4">
      <!-- 15 -->
      <g transform="translate(91.819318 322.182437) scale(0.1 -0.1)">
       <use xlink:href="#DejaVuSans-31"/>
       <use xlink:href="#DejaVuSans-35" x="63.623047"/>
      </g>
     </g>
    </g>
    <g id="xtick_5">
     <g id="line2d_5">
      <g>
       <use xlink:href="#mb3e032777a" x="106.298182" y="307.584" style="stroke: #000000; stroke-width: 0.8"/>
      </g>
     </g>
     <g id="text_5">
      <!-- 20 -->
      <g transform="translate(99.935682 322.182437) scale(0.1 -0.1)">
       <defs>
        <path id="DejaVuSans-32" d="M 1228 531 
L 3431 531 
L 3431 0 
L 469 0 
L 469 531 
Q 828 903 1448 1529 
Q 2069 2156 2228 2338 
Q 2531 2678 2651 2914 
Q 2772 3150 2772 3378 
Q 2772 3750 2511 3984 
Q 2250 4219 1831 4219 
Q 1534 4219 1204 4116 
Q 875 4013 500 3803 
L 500 4441 
Q 881 4594 1212 4672 
Q 1544 4750 1819 4750 
Q 2544 4750 2975 4387 
Q 3406 4025 3406 3419 
Q 3406 3131 3298 2873 
Q 3191 2616 2906 2266 
Q 2828 2175 2409 1742 
Q 1991 1309 1228 531 
z
" transform="scale(0.015625)"/>
       </defs>
       <use xlink:href="#DejaVuSans-32"/>
       <use xlink:href="#DejaVuSans-30" x="63.623047"/>
      </g>
     </g>
    </g>
    <g id="xtick_6">
     <g id="line2d_6">
      <g>
       <use xlink:href="#mb3e032777a" x="114.414545" y="307.584" style="stroke: #000000; stroke-width: 0.8"/>
      </g>
     </g>
     <g id="text_6">
      <!-- 25 -->
      <g transform="translate(108.052045 322.182437) scale(0.1 -0.1)">
       <use xlink:href="#DejaVuSans-32"/>
       <use xlink:href="#DejaVuSans-35" x="63.623047"/>
      </g>
     </g>
    </g>
    <g id="xtick_7">
     <g id="line2d_7">
      <g>
       <use xlink:href="#mb3e032777a" x="122.530909" y="307.584" style="stroke: #000000; stroke-width: 0.8"/>
      </g>
     </g>
     <g id="text_7">
      <!-- 30 -->
      <g transform="translate(116.168409 322.182437) scale(0.1 -0.1)">
       <defs>
        <path id="DejaVuSans-33" d="M 2597 2516 
Q 3050 2419 3304 2112 
Q 3559 1806 3559 1356 
Q 3559 666 3084 287 
Q 2609 -91 1734 -91 
Q 1441 -91 1130 -33 
Q 819 25 488 141 
L 488 750 
Q 750 597 1062 519 
Q 1375 441 1716 441 
Q 2309 441 2620 675 
Q 2931 909 2931 1356 
Q 2931 1769 2642 2001 
Q 2353 2234 1838 2234 
L 1294 2234 
L 1294 2753 
L 1863 2753 
Q 2328 2753 2575 2939 
Q 2822 3125 2822 3475 
Q 2822 3834 2567 4026 
Q 2313 4219 1838 4219 
Q 1578 4219 1281 4162 
Q 984 4106 628 3988 
L 628 4550 
Q 988 4650 1302 4700 
Q 1616 4750 1894 4750 
Q 2613 4750 3031 4423 
Q 3450 4097 3450 3541 
Q 3450 3153 3228 2886 
Q 3006 2619 2597 2516 
z
" transform="scale(0.015625)"/>
       </defs>
       <use xlink:href="#DejaVuSans-33"/>
       <use xlink:href="#DejaVuSans-30" x="63.623047"/>
      </g>
     </g>
    </g>
    <g id="xtick_8">
     <g id="line2d_8">
      <g>
       <use xlink:href="#mb3e032777a" x="130.647273" y="307.584" style="stroke: #000000; stroke-width: 0.8"/>
      </g>
     </g>
     <g id="text_8">
      <!-- 35 -->
      <g transform="translate(124.284773 322.182437) scale(0.1 -0.1)">
       <use xlink:href="#DejaVuSans-33"/>
       <use xlink:href="#DejaVuSans-35" x="63.623047"/>
      </g>
     </g>
    </g>
    <g id="xtick_9">
     <g id="line2d_9">
      <g>
       <use xlink:href="#mb3e032777a" x="138.763636" y="307.584" style="stroke: #000000; stroke-width: 0.8"/>
      </g>
     </g>
     <g id="text_9">
      <!-- 40 -->
      <g transform="translate(132.401136 322.182437) scale(0.1 -0.1)">
       <defs>
        <path id="DejaVuSans-34" d="M 2419 4116 
L 825 1625 
L 2419 1625 
L 2419 4116 
z
M 2253 4666 
L 3047 4666 
L 3047 1625 
L 3713 1625 
L 3713 1100 
L 3047 1100 
L 3047 0 
L 2419 0 
L 2419 1100 
L 313 1100 
L 313 1709 
L 2253 4666 
z
" transform="scale(0.015625)"/>
       </defs>
       <use xlink:href="#DejaVuSans-34"/>
       <use xlink:href="#DejaVuSans-30" x="63.623047"/>
      </g>
     </g>
    </g>
    <g id="xtick_10">
     <g id="line2d_10">
      <g>
       <use xlink:href="#mb3e032777a" x="146.88" y="307.584" style="stroke: #000000; stroke-width: 0.8"/>
      </g>
     </g>
     <g id="text_10">
      <!-- 45 -->
      <g transform="translate(140.5175 322.182437) scale(0.1 -0.1)">
       <use xlink:href="#DejaVuSans-34"/>
       <use xlink:href="#DejaVuSans-35" x="63.623047"/>
      </g>
     </g>
    </g>
    <g id="xtick_11">
     <g id="line2d_11">
      <g>
       <use xlink:href="#mb3e032777a" x="154.996364" y="307.584" style="stroke: #000000; stroke-width: 0.8"/>
      </g>
     </g>
     <g id="text_11">
      <!-- 50 -->
      <g transform="translate(148.633864 322.182437) scale(0.1 -0.1)">
       <use xlink:href="#DejaVuSans-35"/>
       <use xlink:href="#DejaVuSans-30" x="63.623047"/>
      </g>
     </g>
    </g>
    <g id="xtick_12">
     <g id="line2d_12">
      <g>
       <use xlink:href="#mb3e032777a" x="163.112727" y="307.584" style="stroke: #000000; stroke-width: 0.8"/>
      </g>
     </g>
     <g id="text_12">
      <!-- 55 -->
      <g transform="translate(156.750227 322.182437) scale(0.1 -0.1)">
       <use xlink:href="#DejaVuSans-35"/>
       <use xlink:href="#DejaVuSans-35" x="63.623047"/>
      </g>
     </g>
    </g>
    <g id="xtick_13">
     <g id="line2d_13">
      <g>
       <use xlink:href="#mb3e032777a" x="171.229091" y="307.584" style="stroke: #000000; stroke-width: 0.8"/>
      </g>
     </g>
     <g id="text_13">
      <!-- 60 -->
      <g transform="translate(164.866591 322.182437) scale(0.1 -0.1)">
       <defs>
        <path id="DejaVuSans-36" d="M 2113 2584 
Q 1688 2584 1439 2293 
Q 1191 2003 1191 1497 
Q 1191 994 1439 701 
Q 1688 409 2113 409 
Q 2538 409 2786 701 
Q 3034 994 3034 1497 
Q 3034 2003 2786 2293 
Q 2538 2584 2113 2584 
z
M 3366 4563 
L 3366 3988 
Q 3128 4100 2886 4159 
Q 2644 4219 2406 4219 
Q 1781 4219 1451 3797 
Q 1122 3375 1075 2522 
Q 1259 2794 1537 2939 
Q 1816 3084 2150 3084 
Q 2853 3084 3261 2657 
Q 3669 2231 3669 1497 
Q 3669 778 3244 343 
Q 2819 -91 2113 -91 
Q 1303 -91 875 529 
Q 447 1150 447 2328 
Q 447 3434 972 4092 
Q 1497 4750 2381 4750 
Q 2619 4750 2861 4703 
Q 3103 4656 3366 4563 
z
" transform="scale(0.015625)"/>
       </defs>
       <use xlink:href="#DejaVuSans-36"/>
       <use xlink:href="#DejaVuSans-30" x="63.623047"/>
      </g>
     </g>
    </g>
    <g id="xtick_14">
     <g id="line2d_14">
      <g>
       <use xlink:href="#mb3e032777a" x="179.345455" y="307.584" style="stroke: #000000; stroke-width: 0.8"/>
      </g>
     </g>
     <g id="text_14">
      <!-- 65 -->
      <g transform="translate(172.982955 322.182437) scale(0.1 -0.1)">
       <use xlink:href="#DejaVuSans-36"/>
       <use xlink:href="#DejaVuSans-35" x="63.623047"/>
      </g>
     </g>
    </g>
    <g id="xtick_15">
     <g id="line2d_15">
      <g>
       <use xlink:href="#mb3e032777a" x="187.461818" y="307.584" style="stroke: #000000; stroke-width: 0.8"/>
      </g>
     </g>
     <g id="text_15">
      <!-- 70 -->
      <g transform="translate(181.099318 322.182437) scale(0.1 -0.1)">
       <defs>
        <path id="DejaVuSans-37" d="M 525 4666 
L 3525 4666 
L 3525 4397 
L 1831 0 
L 1172 0 
L 2766 4134 
L 525 4134 
L 525 4666 
z
" transform="scale(0.015625)"/>
       </defs>
       <use xlink:href="#DejaVuSans-37"/>
       <use xlink:href="#DejaVuSans-30" x="63.623047"/>
      </g>
     </g>
    </g>
    <g id="xtick_16">
     <g id="line2d_16">
      <g>
       <use xlink:href="#mb3e032777a" x="195.578182" y="307.584" style="stroke: #000000; stroke-width: 0.8"/>
      </g>
     </g>
     <g id="text_16">
      <!-- 75 -->
      <g transform="translate(189.215682 322.182437) scale(0.1 -0.1)">
       <use xlink:href="#DejaVuSans-37"/>
       <use xlink:href="#DejaVuSans-35" x="63.623047"/>
      </g>
     </g>
    </g>
    <g id="xtick_17">
     <g id="line2d_17">
      <g>
       <use xlink:href="#mb3e032777a" x="203.694545" y="307.584" style="stroke: #000000; stroke-width: 0.8"/>
      </g>
     </g>
     <g id="text_17">
      <!-- 80 -->
      <g transform="translate(197.332045 322.182437) scale(0.1 -0.1)">
       <defs>
        <path id="DejaVuSans-38" d="M 2034 2216 
Q 1584 2216 1326 1975 
Q 1069 1734 1069 1313 
Q 1069 891 1326 650 
Q 1584 409 2034 409 
Q 2484 409 2743 651 
Q 3003 894 3003 1313 
Q 3003 1734 2745 1975 
Q 2488 2216 2034 2216 
z
M 1403 2484 
Q 997 2584 770 2862 
Q 544 3141 544 3541 
Q 544 4100 942 4425 
Q 1341 4750 2034 4750 
Q 2731 4750 3128 4425 
Q 3525 4100 3525 3541 
Q 3525 3141 3298 2862 
Q 3072 2584 2669 2484 
Q 3125 2378 3379 2068 
Q 3634 1759 3634 1313 
Q 3634 634 3220 271 
Q 2806 -91 2034 -91 
Q 1263 -91 848 271 
Q 434 634 434 1313 
Q 434 1759 690 2068 
Q 947 2378 1403 2484 
z
M 1172 3481 
Q 1172 3119 1398 2916 
Q 1625 2713 2034 2713 
Q 2441 2713 2670 2916 
Q 2900 3119 2900 3481 
Q 2900 3844 2670 4047 
Q 2441 4250 2034 4250 
Q 1625 4250 1398 4047 
Q 1172 3844 1172 3481 
z
" transform="scale(0.015625)"/>
       </defs>
       <use xlink:href="#DejaVuSans-38"/>
       <use xlink:href="#DejaVuSans-30" x="63.623047"/>
      </g>
     </g>
    </g>
    <g id="xtick_18">
     <g id="line2d_18">
      <g>
       <use xlink:href="#mb3e032777a" x="211.810909" y="307.584" style="stroke: #000000; stroke-width: 0.8"/>
      </g>
     </g>
     <g id="text_18">
      <!-- 85 -->
      <g transform="translate(205.448409 322.182437) scale(0.1 -0.1)">
       <use xlink:href="#DejaVuSans-38"/>
       <use xlink:href="#DejaVuSans-35" x="63.623047"/>
      </g>
     </g>
    </g>
    <g id="xtick_19">
     <g id="line2d_19">
      <g>
       <use xlink:href="#mb3e032777a" x="219.927273" y="307.584" style="stroke: #000000; stroke-width: 0.8"/>
      </g>
     </g>
     <g id="text_19">
      <!-- 90 -->
      <g transform="translate(213.564773 322.182437) scale(0.1 -0.1)">
       <defs>
        <path id="DejaVuSans-39" d="M 703 97 
L 703 672 
Q 941 559 1184 500 
Q 1428 441 1663 441 
Q 2288 441 2617 861 
Q 2947 1281 2994 2138 
Q 2813 1869 2534 1725 
Q 2256 1581 1919 1581 
Q 1219 1581 811 2004 
Q 403 2428 403 3163 
Q 403 3881 828 4315 
Q 1253 4750 1959 4750 
Q 2769 4750 3195 4129 
Q 3622 3509 3622 2328 
Q 3622 1225 3098 567 
Q 2575 -91 1691 -91 
Q 1453 -91 1209 -44 
Q 966 3 703 97 
z
M 1959 2075 
Q 2384 2075 2632 2365 
Q 2881 2656 2881 3163 
Q 2881 3666 2632 3958 
Q 2384 4250 1959 4250 
Q 1534 4250 1286 3958 
Q 1038 3666 1038 3163 
Q 1038 2656 1286 2365 
Q 1534 2075 1959 2075 
z
" transform="scale(0.015625)"/>
       </defs>
       <use xlink:href="#DejaVuSans-39"/>
       <use xlink:href="#DejaVuSans-30" x="63.623047"/>
      </g>
     </g>
    </g>
    <g id="xtick_20">
     <g id="line2d_20">
      <g>
       <use xlink:href="#mb3e032777a" x="228.043636" y="307.584" style="stroke: #000000; stroke-width: 0.8"/>
      </g>
     </g>
     <g id="text_20">
      <!-- 95 -->
      <g transform="translate(221.681136 322.182437) scale(0.1 -0.1)">
       <use xlink:href="#DejaVuSans-39"/>
       <use xlink:href="#DejaVuSans-35" x="63.623047"/>
      </g>
     </g>
    </g>
    <g id="xtick_21">
     <g id="line2d_21">
      <g>
       <use xlink:href="#mb3e032777a" x="236.16" y="307.584" style="stroke: #000000; stroke-width: 0.8"/>
      </g>
     </g>
     <g id="text_21">
      <!-- 100 -->
      <g transform="translate(226.61625 322.182437) scale(0.1 -0.1)">
       <use xlink:href="#DejaVuSans-31"/>
       <use xlink:href="#DejaVuSans-30" x="63.623047"/>
       <use xlink:href="#DejaVuSans-30" x="127.246094"/>
      </g>
     </g>
    </g>
    <g id="xtick_22">
     <g id="line2d_22">
      <g>
       <use xlink:href="#mb3e032777a" x="244.276364" y="307.584" style="stroke: #000000; stroke-width: 0.8"/>
      </g>
     </g>
     <g id="text_22">
      <!-- 105 -->
      <g transform="translate(234.732614 322.182437) scale(0.1 -0.1)">
       <use xlink:href="#DejaVuSans-31"/>
       <use xlink:href="#DejaVuSans-30" x="63.623047"/>
       <use xlink:href="#DejaVuSans-35" x="127.246094"/>
      </g>
     </g>
    </g>
    <g id="xtick_23">
     <g id="line2d_23">
      <g>
       <use xlink:href="#mb3e032777a" x="252.392727" y="307.584" style="stroke: #000000; stroke-width: 0.8"/>
      </g>
     </g>
     <g id="text_23">
      <!-- 110 -->
      <g transform="translate(242.848977 322.182437) scale(0.1 -0.1)">
       <use xlink:href="#DejaVuSans-31"/>
       <use xlink:href="#DejaVuSans-31" x="63.623047"/>
       <use xlink:href="#DejaVuSans-30" x="127.246094"/>
      </g>
     </g>
    </g>
    <g id="xtick_24">
     <g id="line2d_24">
      <g>
       <use xlink:href="#mb3e032777a" x="260.509091" y="307.584" style="stroke: #000000; stroke-width: 0.8"/>
      </g>
     </g>
     <g id="text_24">
      <!-- 115 -->
      <g transform="translate(250.965341 322.182437) scale(0.1 -0.1)">
       <use xlink:href="#DejaVuSans-31"/>
       <use xlink:href="#DejaVuSans-31" x="63.623047"/>
       <use xlink:href="#DejaVuSans-35" x="127.246094"/>
      </g>
     </g>
    </g>
    <g id="xtick_25">
     <g id="line2d_25">
      <g>
       <use xlink:href="#mb3e032777a" x="268.625455" y="307.584" style="stroke: #000000; stroke-width: 0.8"/>
      </g>
     </g>
     <g id="text_25">
      <!-- 120 -->
      <g transform="translate(259.081705 322.182437) scale(0.1 -0.1)">
       <use xlink:href="#DejaVuSans-31"/>
       <use xlink:href="#DejaVuSans-32" x="63.623047"/>
       <use xlink:href="#DejaVuSans-30" x="127.246094"/>
      </g>
     </g>
    </g>
    <g id="xtick_26">
     <g id="line2d_26">
      <g>
       <use xlink:href="#mb3e032777a" x="276.741818" y="307.584" style="stroke: #000000; stroke-width: 0.8"/>
      </g>
     </g>
     <g id="text_26">
      <!-- 125 -->
      <g transform="translate(267.198068 322.182437) scale(0.1 -0.1)">
       <use xlink:href="#DejaVuSans-31"/>
       <use xlink:href="#DejaVuSans-32" x="63.623047"/>
       <use xlink:href="#DejaVuSans-35" x="127.246094"/>
      </g>
     </g>
    </g>
    <g id="xtick_27">
     <g id="line2d_27">
      <g>
       <use xlink:href="#mb3e032777a" x="284.858182" y="307.584" style="stroke: #000000; stroke-width: 0.8"/>
      </g>
     </g>
     <g id="text_27">
      <!-- 130 -->
      <g transform="translate(275.314432 322.182437) scale(0.1 -0.1)">
       <use xlink:href="#DejaVuSans-31"/>
       <use xlink:href="#DejaVuSans-33" x="63.623047"/>
       <use xlink:href="#DejaVuSans-30" x="127.246094"/>
      </g>
     </g>
    </g>
    <g id="xtick_28">
     <g id="line2d_28">
      <g>
       <use xlink:href="#mb3e032777a" x="292.974545" y="307.584" style="stroke: #000000; stroke-width: 0.8"/>
      </g>
     </g>
     <g id="text_28">
      <!-- 135 -->
      <g transform="translate(283.430795 322.182437) scale(0.1 -0.1)">
       <use xlink:href="#DejaVuSans-31"/>
       <use xlink:href="#DejaVuSans-33" x="63.623047"/>
       <use xlink:href="#DejaVuSans-35" x="127.246094"/>
      </g>
     </g>
    </g>
    <g id="xtick_29">
     <g id="line2d_29">
      <g>
       <use xlink:href="#mb3e032777a" x="301.090909" y="307.584" style="stroke: #000000; stroke-width: 0.8"/>
      </g>
     </g>
     <g id="text_29">
      <!-- 140 -->
      <g transform="translate(291.547159 322.182437) scale(0.1 -0.1)">
       <use xlink:href="#DejaVuSans-31"/>
       <use xlink:href="#DejaVuSans-34" x="63.623047"/>
       <use xlink:href="#DejaVuSans-30" x="127.246094"/>
      </g>
     </g>
    </g>
    <g id="xtick_30">
     <g id="line2d_30">
      <g>
       <use xlink:href="#mb3e032777a" x="309.207273" y="307.584" style="stroke: #000000; stroke-width: 0.8"/>
      </g>
     </g>
     <g id="text_30">
      <!-- 145 -->
      <g transform="translate(299.663523 322.182437) scale(0.1 -0.1)">
       <use xlink:href="#DejaVuSans-31"/>
       <use xlink:href="#DejaVuSans-34" x="63.623047"/>
       <use xlink:href="#DejaVuSans-35" x="127.246094"/>
      </g>
     </g>
    </g>
    <g id="xtick_31">
     <g id="line2d_31">
      <g>
       <use xlink:href="#mb3e032777a" x="317.323636" y="307.584" style="stroke: #000000; stroke-width: 0.8"/>
      </g>
     </g>
     <g id="text_31">
      <!-- 150 -->
      <g transform="translate(307.779886 322.182437) scale(0.1 -0.1)">
       <use xlink:href="#DejaVuSans-31"/>
       <use xlink:href="#DejaVuSans-35" x="63.623047"/>
       <use xlink:href="#DejaVuSans-30" x="127.246094"/>
      </g>
     </g>
    </g>
    <g id="xtick_32">
     <g id="line2d_32">
      <g>
       <use xlink:href="#mb3e032777a" x="325.44" y="307.584" style="stroke: #000000; stroke-width: 0.8"/>
      </g>
     </g>
     <g id="text_32">
      <!-- 155 -->
      <g transform="translate(315.89625 322.182437) scale(0.1 -0.1)">
       <use xlink:href="#DejaVuSans-31"/>
       <use xlink:href="#DejaVuSans-35" x="63.623047"/>
       <use xlink:href="#DejaVuSans-35" x="127.246094"/>
      </g>
     </g>
    </g>
    <g id="xtick_33">
     <g id="line2d_33">
      <g>
       <use xlink:href="#mb3e032777a" x="333.556364" y="307.584" style="stroke: #000000; stroke-width: 0.8"/>
      </g>
     </g>
     <g id="text_33">
      <!-- 160 -->
      <g transform="translate(324.012614 322.182437) scale(0.1 -0.1)">
       <use xlink:href="#DejaVuSans-31"/>
       <use xlink:href="#DejaVuSans-36" x="63.623047"/>
       <use xlink:href="#DejaVuSans-30" x="127.246094"/>
      </g>
     </g>
    </g>
    <g id="xtick_34">
     <g id="line2d_34">
      <g>
       <use xlink:href="#mb3e032777a" x="341.672727" y="307.584" style="stroke: #000000; stroke-width: 0.8"/>
      </g>
     </g>
     <g id="text_34">
      <!-- 165 -->
      <g transform="translate(332.128977 322.182437) scale(0.1 -0.1)">
       <use xlink:href="#DejaVuSans-31"/>
       <use xlink:href="#DejaVuSans-36" x="63.623047"/>
       <use xlink:href="#DejaVuSans-35" x="127.246094"/>
      </g>
     </g>
    </g>
    <g id="xtick_35">
     <g id="line2d_35">
      <g>
       <use xlink:href="#mb3e032777a" x="349.789091" y="307.584" style="stroke: #000000; stroke-width: 0.8"/>
      </g>
     </g>
     <g id="text_35">
      <!-- 170 -->
      <g transform="translate(340.245341 322.182437) scale(0.1 -0.1)">
       <use xlink:href="#DejaVuSans-31"/>
       <use xlink:href="#DejaVuSans-37" x="63.623047"/>
       <use xlink:href="#DejaVuSans-30" x="127.246094"/>
      </g>
     </g>
    </g>
    <g id="xtick_36">
     <g id="line2d_36">
      <g>
       <use xlink:href="#mb3e032777a" x="357.905455" y="307.584" style="stroke: #000000; stroke-width: 0.8"/>
      </g>
     </g>
     <g id="text_36">
      <!-- 175 -->
      <g transform="translate(348.361705 322.182437) scale(0.1 -0.1)">
       <use xlink:href="#DejaVuSans-31"/>
       <use xlink:href="#DejaVuSans-37" x="63.623047"/>
       <use xlink:href="#DejaVuSans-35" x="127.246094"/>
      </g>
     </g>
    </g>
    <g id="xtick_37">
     <g id="line2d_37">
      <g>
       <use xlink:href="#mb3e032777a" x="366.021818" y="307.584" style="stroke: #000000; stroke-width: 0.8"/>
      </g>
     </g>
     <g id="text_37">
      <!-- 180 -->
      <g transform="translate(356.478068 322.182437) scale(0.1 -0.1)">
       <use xlink:href="#DejaVuSans-31"/>
       <use xlink:href="#DejaVuSans-38" x="63.623047"/>
       <use xlink:href="#DejaVuSans-30" x="127.246094"/>
      </g>
     </g>
    </g>
    <g id="xtick_38">
     <g id="line2d_38">
      <g>
       <use xlink:href="#mb3e032777a" x="374.138182" y="307.584" style="stroke: #000000; stroke-width: 0.8"/>
      </g>
     </g>
     <g id="text_38">
      <!-- 185 -->
      <g transform="translate(364.594432 322.182437) scale(0.1 -0.1)">
       <use xlink:href="#DejaVuSans-31"/>
       <use xlink:href="#DejaVuSans-38" x="63.623047"/>
       <use xlink:href="#DejaVuSans-35" x="127.246094"/>
      </g>
     </g>
    </g>
    <g id="xtick_39">
     <g id="line2d_39">
      <g>
       <use xlink:href="#mb3e032777a" x="382.254545" y="307.584" style="stroke: #000000; stroke-width: 0.8"/>
      </g>
     </g>
     <g id="text_39">
      <!-- 190 -->
      <g transform="translate(372.710795 322.182437) scale(0.1 -0.1)">
       <use xlink:href="#DejaVuSans-31"/>
       <use xlink:href="#DejaVuSans-39" x="63.623047"/>
       <use xlink:href="#DejaVuSans-30" x="127.246094"/>
      </g>
     </g>
    </g>
    <g id="xtick_40">
     <g id="line2d_40">
      <g>
       <use xlink:href="#mb3e032777a" x="390.370909" y="307.584" style="stroke: #000000; stroke-width: 0.8"/>
      </g>
     </g>
     <g id="text_40">
      <!-- 195 -->
      <g transform="translate(380.827159 322.182437) scale(0.1 -0.1)">
       <use xlink:href="#DejaVuSans-31"/>
       <use xlink:href="#DejaVuSans-39" x="63.623047"/>
       <use xlink:href="#DejaVuSans-35" x="127.246094"/>
      </g>
     </g>
    </g>
    <g id="xtick_41">
     <g id="line2d_41">
      <g>
       <use xlink:href="#mb3e032777a" x="398.487273" y="307.584" style="stroke: #000000; stroke-width: 0.8"/>
      </g>
     </g>
     <g id="text_41">
      <!-- 200 -->
      <g transform="translate(388.943523 322.182437) scale(0.1 -0.1)">
       <use xlink:href="#DejaVuSans-32"/>
       <use xlink:href="#DejaVuSans-30" x="63.623047"/>
       <use xlink:href="#DejaVuSans-30" x="127.246094"/>
      </g>
     </g>
    </g>
    <g id="text_42">
     <!-- Generation -->
     <g transform="translate(197.109844 338.899937) scale(0.14 -0.14)">
      <defs>
       <path id="DejaVuSans-47" d="M 3809 666 
L 3809 1919 
L 2778 1919 
L 2778 2438 
L 4434 2438 
L 4434 434 
Q 4069 175 3628 42 
Q 3188 -91 2688 -91 
Q 1594 -91 976 548 
Q 359 1188 359 2328 
Q 359 3472 976 4111 
Q 1594 4750 2688 4750 
Q 3144 4750 3555 4637 
Q 3966 4525 4313 4306 
L 4313 3634 
Q 3963 3931 3569 4081 
Q 3175 4231 2741 4231 
Q 1884 4231 1454 3753 
Q 1025 3275 1025 2328 
Q 1025 1384 1454 906 
Q 1884 428 2741 428 
Q 3075 428 3337 486 
Q 3600 544 3809 666 
z
" transform="scale(0.015625)"/>
       <path id="DejaVuSans-65" d="M 3597 1894 
L 3597 1613 
L 953 1613 
Q 991 1019 1311 708 
Q 1631 397 2203 397 
Q 2534 397 2845 478 
Q 3156 559 3463 722 
L 3463 178 
Q 3153 47 2828 -22 
Q 2503 -91 2169 -91 
Q 1331 -91 842 396 
Q 353 884 353 1716 
Q 353 2575 817 3079 
Q 1281 3584 2069 3584 
Q 2775 3584 3186 3129 
Q 3597 2675 3597 1894 
z
M 3022 2063 
Q 3016 2534 2758 2815 
Q 2500 3097 2075 3097 
Q 1594 3097 1305 2825 
Q 1016 2553 972 2059 
L 3022 2063 
z
" transform="scale(0.015625)"/>
       <path id="DejaVuSans-6e" d="M 3513 2113 
L 3513 0 
L 2938 0 
L 2938 2094 
Q 2938 2591 2744 2837 
Q 2550 3084 2163 3084 
Q 1697 3084 1428 2787 
Q 1159 2491 1159 1978 
L 1159 0 
L 581 0 
L 581 3500 
L 1159 3500 
L 1159 2956 
Q 1366 3272 1645 3428 
Q 1925 3584 2291 3584 
Q 2894 3584 3203 3211 
Q 3513 2838 3513 2113 
z
" transform="scale(0.015625)"/>
       <path id="DejaVuSans-72" d="M 2631 2963 
Q 2534 3019 2420 3045 
Q 2306 3072 2169 3072 
Q 1681 3072 1420 2755 
Q 1159 2438 1159 1844 
L 1159 0 
L 581 0 
L 581 3500 
L 1159 3500 
L 1159 2956 
Q 1341 3275 1631 3429 
Q 1922 3584 2338 3584 
Q 2397 3584 2469 3576 
Q 2541 3569 2628 3553 
L 2631 2963 
z
" transform="scale(0.015625)"/>
       <path id="DejaVuSans-61" d="M 2194 1759 
Q 1497 1759 1228 1600 
Q 959 1441 959 1056 
Q 959 750 1161 570 
Q 1363 391 1709 391 
Q 2188 391 2477 730 
Q 2766 1069 2766 1631 
L 2766 1759 
L 2194 1759 
z
M 3341 1997 
L 3341 0 
L 2766 0 
L 2766 531 
Q 2569 213 2275 61 
Q 1981 -91 1556 -91 
Q 1019 -91 701 211 
Q 384 513 384 1019 
Q 384 1609 779 1909 
Q 1175 2209 1959 2209 
L 2766 2209 
L 2766 2266 
Q 2766 2663 2505 2880 
Q 2244 3097 1772 3097 
Q 1472 3097 1187 3025 
Q 903 2953 641 2809 
L 641 3341 
Q 956 3463 1253 3523 
Q 1550 3584 1831 3584 
Q 2591 3584 2966 3190 
Q 3341 2797 3341 1997 
z
" transform="scale(0.015625)"/>
       <path id="DejaVuSans-74" d="M 1172 4494 
L 1172 3500 
L 2356 3500 
L 2356 3053 
L 1172 3053 
L 1172 1153 
Q 1172 725 1289 603 
Q 1406 481 1766 481 
L 2356 481 
L 2356 0 
L 1766 0 
Q 1100 0 847 248 
Q 594 497 594 1153 
L 594 3053 
L 172 3053 
L 172 3500 
L 594 3500 
L 594 4494 
L 1172 4494 
z
" transform="scale(0.015625)"/>
       <path id="DejaVuSans-69" d="M 603 3500 
L 1178 3500 
L 1178 0 
L 603 0 
L 603 3500 
z
M 603 4863 
L 1178 4863 
L 1178 4134 
L 603 4134 
L 603 4863 
z
" transform="scale(0.015625)"/>
       <path id="DejaVuSans-6f" d="M 1959 3097 
Q 1497 3097 1228 2736 
Q 959 2375 959 1747 
Q 959 1119 1226 758 
Q 1494 397 1959 397 
Q 2419 397 2687 759 
Q 2956 1122 2956 1747 
Q 2956 2369 2687 2733 
Q 2419 3097 1959 3097 
z
M 1959 3584 
Q 2709 3584 3137 3096 
Q 3566 2609 3566 1747 
Q 3566 888 3137 398 
Q 2709 -91 1959 -91 
Q 1206 -91 779 398 
Q 353 888 353 1747 
Q 353 2609 779 3096 
Q 1206 3584 1959 3584 
z
" transform="scale(0.015625)"/>
      </defs>
      <use xlink:href="#DejaVuSans-47"/>
      <use xlink:href="#DejaVuSans-65" x="77.490234"/>
      <use xlink:href="#DejaVuSans-6e" x="139.013672"/>
      <use xlink:href="#DejaVuSans-65" x="202.392578"/>
      <use xlink:href="#DejaVuSans-72" x="263.916016"/>
      <use xlink:href="#DejaVuSans-61" x="305.029297"/>
      <use xlink:href="#DejaVuSans-74" x="366.308594"/>
      <use xlink:href="#DejaVuSans-69" x="405.517578"/>
      <use xlink:href="#DejaVuSans-6f" x="433.300781"/>
      <use xlink:href="#DejaVuSans-6e" x="494.482422"/>
     </g>
    </g>
   </g>
   <g id="matplotlib.axis_2">
    <g id="ytick_1">
     <g id="line2d_42">
      <defs>
       <path id="md3ee5ee6b4" d="M 0 0 
L -3.5 0 
" style="stroke: #000000; stroke-width: 0.8"/>
      </defs>
      <g>
       <use xlink:href="#md3ee5ee6b4" x="57.6" y="281.536979" style="stroke: #000000; stroke-width: 0.8"/>
      </g>
     </g>
     <g id="text_43">
      <!-- 69 -->
      <g transform="translate(37.875 285.336198) scale(0.1 -0.1)">
       <use xlink:href="#DejaVuSans-36"/>
       <use xlink:href="#DejaVuSans-39" x="63.623047"/>
      </g>
     </g>
    </g>
    <g id="ytick_2">
     <g id="line2d_43">
      <g>
       <use xlink:href="#md3ee5ee6b4" x="57.6" y="230.914704" style="stroke: #000000; stroke-width: 0.8"/>
      </g>
     </g>
     <g id="text_44">
      <!-- 70 -->
      <g transform="translate(37.875 234.713923) scale(0.1 -0.1)">
       <use xlink:href="#DejaVuSans-37"/>
       <use xlink:href="#DejaVuSans-30" x="63.623047"/>
      </g>
     </g>
    </g>
    <g id="ytick_3">
     <g id="line2d_44">
      <g>
       <use xlink:href="#md3ee5ee6b4" x="57.6" y="180.292429" style="stroke: #000000; stroke-width: 0.8"/>
      </g>
     </g>
     <g id="text_45">
      <!-- 71 -->
      <g transform="translate(37.875 184.091648) scale(0.1 -0.1)">
       <use xlink:href="#DejaVuSans-37"/>
       <use xlink:href="#DejaVuSans-31" x="63.623047"/>
      </g>
     </g>
    </g>
    <g id="ytick_4">
     <g id="line2d_45">
      <g>
       <use xlink:href="#md3ee5ee6b4" x="57.6" y="129.670154" style="stroke: #000000; stroke-width: 0.8"/>
      </g>
     </g>
     <g id="text_46">
      <!-- 72 -->
      <g transform="translate(37.875 133.469372) scale(0.1 -0.1)">
       <use xlink:href="#DejaVuSans-37"/>
       <use xlink:href="#DejaVuSans-32" x="63.623047"/>
      </g>
     </g>
    </g>
    <g id="ytick_5">
     <g id="line2d_46">
      <g>
       <use xlink:href="#md3ee5ee6b4" x="57.6" y="79.047878" style="stroke: #000000; stroke-width: 0.8"/>
      </g>
     </g>
     <g id="text_47">
      <!-- 73 -->
      <g transform="translate(37.875 82.847097) scale(0.1 -0.1)">
       <use xlink:href="#DejaVuSans-37"/>
       <use xlink:href="#DejaVuSans-33" x="63.623047"/>
      </g>
     </g>
    </g>
    <g id="text_48">
     <!-- Test Accuracy -->
     <g transform="translate(30.963437 222.4955) rotate(-90) scale(0.14 -0.14)">
      <defs>
       <path id="DejaVuSans-54" d="M -19 4666 
L 3928 4666 
L 3928 4134 
L 2272 4134 
L 2272 0 
L 1638 0 
L 1638 4134 
L -19 4134 
L -19 4666 
z
" transform="scale(0.015625)"/>
       <path id="DejaVuSans-73" d="M 2834 3397 
L 2834 2853 
Q 2591 2978 2328 3040 
Q 2066 3103 1784 3103 
Q 1356 3103 1142 2972 
Q 928 2841 928 2578 
Q 928 2378 1081 2264 
Q 1234 2150 1697 2047 
L 1894 2003 
Q 2506 1872 2764 1633 
Q 3022 1394 3022 966 
Q 3022 478 2636 193 
Q 2250 -91 1575 -91 
Q 1294 -91 989 -36 
Q 684 19 347 128 
L 347 722 
Q 666 556 975 473 
Q 1284 391 1588 391 
Q 1994 391 2212 530 
Q 2431 669 2431 922 
Q 2431 1156 2273 1281 
Q 2116 1406 1581 1522 
L 1381 1569 
Q 847 1681 609 1914 
Q 372 2147 372 2553 
Q 372 3047 722 3315 
Q 1072 3584 1716 3584 
Q 2034 3584 2315 3537 
Q 2597 3491 2834 3397 
z
" transform="scale(0.015625)"/>
       <path id="DejaVuSans-20" transform="scale(0.015625)"/>
       <path id="DejaVuSans-41" d="M 2188 4044 
L 1331 1722 
L 3047 1722 
L 2188 4044 
z
M 1831 4666 
L 2547 4666 
L 4325 0 
L 3669 0 
L 3244 1197 
L 1141 1197 
L 716 0 
L 50 0 
L 1831 4666 
z
" transform="scale(0.015625)"/>
       <path id="DejaVuSans-63" d="M 3122 3366 
L 3122 2828 
Q 2878 2963 2633 3030 
Q 2388 3097 2138 3097 
Q 1578 3097 1268 2742 
Q 959 2388 959 1747 
Q 959 1106 1268 751 
Q 1578 397 2138 397 
Q 2388 397 2633 464 
Q 2878 531 3122 666 
L 3122 134 
Q 2881 22 2623 -34 
Q 2366 -91 2075 -91 
Q 1284 -91 818 406 
Q 353 903 353 1747 
Q 353 2603 823 3093 
Q 1294 3584 2113 3584 
Q 2378 3584 2631 3529 
Q 2884 3475 3122 3366 
z
" transform="scale(0.015625)"/>
       <path id="DejaVuSans-75" d="M 544 1381 
L 544 3500 
L 1119 3500 
L 1119 1403 
Q 1119 906 1312 657 
Q 1506 409 1894 409 
Q 2359 409 2629 706 
Q 2900 1003 2900 1516 
L 2900 3500 
L 3475 3500 
L 3475 0 
L 2900 0 
L 2900 538 
Q 2691 219 2414 64 
Q 2138 -91 1772 -91 
Q 1169 -91 856 284 
Q 544 659 544 1381 
z
M 1991 3584 
L 1991 3584 
z
" transform="scale(0.015625)"/>
       <path id="DejaVuSans-79" d="M 2059 -325 
Q 1816 -950 1584 -1140 
Q 1353 -1331 966 -1331 
L 506 -1331 
L 506 -850 
L 844 -850 
Q 1081 -850 1212 -737 
Q 1344 -625 1503 -206 
L 1606 56 
L 191 3500 
L 800 3500 
L 1894 763 
L 2988 3500 
L 3597 3500 
L 2059 -325 
z
" transform="scale(0.015625)"/>
      </defs>
      <use xlink:href="#DejaVuSans-54"/>
      <use xlink:href="#DejaVuSans-65" x="44.083984"/>
      <use xlink:href="#DejaVuSans-73" x="105.607422"/>
      <use xlink:href="#DejaVuSans-74" x="157.707031"/>
      <use xlink:href="#DejaVuSans-20" x="196.916016"/>
      <use xlink:href="#DejaVuSans-41" x="228.703125"/>
      <use xlink:href="#DejaVuSans-63" x="295.361328"/>
      <use xlink:href="#DejaVuSans-63" x="350.341797"/>
      <use xlink:href="#DejaVuSans-75" x="405.322266"/>
      <use xlink:href="#DejaVuSans-72" x="468.701172"/>
      <use xlink:href="#DejaVuSans-61" x="509.814453"/>
      <use xlink:href="#DejaVuSans-63" x="571.09375"/>
      <use xlink:href="#DejaVuSans-79" x="626.074219"/>
     </g>
    </g>
   </g>
   <g id="line2d_47">
    <path d="M 73.832727 257.106107 
L 75.456 255.292142 
L 77.079273 239.978904 
L 78.702545 227.922365 
L 80.325818 225.284382 
L 81.949091 199.832627 
L 83.572364 183.225708 
L 85.195636 179.468411 
L 86.818909 176.417012 
L 88.442182 172.513473 
L 90.065455 176.346704 
L 91.688727 159.832593 
L 93.312 148.316025 
L 94.935273 147.80699 
L 96.558545 148.917868 
L 98.181818 147.092653 
L 99.805091 144.747155 
L 101.428364 146.313633 
L 103.051636 141.833561 
L 104.674909 134.296467 
L 106.298182 134.124914 
L 107.921455 129.425479 
L 109.544727 131.306941 
L 111.168 126.928114 
L 112.791273 131.281629 
L 114.414545 130.916024 
L 116.037818 129.836082 
L 117.661091 128.519903 
L 119.284364 123.958274 
L 120.907636 121.376538 
L 122.530909 131.051017 
L 124.154182 131.006019 
L 125.777455 125.536001 
L 127.400727 132.839671 
L 129.024 138.242192 
L 130.647273 127.065919 
L 132.270545 131.104451 
L 133.893818 120.999683 
L 135.517091 131.939719 
L 137.140364 120.81688 
L 138.763636 125.862234 
L 140.386909 132.510626 
L 142.010182 122.703966 
L 143.633455 135.910755 
L 145.256727 136.568845 
L 146.88 147.93917 
L 148.503273 147.117964 
L 150.126545 138.464368 
L 151.749818 147.888548 
L 153.373091 139.296823 
L 154.996364 148.574761 
L 156.619636 154.581938 
L 158.242909 156.724947 
L 159.866182 153.161702 
L 161.489455 158.302675 
L 163.112727 171.351973 
L 164.736 170.955431 
L 166.359273 169.931736 
L 167.982545 162.287773 
L 169.605818 168.998037 
L 171.229091 155.751875 
L 172.852364 156.263722 
L 174.475636 164.616398 
L 176.098909 165.40948 
L 177.722182 169.599879 
L 179.345455 164.616398 
L 180.968727 163.497083 
L 182.592 164.003306 
L 184.215273 167.771853 
L 185.838545 172.021311 
L 187.461818 171.666956 
L 189.085091 167.887159 
L 190.708364 180.91677 
L 192.331636 176.914798 
L 193.954909 163.710821 
L 195.578182 176.253896 
L 197.201455 176.535131 
L 198.824727 172.755334 
L 200.448 172.665339 
L 202.071273 176.535131 
L 203.694545 167.490618 
L 205.317818 171.872257 
L 206.941091 171.872257 
L 208.564364 176.535131 
L 210.187636 176.535131 
L 211.810909 171.872257 
L 213.434182 171.872257 
L 215.057455 180.91677 
L 216.680727 176.253896 
L 219.927273 176.253896 
L 221.550545 180.635535 
L 223.173818 176.253896 
L 224.797091 185.298409 
L 226.420364 185.017174 
L 228.043636 180.635535 
L 229.666909 185.298409 
L 231.290182 176.253896 
L 232.913455 185.298409 
L 234.536727 180.503355 
L 236.16 185.017174 
L 239.406545 176.253896 
L 241.029818 176.855739 
L 242.653091 180.91677 
L 244.276364 176.855739 
L 245.899636 180.635535 
L 247.522909 180.635535 
L 249.146182 185.017174 
L 250.769455 185.298409 
L 252.392727 185.017174 
L 255.639273 176.253896 
L 258.885818 185.017174 
L 260.509091 180.503355 
L 262.132364 185.298409 
L 263.755636 180.635535 
L 265.378909 185.447464 
L 267.002182 185.017174 
L 268.625455 185.298409 
L 270.248727 180.91677 
L 271.872 185.298409 
L 273.495273 184.884994 
L 275.118545 185.017174 
L 276.741818 185.017174 
L 278.365091 185.579644 
L 279.988364 180.635535 
L 281.611636 185.017174 
L 283.234909 180.91677 
L 284.858182 185.017174 
L 286.481455 185.579644 
L 288.104727 180.91677 
L 289.728 181.47924 
L 291.351273 185.017174 
L 292.974545 185.298409 
L 294.597818 185.298409 
L 296.221091 185.017174 
L 297.844364 176.253896 
L 299.467636 180.635535 
L 301.090909 180.91677 
L 302.714182 180.635535 
L 304.337455 185.017174 
L 305.960727 180.371175 
L 307.584 180.503355 
L 309.207273 176.253896 
L 310.830545 185.017174 
L 314.077091 185.017174 
L 315.700364 171.872257 
L 317.323636 180.503355 
L 318.946909 185.017174 
L 320.570182 180.635535 
L 322.193455 185.017174 
L 323.816727 185.298409 
L 325.44 185.017174 
L 327.063273 176.253896 
L 328.686545 185.017174 
L 330.309818 180.91677 
L 331.933091 185.017174 
L 333.556364 185.017174 
L 335.179636 180.635535 
L 336.802909 185.017174 
L 338.426182 185.017174 
L 340.049455 184.884994 
L 341.672727 180.91677 
L 343.296 185.017174 
L 344.919273 185.017174 
L 346.542545 180.635535 
L 348.165818 184.884994 
L 349.789091 185.017174 
L 351.412364 180.635535 
L 353.035636 185.017174 
L 354.658909 185.017174 
L 356.282182 184.752814 
L 357.905455 180.635535 
L 359.528727 185.017174 
L 362.775273 185.017174 
L 366.021818 185.298409 
L 367.645091 185.017174 
L 369.268364 176.535131 
L 372.514909 185.017174 
L 374.138182 185.017174 
L 375.761455 185.298409 
L 377.384727 185.298409 
L 379.008 180.635535 
L 382.254545 180.635535 
L 383.877818 185.579644 
L 385.501091 180.635535 
L 387.124364 185.298409 
L 388.747636 185.017174 
L 390.370909 171.872257 
L 391.994182 176.253896 
L 393.617455 185.298409 
L 395.240727 167.490618 
L 396.864 185.298409 
L 398.487273 53.568 
L 398.487273 53.568 
" clip-path="url(#p831504de36)" style="fill: none; stroke: #1f77b4; stroke-linecap: square"/>
    <defs>
     <path id="mb2b2a2b472" d="M 0 2.5 
C 0.663008 2.5 1.29895 2.236584 1.767767 1.767767 
C 2.236584 1.29895 2.5 0.663008 2.5 0 
C 2.5 -0.663008 2.236584 -1.29895 1.767767 -1.767767 
C 1.29895 -2.236584 0.663008 -2.5 0 -2.5 
C -0.663008 -2.5 -1.29895 -2.236584 -1.767767 -1.767767 
C -2.236584 -1.29895 -2.5 -0.663008 -2.5 0 
C -2.5 0.663008 -2.236584 1.29895 -1.767767 1.767767 
C -1.29895 2.236584 -0.663008 2.5 0 2.5 
z
" style="stroke: #1f77b4"/>
    </defs>
    <g clip-path="url(#p831504de36)">
     <use xlink:href="#mb2b2a2b472" x="73.832727" y="257.106107" style="fill: #1f77b4; stroke: #1f77b4"/>
     <use xlink:href="#mb2b2a2b472" x="75.456" y="255.292142" style="fill: #1f77b4; stroke: #1f77b4"/>
     <use xlink:href="#mb2b2a2b472" x="77.079273" y="239.978904" style="fill: #1f77b4; stroke: #1f77b4"/>
     <use xlink:href="#mb2b2a2b472" x="78.702545" y="227.922365" style="fill: #1f77b4; stroke: #1f77b4"/>
     <use xlink:href="#mb2b2a2b472" x="80.325818" y="225.284382" style="fill: #1f77b4; stroke: #1f77b4"/>
     <use xlink:href="#mb2b2a2b472" x="81.949091" y="199.832627" style="fill: #1f77b4; stroke: #1f77b4"/>
     <use xlink:href="#mb2b2a2b472" x="83.572364" y="183.225708" style="fill: #1f77b4; stroke: #1f77b4"/>
     <use xlink:href="#mb2b2a2b472" x="85.195636" y="179.468411" style="fill: #1f77b4; stroke: #1f77b4"/>
     <use xlink:href="#mb2b2a2b472" x="86.818909" y="176.417012" style="fill: #1f77b4; stroke: #1f77b4"/>
     <use xlink:href="#mb2b2a2b472" x="88.442182" y="172.513473" style="fill: #1f77b4; stroke: #1f77b4"/>
     <use xlink:href="#mb2b2a2b472" x="90.065455" y="176.346704" style="fill: #1f77b4; stroke: #1f77b4"/>
     <use xlink:href="#mb2b2a2b472" x="91.688727" y="159.832593" style="fill: #1f77b4; stroke: #1f77b4"/>
     <use xlink:href="#mb2b2a2b472" x="93.312" y="148.316025" style="fill: #1f77b4; stroke: #1f77b4"/>
     <use xlink:href="#mb2b2a2b472" x="94.935273" y="147.80699" style="fill: #1f77b4; stroke: #1f77b4"/>
     <use xlink:href="#mb2b2a2b472" x="96.558545" y="148.917868" style="fill: #1f77b4; stroke: #1f77b4"/>
     <use xlink:href="#mb2b2a2b472" x="98.181818" y="147.092653" style="fill: #1f77b4; stroke: #1f77b4"/>
     <use xlink:href="#mb2b2a2b472" x="99.805091" y="144.747155" style="fill: #1f77b4; stroke: #1f77b4"/>
     <use xlink:href="#mb2b2a2b472" x="101.428364" y="146.313633" style="fill: #1f77b4; stroke: #1f77b4"/>
     <use xlink:href="#mb2b2a2b472" x="103.051636" y="141.833561" style="fill: #1f77b4; stroke: #1f77b4"/>
     <use xlink:href="#mb2b2a2b472" x="104.674909" y="134.296467" style="fill: #1f77b4; stroke: #1f77b4"/>
     <use xlink:href="#mb2b2a2b472" x="106.298182" y="134.124914" style="fill: #1f77b4; stroke: #1f77b4"/>
     <use xlink:href="#mb2b2a2b472" x="107.921455" y="129.425479" style="fill: #1f77b4; stroke: #1f77b4"/>
     <use xlink:href="#mb2b2a2b472" x="109.544727" y="131.306941" style="fill: #1f77b4; stroke: #1f77b4"/>
     <use xlink:href="#mb2b2a2b472" x="111.168" y="126.928114" style="fill: #1f77b4; stroke: #1f77b4"/>
     <use xlink:href="#mb2b2a2b472" x="112.791273" y="131.281629" style="fill: #1f77b4; stroke: #1f77b4"/>
     <use xlink:href="#mb2b2a2b472" x="114.414545" y="130.916024" style="fill: #1f77b4; stroke: #1f77b4"/>
     <use xlink:href="#mb2b2a2b472" x="116.037818" y="129.836082" style="fill: #1f77b4; stroke: #1f77b4"/>
     <use xlink:href="#mb2b2a2b472" x="117.661091" y="128.519903" style="fill: #1f77b4; stroke: #1f77b4"/>
     <use xlink:href="#mb2b2a2b472" x="119.284364" y="123.958274" style="fill: #1f77b4; stroke: #1f77b4"/>
     <use xlink:href="#mb2b2a2b472" x="120.907636" y="121.376538" style="fill: #1f77b4; stroke: #1f77b4"/>
     <use xlink:href="#mb2b2a2b472" x="122.530909" y="131.051017" style="fill: #1f77b4; stroke: #1f77b4"/>
     <use xlink:href="#mb2b2a2b472" x="124.154182" y="131.006019" style="fill: #1f77b4; stroke: #1f77b4"/>
     <use xlink:href="#mb2b2a2b472" x="125.777455" y="125.536001" style="fill: #1f77b4; stroke: #1f77b4"/>
     <use xlink:href="#mb2b2a2b472" x="127.400727" y="132.839671" style="fill: #1f77b4; stroke: #1f77b4"/>
     <use xlink:href="#mb2b2a2b472" x="129.024" y="138.242192" style="fill: #1f77b4; stroke: #1f77b4"/>
     <use xlink:href="#mb2b2a2b472" x="130.647273" y="127.065919" style="fill: #1f77b4; stroke: #1f77b4"/>
     <use xlink:href="#mb2b2a2b472" x="132.270545" y="131.104451" style="fill: #1f77b4; stroke: #1f77b4"/>
     <use xlink:href="#mb2b2a2b472" x="133.893818" y="120.999683" style="fill: #1f77b4; stroke: #1f77b4"/>
     <use xlink:href="#mb2b2a2b472" x="135.517091" y="131.939719" style="fill: #1f77b4; stroke: #1f77b4"/>
     <use xlink:href="#mb2b2a2b472" x="137.140364" y="120.81688" style="fill: #1f77b4; stroke: #1f77b4"/>
     <use xlink:href="#mb2b2a2b472" x="138.763636" y="125.862234" style="fill: #1f77b4; stroke: #1f77b4"/>
     <use xlink:href="#mb2b2a2b472" x="140.386909" y="132.510626" style="fill: #1f77b4; stroke: #1f77b4"/>
     <use xlink:href="#mb2b2a2b472" x="142.010182" y="122.703966" style="fill: #1f77b4; stroke: #1f77b4"/>
     <use xlink:href="#mb2b2a2b472" x="143.633455" y="135.910755" style="fill: #1f77b4; stroke: #1f77b4"/>
     <use xlink:href="#mb2b2a2b472" x="145.256727" y="136.568845" style="fill: #1f77b4; stroke: #1f77b4"/>
     <use xlink:href="#mb2b2a2b472" x="146.88" y="147.93917" style="fill: #1f77b4; stroke: #1f77b4"/>
     <use xlink:href="#mb2b2a2b472" x="148.503273" y="147.117964" style="fill: #1f77b4; stroke: #1f77b4"/>
     <use xlink:href="#mb2b2a2b472" x="150.126545" y="138.464368" style="fill: #1f77b4; stroke: #1f77b4"/>
     <use xlink:href="#mb2b2a2b472" x="151.749818" y="147.888548" style="fill: #1f77b4; stroke: #1f77b4"/>
     <use xlink:href="#mb2b2a2b472" x="153.373091" y="139.296823" style="fill: #1f77b4; stroke: #1f77b4"/>
     <use xlink:href="#mb2b2a2b472" x="154.996364" y="148.574761" style="fill: #1f77b4; stroke: #1f77b4"/>
     <use xlink:href="#mb2b2a2b472" x="156.619636" y="154.581938" style="fill: #1f77b4; stroke: #1f77b4"/>
     <use xlink:href="#mb2b2a2b472" x="158.242909" y="156.724947" style="fill: #1f77b4; stroke: #1f77b4"/>
     <use xlink:href="#mb2b2a2b472" x="159.866182" y="153.161702" style="fill: #1f77b4; stroke: #1f77b4"/>
     <use xlink:href="#mb2b2a2b472" x="161.489455" y="158.302675" style="fill: #1f77b4; stroke: #1f77b4"/>
     <use xlink:href="#mb2b2a2b472" x="163.112727" y="171.351973" style="fill: #1f77b4; stroke: #1f77b4"/>
     <use xlink:href="#mb2b2a2b472" x="164.736" y="170.955431" style="fill: #1f77b4; stroke: #1f77b4"/>
     <use xlink:href="#mb2b2a2b472" x="166.359273" y="169.931736" style="fill: #1f77b4; stroke: #1f77b4"/>
     <use xlink:href="#mb2b2a2b472" x="167.982545" y="162.287773" style="fill: #1f77b4; stroke: #1f77b4"/>
     <use xlink:href="#mb2b2a2b472" x="169.605818" y="168.998037" style="fill: #1f77b4; stroke: #1f77b4"/>
     <use xlink:href="#mb2b2a2b472" x="171.229091" y="155.751875" style="fill: #1f77b4; stroke: #1f77b4"/>
     <use xlink:href="#mb2b2a2b472" x="172.852364" y="156.263722" style="fill: #1f77b4; stroke: #1f77b4"/>
     <use xlink:href="#mb2b2a2b472" x="174.475636" y="164.616398" style="fill: #1f77b4; stroke: #1f77b4"/>
     <use xlink:href="#mb2b2a2b472" x="176.098909" y="165.40948" style="fill: #1f77b4; stroke: #1f77b4"/>
     <use xlink:href="#mb2b2a2b472" x="177.722182" y="169.599879" style="fill: #1f77b4; stroke: #1f77b4"/>
     <use xlink:href="#mb2b2a2b472" x="179.345455" y="164.616398" style="fill: #1f77b4; stroke: #1f77b4"/>
     <use xlink:href="#mb2b2a2b472" x="180.968727" y="163.497083" style="fill: #1f77b4; stroke: #1f77b4"/>
     <use xlink:href="#mb2b2a2b472" x="182.592" y="164.003306" style="fill: #1f77b4; stroke: #1f77b4"/>
     <use xlink:href="#mb2b2a2b472" x="184.215273" y="167.771853" style="fill: #1f77b4; stroke: #1f77b4"/>
     <use xlink:href="#mb2b2a2b472" x="185.838545" y="172.021311" style="fill: #1f77b4; stroke: #1f77b4"/>
     <use xlink:href="#mb2b2a2b472" x="187.461818" y="171.666956" style="fill: #1f77b4; stroke: #1f77b4"/>
     <use xlink:href="#mb2b2a2b472" x="189.085091" y="167.887159" style="fill: #1f77b4; stroke: #1f77b4"/>
     <use xlink:href="#mb2b2a2b472" x="190.708364" y="180.91677" style="fill: #1f77b4; stroke: #1f77b4"/>
     <use xlink:href="#mb2b2a2b472" x="192.331636" y="176.914798" style="fill: #1f77b4; stroke: #1f77b4"/>
     <use xlink:href="#mb2b2a2b472" x="193.954909" y="163.710821" style="fill: #1f77b4; stroke: #1f77b4"/>
     <use xlink:href="#mb2b2a2b472" x="195.578182" y="176.253896" style="fill: #1f77b4; stroke: #1f77b4"/>
     <use xlink:href="#mb2b2a2b472" x="197.201455" y="176.535131" style="fill: #1f77b4; stroke: #1f77b4"/>
     <use xlink:href="#mb2b2a2b472" x="198.824727" y="172.755334" style="fill: #1f77b4; stroke: #1f77b4"/>
     <use xlink:href="#mb2b2a2b472" x="200.448" y="172.665339" style="fill: #1f77b4; stroke: #1f77b4"/>
     <use xlink:href="#mb2b2a2b472" x="202.071273" y="176.535131" style="fill: #1f77b4; stroke: #1f77b4"/>
     <use xlink:href="#mb2b2a2b472" x="203.694545" y="167.490618" style="fill: #1f77b4; stroke: #1f77b4"/>
     <use xlink:href="#mb2b2a2b472" x="205.317818" y="171.872257" style="fill: #1f77b4; stroke: #1f77b4"/>
     <use xlink:href="#mb2b2a2b472" x="206.941091" y="171.872257" style="fill: #1f77b4; stroke: #1f77b4"/>
     <use xlink:href="#mb2b2a2b472" x="208.564364" y="176.535131" style="fill: #1f77b4; stroke: #1f77b4"/>
     <use xlink:href="#mb2b2a2b472" x="210.187636" y="176.535131" style="fill: #1f77b4; stroke: #1f77b4"/>
     <use xlink:href="#mb2b2a2b472" x="211.810909" y="171.872257" style="fill: #1f77b4; stroke: #1f77b4"/>
     <use xlink:href="#mb2b2a2b472" x="213.434182" y="171.872257" style="fill: #1f77b4; stroke: #1f77b4"/>
     <use xlink:href="#mb2b2a2b472" x="215.057455" y="180.91677" style="fill: #1f77b4; stroke: #1f77b4"/>
     <use xlink:href="#mb2b2a2b472" x="216.680727" y="176.253896" style="fill: #1f77b4; stroke: #1f77b4"/>
     <use xlink:href="#mb2b2a2b472" x="218.304" y="176.253896" style="fill: #1f77b4; stroke: #1f77b4"/>
     <use xlink:href="#mb2b2a2b472" x="219.927273" y="176.253896" style="fill: #1f77b4; stroke: #1f77b4"/>
     <use xlink:href="#mb2b2a2b472" x="221.550545" y="180.635535" style="fill: #1f77b4; stroke: #1f77b4"/>
     <use xlink:href="#mb2b2a2b472" x="223.173818" y="176.253896" style="fill: #1f77b4; stroke: #1f77b4"/>
     <use xlink:href="#mb2b2a2b472" x="224.797091" y="185.298409" style="fill: #1f77b4; stroke: #1f77b4"/>
     <use xlink:href="#mb2b2a2b472" x="226.420364" y="185.017174" style="fill: #1f77b4; stroke: #1f77b4"/>
     <use xlink:href="#mb2b2a2b472" x="228.043636" y="180.635535" style="fill: #1f77b4; stroke: #1f77b4"/>
     <use xlink:href="#mb2b2a2b472" x="229.666909" y="185.298409" style="fill: #1f77b4; stroke: #1f77b4"/>
     <use xlink:href="#mb2b2a2b472" x="231.290182" y="176.253896" style="fill: #1f77b4; stroke: #1f77b4"/>
     <use xlink:href="#mb2b2a2b472" x="232.913455" y="185.298409" style="fill: #1f77b4; stroke: #1f77b4"/>
     <use xlink:href="#mb2b2a2b472" x="234.536727" y="180.503355" style="fill: #1f77b4; stroke: #1f77b4"/>
     <use xlink:href="#mb2b2a2b472" x="236.16" y="185.017174" style="fill: #1f77b4; stroke: #1f77b4"/>
     <use xlink:href="#mb2b2a2b472" x="237.783273" y="180.635535" style="fill: #1f77b4; stroke: #1f77b4"/>
     <use xlink:href="#mb2b2a2b472" x="239.406545" y="176.253896" style="fill: #1f77b4; stroke: #1f77b4"/>
     <use xlink:href="#mb2b2a2b472" x="241.029818" y="176.855739" style="fill: #1f77b4; stroke: #1f77b4"/>
     <use xlink:href="#mb2b2a2b472" x="242.653091" y="180.91677" style="fill: #1f77b4; stroke: #1f77b4"/>
     <use xlink:href="#mb2b2a2b472" x="244.276364" y="176.855739" style="fill: #1f77b4; stroke: #1f77b4"/>
     <use xlink:href="#mb2b2a2b472" x="245.899636" y="180.635535" style="fill: #1f77b4; stroke: #1f77b4"/>
     <use xlink:href="#mb2b2a2b472" x="247.522909" y="180.635535" style="fill: #1f77b4; stroke: #1f77b4"/>
     <use xlink:href="#mb2b2a2b472" x="249.146182" y="185.017174" style="fill: #1f77b4; stroke: #1f77b4"/>
     <use xlink:href="#mb2b2a2b472" x="250.769455" y="185.298409" style="fill: #1f77b4; stroke: #1f77b4"/>
     <use xlink:href="#mb2b2a2b472" x="252.392727" y="185.017174" style="fill: #1f77b4; stroke: #1f77b4"/>
     <use xlink:href="#mb2b2a2b472" x="254.016" y="180.635535" style="fill: #1f77b4; stroke: #1f77b4"/>
     <use xlink:href="#mb2b2a2b472" x="255.639273" y="176.253896" style="fill: #1f77b4; stroke: #1f77b4"/>
     <use xlink:href="#mb2b2a2b472" x="257.262545" y="180.635535" style="fill: #1f77b4; stroke: #1f77b4"/>
     <use xlink:href="#mb2b2a2b472" x="258.885818" y="185.017174" style="fill: #1f77b4; stroke: #1f77b4"/>
     <use xlink:href="#mb2b2a2b472" x="260.509091" y="180.503355" style="fill: #1f77b4; stroke: #1f77b4"/>
     <use xlink:href="#mb2b2a2b472" x="262.132364" y="185.298409" style="fill: #1f77b4; stroke: #1f77b4"/>
     <use xlink:href="#mb2b2a2b472" x="263.755636" y="180.635535" style="fill: #1f77b4; stroke: #1f77b4"/>
     <use xlink:href="#mb2b2a2b472" x="265.378909" y="185.447464" style="fill: #1f77b4; stroke: #1f77b4"/>
     <use xlink:href="#mb2b2a2b472" x="267.002182" y="185.017174" style="fill: #1f77b4; stroke: #1f77b4"/>
     <use xlink:href="#mb2b2a2b472" x="268.625455" y="185.298409" style="fill: #1f77b4; stroke: #1f77b4"/>
     <use xlink:href="#mb2b2a2b472" x="270.248727" y="180.91677" style="fill: #1f77b4; stroke: #1f77b4"/>
     <use xlink:href="#mb2b2a2b472" x="271.872" y="185.298409" style="fill: #1f77b4; stroke: #1f77b4"/>
     <use xlink:href="#mb2b2a2b472" x="273.495273" y="184.884994" style="fill: #1f77b4; stroke: #1f77b4"/>
     <use xlink:href="#mb2b2a2b472" x="275.118545" y="185.017174" style="fill: #1f77b4; stroke: #1f77b4"/>
     <use xlink:href="#mb2b2a2b472" x="276.741818" y="185.017174" style="fill: #1f77b4; stroke: #1f77b4"/>
     <use xlink:href="#mb2b2a2b472" x="278.365091" y="185.579644" style="fill: #1f77b4; stroke: #1f77b4"/>
     <use xlink:href="#mb2b2a2b472" x="279.988364" y="180.635535" style="fill: #1f77b4; stroke: #1f77b4"/>
     <use xlink:href="#mb2b2a2b472" x="281.611636" y="185.017174" style="fill: #1f77b4; stroke: #1f77b4"/>
     <use xlink:href="#mb2b2a2b472" x="283.234909" y="180.91677" style="fill: #1f77b4; stroke: #1f77b4"/>
     <use xlink:href="#mb2b2a2b472" x="284.858182" y="185.017174" style="fill: #1f77b4; stroke: #1f77b4"/>
     <use xlink:href="#mb2b2a2b472" x="286.481455" y="185.579644" style="fill: #1f77b4; stroke: #1f77b4"/>
     <use xlink:href="#mb2b2a2b472" x="288.104727" y="180.91677" style="fill: #1f77b4; stroke: #1f77b4"/>
     <use xlink:href="#mb2b2a2b472" x="289.728" y="181.47924" style="fill: #1f77b4; stroke: #1f77b4"/>
     <use xlink:href="#mb2b2a2b472" x="291.351273" y="185.017174" style="fill: #1f77b4; stroke: #1f77b4"/>
     <use xlink:href="#mb2b2a2b472" x="292.974545" y="185.298409" style="fill: #1f77b4; stroke: #1f77b4"/>
     <use xlink:href="#mb2b2a2b472" x="294.597818" y="185.298409" style="fill: #1f77b4; stroke: #1f77b4"/>
     <use xlink:href="#mb2b2a2b472" x="296.221091" y="185.017174" style="fill: #1f77b4; stroke: #1f77b4"/>
     <use xlink:href="#mb2b2a2b472" x="297.844364" y="176.253896" style="fill: #1f77b4; stroke: #1f77b4"/>
     <use xlink:href="#mb2b2a2b472" x="299.467636" y="180.635535" style="fill: #1f77b4; stroke: #1f77b4"/>
     <use xlink:href="#mb2b2a2b472" x="301.090909" y="180.91677" style="fill: #1f77b4; stroke: #1f77b4"/>
     <use xlink:href="#mb2b2a2b472" x="302.714182" y="180.635535" style="fill: #1f77b4; stroke: #1f77b4"/>
     <use xlink:href="#mb2b2a2b472" x="304.337455" y="185.017174" style="fill: #1f77b4; stroke: #1f77b4"/>
     <use xlink:href="#mb2b2a2b472" x="305.960727" y="180.371175" style="fill: #1f77b4; stroke: #1f77b4"/>
     <use xlink:href="#mb2b2a2b472" x="307.584" y="180.503355" style="fill: #1f77b4; stroke: #1f77b4"/>
     <use xlink:href="#mb2b2a2b472" x="309.207273" y="176.253896" style="fill: #1f77b4; stroke: #1f77b4"/>
     <use xlink:href="#mb2b2a2b472" x="310.830545" y="185.017174" style="fill: #1f77b4; stroke: #1f77b4"/>
     <use xlink:href="#mb2b2a2b472" x="312.453818" y="185.017174" style="fill: #1f77b4; stroke: #1f77b4"/>
     <use xlink:href="#mb2b2a2b472" x="314.077091" y="185.017174" style="fill: #1f77b4; stroke: #1f77b4"/>
     <use xlink:href="#mb2b2a2b472" x="315.700364" y="171.872257" style="fill: #1f77b4; stroke: #1f77b4"/>
     <use xlink:href="#mb2b2a2b472" x="317.323636" y="180.503355" style="fill: #1f77b4; stroke: #1f77b4"/>
     <use xlink:href="#mb2b2a2b472" x="318.946909" y="185.017174" style="fill: #1f77b4; stroke: #1f77b4"/>
     <use xlink:href="#mb2b2a2b472" x="320.570182" y="180.635535" style="fill: #1f77b4; stroke: #1f77b4"/>
     <use xlink:href="#mb2b2a2b472" x="322.193455" y="185.017174" style="fill: #1f77b4; stroke: #1f77b4"/>
     <use xlink:href="#mb2b2a2b472" x="323.816727" y="185.298409" style="fill: #1f77b4; stroke: #1f77b4"/>
     <use xlink:href="#mb2b2a2b472" x="325.44" y="185.017174" style="fill: #1f77b4; stroke: #1f77b4"/>
     <use xlink:href="#mb2b2a2b472" x="327.063273" y="176.253896" style="fill: #1f77b4; stroke: #1f77b4"/>
     <use xlink:href="#mb2b2a2b472" x="328.686545" y="185.017174" style="fill: #1f77b4; stroke: #1f77b4"/>
     <use xlink:href="#mb2b2a2b472" x="330.309818" y="180.91677" style="fill: #1f77b4; stroke: #1f77b4"/>
     <use xlink:href="#mb2b2a2b472" x="331.933091" y="185.017174" style="fill: #1f77b4; stroke: #1f77b4"/>
     <use xlink:href="#mb2b2a2b472" x="333.556364" y="185.017174" style="fill: #1f77b4; stroke: #1f77b4"/>
     <use xlink:href="#mb2b2a2b472" x="335.179636" y="180.635535" style="fill: #1f77b4; stroke: #1f77b4"/>
     <use xlink:href="#mb2b2a2b472" x="336.802909" y="185.017174" style="fill: #1f77b4; stroke: #1f77b4"/>
     <use xlink:href="#mb2b2a2b472" x="338.426182" y="185.017174" style="fill: #1f77b4; stroke: #1f77b4"/>
     <use xlink:href="#mb2b2a2b472" x="340.049455" y="184.884994" style="fill: #1f77b4; stroke: #1f77b4"/>
     <use xlink:href="#mb2b2a2b472" x="341.672727" y="180.91677" style="fill: #1f77b4; stroke: #1f77b4"/>
     <use xlink:href="#mb2b2a2b472" x="343.296" y="185.017174" style="fill: #1f77b4; stroke: #1f77b4"/>
     <use xlink:href="#mb2b2a2b472" x="344.919273" y="185.017174" style="fill: #1f77b4; stroke: #1f77b4"/>
     <use xlink:href="#mb2b2a2b472" x="346.542545" y="180.635535" style="fill: #1f77b4; stroke: #1f77b4"/>
     <use xlink:href="#mb2b2a2b472" x="348.165818" y="184.884994" style="fill: #1f77b4; stroke: #1f77b4"/>
     <use xlink:href="#mb2b2a2b472" x="349.789091" y="185.017174" style="fill: #1f77b4; stroke: #1f77b4"/>
     <use xlink:href="#mb2b2a2b472" x="351.412364" y="180.635535" style="fill: #1f77b4; stroke: #1f77b4"/>
     <use xlink:href="#mb2b2a2b472" x="353.035636" y="185.017174" style="fill: #1f77b4; stroke: #1f77b4"/>
     <use xlink:href="#mb2b2a2b472" x="354.658909" y="185.017174" style="fill: #1f77b4; stroke: #1f77b4"/>
     <use xlink:href="#mb2b2a2b472" x="356.282182" y="184.752814" style="fill: #1f77b4; stroke: #1f77b4"/>
     <use xlink:href="#mb2b2a2b472" x="357.905455" y="180.635535" style="fill: #1f77b4; stroke: #1f77b4"/>
     <use xlink:href="#mb2b2a2b472" x="359.528727" y="185.017174" style="fill: #1f77b4; stroke: #1f77b4"/>
     <use xlink:href="#mb2b2a2b472" x="361.152" y="185.017174" style="fill: #1f77b4; stroke: #1f77b4"/>
     <use xlink:href="#mb2b2a2b472" x="362.775273" y="185.017174" style="fill: #1f77b4; stroke: #1f77b4"/>
     <use xlink:href="#mb2b2a2b472" x="364.398545" y="185.166229" style="fill: #1f77b4; stroke: #1f77b4"/>
     <use xlink:href="#mb2b2a2b472" x="366.021818" y="185.298409" style="fill: #1f77b4; stroke: #1f77b4"/>
     <use xlink:href="#mb2b2a2b472" x="367.645091" y="185.017174" style="fill: #1f77b4; stroke: #1f77b4"/>
     <use xlink:href="#mb2b2a2b472" x="369.268364" y="176.535131" style="fill: #1f77b4; stroke: #1f77b4"/>
     <use xlink:href="#mb2b2a2b472" x="370.891636" y="180.635535" style="fill: #1f77b4; stroke: #1f77b4"/>
     <use xlink:href="#mb2b2a2b472" x="372.514909" y="185.017174" style="fill: #1f77b4; stroke: #1f77b4"/>
     <use xlink:href="#mb2b2a2b472" x="374.138182" y="185.017174" style="fill: #1f77b4; stroke: #1f77b4"/>
     <use xlink:href="#mb2b2a2b472" x="375.761455" y="185.298409" style="fill: #1f77b4; stroke: #1f77b4"/>
     <use xlink:href="#mb2b2a2b472" x="377.384727" y="185.298409" style="fill: #1f77b4; stroke: #1f77b4"/>
     <use xlink:href="#mb2b2a2b472" x="379.008" y="180.635535" style="fill: #1f77b4; stroke: #1f77b4"/>
     <use xlink:href="#mb2b2a2b472" x="380.631273" y="180.635535" style="fill: #1f77b4; stroke: #1f77b4"/>
     <use xlink:href="#mb2b2a2b472" x="382.254545" y="180.635535" style="fill: #1f77b4; stroke: #1f77b4"/>
     <use xlink:href="#mb2b2a2b472" x="383.877818" y="185.579644" style="fill: #1f77b4; stroke: #1f77b4"/>
     <use xlink:href="#mb2b2a2b472" x="385.501091" y="180.635535" style="fill: #1f77b4; stroke: #1f77b4"/>
     <use xlink:href="#mb2b2a2b472" x="387.124364" y="185.298409" style="fill: #1f77b4; stroke: #1f77b4"/>
     <use xlink:href="#mb2b2a2b472" x="388.747636" y="185.017174" style="fill: #1f77b4; stroke: #1f77b4"/>
     <use xlink:href="#mb2b2a2b472" x="390.370909" y="171.872257" style="fill: #1f77b4; stroke: #1f77b4"/>
     <use xlink:href="#mb2b2a2b472" x="391.994182" y="176.253896" style="fill: #1f77b4; stroke: #1f77b4"/>
     <use xlink:href="#mb2b2a2b472" x="393.617455" y="185.298409" style="fill: #1f77b4; stroke: #1f77b4"/>
     <use xlink:href="#mb2b2a2b472" x="395.240727" y="167.490618" style="fill: #1f77b4; stroke: #1f77b4"/>
     <use xlink:href="#mb2b2a2b472" x="396.864" y="185.298409" style="fill: #1f77b4; stroke: #1f77b4"/>
     <use xlink:href="#mb2b2a2b472" x="398.487273" y="53.568" style="fill: #1f77b4; stroke: #1f77b4"/>
    </g>
   </g>
   <g id="patch_3">
    <path d="M 57.6 307.584 
L 57.6 41.472 
" style="fill: none; stroke: #000000; stroke-width: 0.8; stroke-linejoin: miter; stroke-linecap: square"/>
   </g>
   <g id="patch_4">
    <path d="M 414.72 307.584 
L 414.72 41.472 
" style="fill: none; stroke: #000000; stroke-width: 0.8; stroke-linejoin: miter; stroke-linecap: square"/>
   </g>
   <g id="patch_5">
    <path d="M 57.6 307.584 
L 414.72 307.584 
" style="fill: none; stroke: #000000; stroke-width: 0.8; stroke-linejoin: miter; stroke-linecap: square"/>
   </g>
   <g id="patch_6">
    <path d="M 57.6 41.472 
L 414.72 41.472 
" style="fill: none; stroke: #000000; stroke-width: 0.8; stroke-linejoin: miter; stroke-linecap: square"/>
   </g>
   <g id="text_49">
    <!-- Mean Test Accuracy (with 95% Confidence  -->
    <g transform="translate(67.257656 19.685688) scale(0.14 -0.14)">
     <defs>
      <path id="DejaVuSans-Bold-4d" d="M 588 4666 
L 2119 4666 
L 3181 2169 
L 4250 4666 
L 5778 4666 
L 5778 0 
L 4641 0 
L 4641 3413 
L 3566 897 
L 2803 897 
L 1728 3413 
L 1728 0 
L 588 0 
L 588 4666 
z
" transform="scale(0.015625)"/>
      <path id="DejaVuSans-Bold-65" d="M 4031 1759 
L 4031 1441 
L 1416 1441 
Q 1456 1047 1700 850 
Q 1944 653 2381 653 
Q 2734 653 3104 758 
Q 3475 863 3866 1075 
L 3866 213 
Q 3469 63 3072 -14 
Q 2675 -91 2278 -91 
Q 1328 -91 801 392 
Q 275 875 275 1747 
Q 275 2603 792 3093 
Q 1309 3584 2216 3584 
Q 3041 3584 3536 3087 
Q 4031 2591 4031 1759 
z
M 2881 2131 
Q 2881 2450 2695 2645 
Q 2509 2841 2209 2841 
Q 1884 2841 1681 2658 
Q 1478 2475 1428 2131 
L 2881 2131 
z
" transform="scale(0.015625)"/>
      <path id="DejaVuSans-Bold-61" d="M 2106 1575 
Q 1756 1575 1579 1456 
Q 1403 1338 1403 1106 
Q 1403 894 1545 773 
Q 1688 653 1941 653 
Q 2256 653 2472 879 
Q 2688 1106 2688 1447 
L 2688 1575 
L 2106 1575 
z
M 3816 1997 
L 3816 0 
L 2688 0 
L 2688 519 
Q 2463 200 2181 54 
Q 1900 -91 1497 -91 
Q 953 -91 614 226 
Q 275 544 275 1050 
Q 275 1666 698 1953 
Q 1122 2241 2028 2241 
L 2688 2241 
L 2688 2328 
Q 2688 2594 2478 2717 
Q 2269 2841 1825 2841 
Q 1466 2841 1156 2769 
Q 847 2697 581 2553 
L 581 3406 
Q 941 3494 1303 3539 
Q 1666 3584 2028 3584 
Q 2975 3584 3395 3211 
Q 3816 2838 3816 1997 
z
" transform="scale(0.015625)"/>
      <path id="DejaVuSans-Bold-6e" d="M 4056 2131 
L 4056 0 
L 2931 0 
L 2931 347 
L 2931 1631 
Q 2931 2084 2911 2256 
Q 2891 2428 2841 2509 
Q 2775 2619 2662 2680 
Q 2550 2741 2406 2741 
Q 2056 2741 1856 2470 
Q 1656 2200 1656 1722 
L 1656 0 
L 538 0 
L 538 3500 
L 1656 3500 
L 1656 2988 
Q 1909 3294 2193 3439 
Q 2478 3584 2822 3584 
Q 3428 3584 3742 3212 
Q 4056 2841 4056 2131 
z
" transform="scale(0.015625)"/>
      <path id="DejaVuSans-Bold-20" transform="scale(0.015625)"/>
      <path id="DejaVuSans-Bold-54" d="M 31 4666 
L 4331 4666 
L 4331 3756 
L 2784 3756 
L 2784 0 
L 1581 0 
L 1581 3756 
L 31 3756 
L 31 4666 
z
" transform="scale(0.015625)"/>
      <path id="DejaVuSans-Bold-73" d="M 3272 3391 
L 3272 2541 
Q 2913 2691 2578 2766 
Q 2244 2841 1947 2841 
Q 1628 2841 1473 2761 
Q 1319 2681 1319 2516 
Q 1319 2381 1436 2309 
Q 1553 2238 1856 2203 
L 2053 2175 
Q 2913 2066 3209 1816 
Q 3506 1566 3506 1031 
Q 3506 472 3093 190 
Q 2681 -91 1863 -91 
Q 1516 -91 1145 -36 
Q 775 19 384 128 
L 384 978 
Q 719 816 1070 734 
Q 1422 653 1784 653 
Q 2113 653 2278 743 
Q 2444 834 2444 1013 
Q 2444 1163 2330 1236 
Q 2216 1309 1875 1350 
L 1678 1375 
Q 931 1469 631 1722 
Q 331 1975 331 2491 
Q 331 3047 712 3315 
Q 1094 3584 1881 3584 
Q 2191 3584 2531 3537 
Q 2872 3491 3272 3391 
z
" transform="scale(0.015625)"/>
      <path id="DejaVuSans-Bold-74" d="M 1759 4494 
L 1759 3500 
L 2913 3500 
L 2913 2700 
L 1759 2700 
L 1759 1216 
Q 1759 972 1856 886 
Q 1953 800 2241 800 
L 2816 800 
L 2816 0 
L 1856 0 
Q 1194 0 917 276 
Q 641 553 641 1216 
L 641 2700 
L 84 2700 
L 84 3500 
L 641 3500 
L 641 4494 
L 1759 4494 
z
" transform="scale(0.015625)"/>
      <path id="DejaVuSans-Bold-41" d="M 3419 850 
L 1538 850 
L 1241 0 
L 31 0 
L 1759 4666 
L 3194 4666 
L 4922 0 
L 3713 0 
L 3419 850 
z
M 1838 1716 
L 3116 1716 
L 2478 3572 
L 1838 1716 
z
" transform="scale(0.015625)"/>
      <path id="DejaVuSans-Bold-63" d="M 3366 3391 
L 3366 2478 
Q 3138 2634 2908 2709 
Q 2678 2784 2431 2784 
Q 1963 2784 1702 2511 
Q 1441 2238 1441 1747 
Q 1441 1256 1702 982 
Q 1963 709 2431 709 
Q 2694 709 2930 787 
Q 3166 866 3366 1019 
L 3366 103 
Q 3103 6 2833 -42 
Q 2563 -91 2291 -91 
Q 1344 -91 809 395 
Q 275 881 275 1747 
Q 275 2613 809 3098 
Q 1344 3584 2291 3584 
Q 2566 3584 2833 3536 
Q 3100 3488 3366 3391 
z
" transform="scale(0.015625)"/>
      <path id="DejaVuSans-Bold-75" d="M 500 1363 
L 500 3500 
L 1625 3500 
L 1625 3150 
Q 1625 2866 1622 2436 
Q 1619 2006 1619 1863 
Q 1619 1441 1641 1255 
Q 1663 1069 1716 984 
Q 1784 875 1895 815 
Q 2006 756 2150 756 
Q 2500 756 2700 1025 
Q 2900 1294 2900 1772 
L 2900 3500 
L 4019 3500 
L 4019 0 
L 2900 0 
L 2900 506 
Q 2647 200 2364 54 
Q 2081 -91 1741 -91 
Q 1134 -91 817 281 
Q 500 653 500 1363 
z
" transform="scale(0.015625)"/>
      <path id="DejaVuSans-Bold-72" d="M 3138 2547 
Q 2991 2616 2845 2648 
Q 2700 2681 2553 2681 
Q 2122 2681 1889 2404 
Q 1656 2128 1656 1613 
L 1656 0 
L 538 0 
L 538 3500 
L 1656 3500 
L 1656 2925 
Q 1872 3269 2151 3426 
Q 2431 3584 2822 3584 
Q 2878 3584 2943 3579 
Q 3009 3575 3134 3559 
L 3138 2547 
z
" transform="scale(0.015625)"/>
      <path id="DejaVuSans-Bold-79" d="M 78 3500 
L 1197 3500 
L 2138 1125 
L 2938 3500 
L 4056 3500 
L 2584 -331 
Q 2363 -916 2067 -1148 
Q 1772 -1381 1288 -1381 
L 641 -1381 
L 641 -647 
L 991 -647 
Q 1275 -647 1404 -556 
Q 1534 -466 1606 -231 
L 1638 -134 
L 78 3500 
z
" transform="scale(0.015625)"/>
      <path id="DejaVuSans-Bold-28" d="M 2413 -844 
L 1484 -844 
Q 1006 -72 778 623 
Q 550 1319 550 2003 
Q 550 2688 779 3389 
Q 1009 4091 1484 4856 
L 2413 4856 
Q 2013 4116 1813 3408 
Q 1613 2700 1613 2009 
Q 1613 1319 1811 609 
Q 2009 -100 2413 -844 
z
" transform="scale(0.015625)"/>
      <path id="DejaVuSans-Bold-77" d="M 225 3500 
L 1313 3500 
L 1900 1088 
L 2491 3500 
L 3425 3500 
L 4013 1113 
L 4603 3500 
L 5691 3500 
L 4769 0 
L 3547 0 
L 2956 2406 
L 2369 0 
L 1147 0 
L 225 3500 
z
" transform="scale(0.015625)"/>
      <path id="DejaVuSans-Bold-69" d="M 538 3500 
L 1656 3500 
L 1656 0 
L 538 0 
L 538 3500 
z
M 538 4863 
L 1656 4863 
L 1656 3950 
L 538 3950 
L 538 4863 
z
" transform="scale(0.015625)"/>
      <path id="DejaVuSans-Bold-68" d="M 4056 2131 
L 4056 0 
L 2931 0 
L 2931 347 
L 2931 1625 
Q 2931 2084 2911 2256 
Q 2891 2428 2841 2509 
Q 2775 2619 2662 2680 
Q 2550 2741 2406 2741 
Q 2056 2741 1856 2470 
Q 1656 2200 1656 1722 
L 1656 0 
L 538 0 
L 538 4863 
L 1656 4863 
L 1656 2988 
Q 1909 3294 2193 3439 
Q 2478 3584 2822 3584 
Q 3428 3584 3742 3212 
Q 4056 2841 4056 2131 
z
" transform="scale(0.015625)"/>
      <path id="DejaVuSans-Bold-39" d="M 641 103 
L 641 966 
Q 928 831 1190 764 
Q 1453 697 1709 697 
Q 2247 697 2547 995 
Q 2847 1294 2900 1881 
Q 2688 1725 2447 1647 
Q 2206 1569 1925 1569 
Q 1209 1569 770 1986 
Q 331 2403 331 3084 
Q 331 3838 820 4291 
Q 1309 4744 2131 4744 
Q 3044 4744 3544 4128 
Q 4044 3513 4044 2388 
Q 4044 1231 3459 570 
Q 2875 -91 1856 -91 
Q 1528 -91 1228 -42 
Q 928 6 641 103 
z
M 2125 2350 
Q 2441 2350 2600 2554 
Q 2759 2759 2759 3169 
Q 2759 3575 2600 3781 
Q 2441 3988 2125 3988 
Q 1809 3988 1650 3781 
Q 1491 3575 1491 3169 
Q 1491 2759 1650 2554 
Q 1809 2350 2125 2350 
z
" transform="scale(0.015625)"/>
      <path id="DejaVuSans-Bold-35" d="M 678 4666 
L 3669 4666 
L 3669 3781 
L 1638 3781 
L 1638 3059 
Q 1775 3097 1914 3117 
Q 2053 3138 2203 3138 
Q 3056 3138 3531 2711 
Q 4006 2284 4006 1522 
Q 4006 766 3489 337 
Q 2972 -91 2053 -91 
Q 1656 -91 1267 -14 
Q 878 63 494 219 
L 494 1166 
Q 875 947 1217 837 
Q 1559 728 1863 728 
Q 2300 728 2551 942 
Q 2803 1156 2803 1522 
Q 2803 1891 2551 2103 
Q 2300 2316 1863 2316 
Q 1603 2316 1309 2248 
Q 1016 2181 678 2041 
L 678 4666 
z
" transform="scale(0.015625)"/>
      <path id="DejaVuSans-Bold-25" d="M 4959 1925 
Q 4738 1925 4616 1733 
Q 4494 1541 4494 1184 
Q 4494 825 4614 633 
Q 4734 441 4959 441 
Q 5184 441 5303 633 
Q 5422 825 5422 1184 
Q 5422 1541 5301 1733 
Q 5181 1925 4959 1925 
z
M 4959 2450 
Q 5541 2450 5875 2112 
Q 6209 1775 6209 1184 
Q 6209 594 5875 251 
Q 5541 -91 4959 -91 
Q 4378 -91 4042 251 
Q 3706 594 3706 1184 
Q 3706 1772 4042 2111 
Q 4378 2450 4959 2450 
z
M 2094 -91 
L 1403 -91 
L 4319 4750 
L 5013 4750 
L 2094 -91 
z
M 1453 4750 
Q 2034 4750 2367 4411 
Q 2700 4072 2700 3481 
Q 2700 2891 2367 2550 
Q 2034 2209 1453 2209 
Q 872 2209 539 2550 
Q 206 2891 206 3481 
Q 206 4072 539 4411 
Q 872 4750 1453 4750 
z
M 1453 4225 
Q 1228 4225 1106 4031 
Q 984 3838 984 3481 
Q 984 3122 1106 2926 
Q 1228 2731 1453 2731 
Q 1678 2731 1798 2926 
Q 1919 3122 1919 3481 
Q 1919 3838 1797 4031 
Q 1675 4225 1453 4225 
z
" transform="scale(0.015625)"/>
      <path id="DejaVuSans-Bold-43" d="M 4288 256 
Q 3956 84 3597 -3 
Q 3238 -91 2847 -91 
Q 1681 -91 1000 561 
Q 319 1213 319 2328 
Q 319 3447 1000 4098 
Q 1681 4750 2847 4750 
Q 3238 4750 3597 4662 
Q 3956 4575 4288 4403 
L 4288 3438 
Q 3953 3666 3628 3772 
Q 3303 3878 2944 3878 
Q 2300 3878 1931 3465 
Q 1563 3053 1563 2328 
Q 1563 1606 1931 1193 
Q 2300 781 2944 781 
Q 3303 781 3628 887 
Q 3953 994 4288 1222 
L 4288 256 
z
" transform="scale(0.015625)"/>
      <path id="DejaVuSans-Bold-6f" d="M 2203 2784 
Q 1831 2784 1636 2517 
Q 1441 2250 1441 1747 
Q 1441 1244 1636 976 
Q 1831 709 2203 709 
Q 2569 709 2762 976 
Q 2956 1244 2956 1747 
Q 2956 2250 2762 2517 
Q 2569 2784 2203 2784 
z
M 2203 3584 
Q 3106 3584 3614 3096 
Q 4122 2609 4122 1747 
Q 4122 884 3614 396 
Q 3106 -91 2203 -91 
Q 1297 -91 786 396 
Q 275 884 275 1747 
Q 275 2609 786 3096 
Q 1297 3584 2203 3584 
z
" transform="scale(0.015625)"/>
      <path id="DejaVuSans-Bold-66" d="M 2841 4863 
L 2841 4128 
L 2222 4128 
Q 1984 4128 1890 4042 
Q 1797 3956 1797 3744 
L 1797 3500 
L 2753 3500 
L 2753 2700 
L 1797 2700 
L 1797 0 
L 678 0 
L 678 2700 
L 122 2700 
L 122 3500 
L 678 3500 
L 678 3744 
Q 678 4316 997 4589 
Q 1316 4863 1984 4863 
L 2841 4863 
z
" transform="scale(0.015625)"/>
      <path id="DejaVuSans-Bold-64" d="M 2919 2988 
L 2919 4863 
L 4044 4863 
L 4044 0 
L 2919 0 
L 2919 506 
Q 2688 197 2409 53 
Q 2131 -91 1766 -91 
Q 1119 -91 703 423 
Q 288 938 288 1747 
Q 288 2556 703 3070 
Q 1119 3584 1766 3584 
Q 2128 3584 2408 3439 
Q 2688 3294 2919 2988 
z
M 2181 722 
Q 2541 722 2730 984 
Q 2919 1247 2919 1747 
Q 2919 2247 2730 2509 
Q 2541 2772 2181 2772 
Q 1825 2772 1636 2509 
Q 1447 2247 1447 1747 
Q 1447 1247 1636 984 
Q 1825 722 2181 722 
z
" transform="scale(0.015625)"/>
     </defs>
     <use xlink:href="#DejaVuSans-Bold-4d"/>
     <use xlink:href="#DejaVuSans-Bold-65" x="99.511719"/>
     <use xlink:href="#DejaVuSans-Bold-61" x="167.333984"/>
     <use xlink:href="#DejaVuSans-Bold-6e" x="234.814453"/>
     <use xlink:href="#DejaVuSans-Bold-20" x="306.005859"/>
     <use xlink:href="#DejaVuSans-Bold-54" x="340.820312"/>
     <use xlink:href="#DejaVuSans-Bold-65" x="395.783203"/>
     <use xlink:href="#DejaVuSans-Bold-73" x="463.605469"/>
     <use xlink:href="#DejaVuSans-Bold-74" x="523.126953"/>
     <use xlink:href="#DejaVuSans-Bold-20" x="570.929688"/>
     <use xlink:href="#DejaVuSans-Bold-41" x="605.744141"/>
     <use xlink:href="#DejaVuSans-Bold-63" x="683.136719"/>
     <use xlink:href="#DejaVuSans-Bold-63" x="742.414062"/>
     <use xlink:href="#DejaVuSans-Bold-75" x="801.691406"/>
     <use xlink:href="#DejaVuSans-Bold-72" x="872.882812"/>
     <use xlink:href="#DejaVuSans-Bold-61" x="922.199219"/>
     <use xlink:href="#DejaVuSans-Bold-63" x="989.679688"/>
     <use xlink:href="#DejaVuSans-Bold-79" x="1048.957031"/>
     <use xlink:href="#DejaVuSans-Bold-20" x="1114.142578"/>
     <use xlink:href="#DejaVuSans-Bold-28" x="1148.957031"/>
     <use xlink:href="#DejaVuSans-Bold-77" x="1194.660156"/>
     <use xlink:href="#DejaVuSans-Bold-69" x="1287.042969"/>
     <use xlink:href="#DejaVuSans-Bold-74" x="1321.320312"/>
     <use xlink:href="#DejaVuSans-Bold-68" x="1369.123047"/>
     <use xlink:href="#DejaVuSans-Bold-20" x="1440.314453"/>
     <use xlink:href="#DejaVuSans-Bold-39" x="1475.128906"/>
     <use xlink:href="#DejaVuSans-Bold-35" x="1544.708984"/>
     <use xlink:href="#DejaVuSans-Bold-25" x="1614.289062"/>
     <use xlink:href="#DejaVuSans-Bold-20" x="1714.484375"/>
     <use xlink:href="#DejaVuSans-Bold-43" x="1749.298828"/>
     <use xlink:href="#DejaVuSans-Bold-6f" x="1822.6875"/>
     <use xlink:href="#DejaVuSans-Bold-6e" x="1891.388672"/>
     <use xlink:href="#DejaVuSans-Bold-66" x="1962.580078"/>
     <use xlink:href="#DejaVuSans-Bold-69" x="2006.085938"/>
     <use xlink:href="#DejaVuSans-Bold-64" x="2040.363281"/>
     <use xlink:href="#DejaVuSans-Bold-65" x="2111.945312"/>
     <use xlink:href="#DejaVuSans-Bold-6e" x="2179.767578"/>
     <use xlink:href="#DejaVuSans-Bold-63" x="2250.958984"/>
     <use xlink:href="#DejaVuSans-Bold-65" x="2310.236328"/>
     <use xlink:href="#DejaVuSans-Bold-20" x="2378.058594"/>
    </g>
    <!-- Interval) over Generations -->
    <g transform="translate(131.590937 35.472) scale(0.14 -0.14)">
     <defs>
      <path id="DejaVuSans-Bold-49" d="M 588 4666 
L 1791 4666 
L 1791 0 
L 588 0 
L 588 4666 
z
" transform="scale(0.015625)"/>
      <path id="DejaVuSans-Bold-76" d="M 97 3500 
L 1216 3500 
L 2088 1081 
L 2956 3500 
L 4078 3500 
L 2700 0 
L 1472 0 
L 97 3500 
z
" transform="scale(0.015625)"/>
      <path id="DejaVuSans-Bold-6c" d="M 538 4863 
L 1656 4863 
L 1656 0 
L 538 0 
L 538 4863 
z
" transform="scale(0.015625)"/>
      <path id="DejaVuSans-Bold-29" d="M 513 -844 
Q 913 -100 1113 609 
Q 1313 1319 1313 2009 
Q 1313 2700 1113 3408 
Q 913 4116 513 4856 
L 1441 4856 
Q 1916 4091 2145 3389 
Q 2375 2688 2375 2003 
Q 2375 1319 2147 623 
Q 1919 -72 1441 -844 
L 513 -844 
z
" transform="scale(0.015625)"/>
      <path id="DejaVuSans-Bold-47" d="M 4781 347 
Q 4331 128 3847 18 
Q 3363 -91 2847 -91 
Q 1681 -91 1000 561 
Q 319 1213 319 2328 
Q 319 3456 1012 4103 
Q 1706 4750 2913 4750 
Q 3378 4750 3804 4662 
Q 4231 4575 4609 4403 
L 4609 3438 
Q 4219 3659 3833 3768 
Q 3447 3878 3059 3878 
Q 2341 3878 1952 3476 
Q 1563 3075 1563 2328 
Q 1563 1588 1938 1184 
Q 2313 781 3003 781 
Q 3191 781 3352 804 
Q 3513 828 3641 878 
L 3641 1784 
L 2906 1784 
L 2906 2591 
L 4781 2591 
L 4781 347 
z
" transform="scale(0.015625)"/>
     </defs>
     <use xlink:href="#DejaVuSans-Bold-49"/>
     <use xlink:href="#DejaVuSans-Bold-6e" x="37.207031"/>
     <use xlink:href="#DejaVuSans-Bold-74" x="108.398438"/>
     <use xlink:href="#DejaVuSans-Bold-65" x="156.201172"/>
     <use xlink:href="#DejaVuSans-Bold-72" x="224.023438"/>
     <use xlink:href="#DejaVuSans-Bold-76" x="273.339844"/>
     <use xlink:href="#DejaVuSans-Bold-61" x="338.525391"/>
     <use xlink:href="#DejaVuSans-Bold-6c" x="406.005859"/>
     <use xlink:href="#DejaVuSans-Bold-29" x="440.283203"/>
     <use xlink:href="#DejaVuSans-Bold-20" x="485.986328"/>
     <use xlink:href="#DejaVuSans-Bold-6f" x="520.800781"/>
     <use xlink:href="#DejaVuSans-Bold-76" x="589.501953"/>
     <use xlink:href="#DejaVuSans-Bold-65" x="654.6875"/>
     <use xlink:href="#DejaVuSans-Bold-72" x="722.509766"/>
     <use xlink:href="#DejaVuSans-Bold-20" x="771.826172"/>
     <use xlink:href="#DejaVuSans-Bold-47" x="806.640625"/>
     <use xlink:href="#DejaVuSans-Bold-65" x="888.720703"/>
     <use xlink:href="#DejaVuSans-Bold-6e" x="956.542969"/>
     <use xlink:href="#DejaVuSans-Bold-65" x="1027.734375"/>
     <use xlink:href="#DejaVuSans-Bold-72" x="1095.556641"/>
     <use xlink:href="#DejaVuSans-Bold-61" x="1144.873047"/>
     <use xlink:href="#DejaVuSans-Bold-74" x="1212.353516"/>
     <use xlink:href="#DejaVuSans-Bold-69" x="1260.15625"/>
     <use xlink:href="#DejaVuSans-Bold-6f" x="1294.433594"/>
     <use xlink:href="#DejaVuSans-Bold-6e" x="1363.134766"/>
     <use xlink:href="#DejaVuSans-Bold-73" x="1434.326172"/>
    </g>
   </g>
  </g>
 </g>
 <defs>
  <clipPath id="p831504de36">
   <rect x="57.6" y="41.472" width="357.12" height="266.112"/>
  </clipPath>
 </defs>
</svg>
