<?xml version="1.0" encoding="utf-8" standalone="no"?>
<!DOCTYPE svg PUBLIC "-//W3C//DTD SVG 1.1//EN"
  "http://www.w3.org/Graphics/SVG/1.1/DTD/svg11.dtd">
<svg xmlns:xlink="http://www.w3.org/1999/xlink" width="460.8pt" height="345.6pt" viewBox="0 0 460.8 345.6" xmlns="http://www.w3.org/2000/svg" version="1.1">
 <metadata>
  <rdf:RDF xmlns:dc="http://purl.org/dc/elements/1.1/" xmlns:cc="http://creativecommons.org/ns#" xmlns:rdf="http://www.w3.org/1999/02/22-rdf-syntax-ns#">
   <cc:Work>
    <dc:type rdf:resource="http://purl.org/dc/dcmitype/StillImage"/>
    <dc:date>2023-05-03T17:36:48.831747</dc:date>
    <dc:format>image/svg+xml</dc:format>
    <dc:creator>
     <cc:Agent>
      <dc:title>Matplotlib v3.7.1, https://matplotlib.org/</dc:title>
     </cc:Agent>
    </dc:creator>
   </cc:Work>
  </rdf:RDF>
 </metadata>
 <defs>
  <style type="text/css">*{stroke-linejoin: round; stroke-linecap: butt}</style>
 </defs>
 <g id="figure_1">
  <g id="patch_1">
   <path d="M 0 345.6 
L 460.8 345.6 
L 460.8 0 
L 0 0 
z
" style="fill: #ffffff"/>
  </g>
  <g id="axes_1">
   <g id="patch_2">
    <path d="M 57.6 307.584 
L 414.72 307.584 
L 414.72 41.472 
L 57.6 41.472 
z
" style="fill: #ffffff"/>
   </g>
   <g id="PolyCollection_1">
    <path d="M 73.832727 236.061401 
L 73.832727 293.956248 
L 77.079273 295.488 
L 80.325818 281.027181 
L 83.572364 274.282742 
L 86.818909 276.885306 
L 90.065455 274.467898 
L 93.312 255.133183 
L 96.558545 237.053118 
L 99.805091 223.147229 
L 103.051636 242.915506 
L 106.298182 235.781495 
L 109.544727 234.494107 
L 112.791273 224.455285 
L 116.037818 226.68418 
L 119.284364 201.736802 
L 122.530909 195.272403 
L 125.777455 196.225704 
L 129.024 192.398068 
L 132.270545 196.209164 
L 135.517091 185.484882 
L 138.763636 179.477049 
L 142.010182 174.358523 
L 145.256727 178.633505 
L 148.503273 181.274497 
L 151.749818 180.77458 
L 154.996364 184.785435 
L 158.242909 185.970926 
L 161.489455 177.244327 
L 164.736 170.995535 
L 167.982545 166.251576 
L 171.229091 169.729527 
L 174.475636 169.596025 
L 177.722182 180.965044 
L 180.968727 175.69704 
L 184.215273 177.777991 
L 187.461818 168.884298 
L 190.708364 188.17861 
L 193.954909 180.595785 
L 197.201455 174.528304 
L 200.448 175.704517 
L 203.694545 173.726185 
L 206.941091 174.617797 
L 210.187636 171.179705 
L 213.434182 183.773961 
L 216.680727 197.898549 
L 219.927273 174.701982 
L 223.173818 191.969627 
L 226.420364 200.55028 
L 229.666909 183.1455 
L 232.913455 211.96322 
L 236.16 212.817983 
L 239.406545 198.98364 
L 242.653091 209.710588 
L 245.899636 209.190657 
L 249.146182 217.17114 
L 252.392727 213.01993 
L 255.639273 209.840629 
L 258.885818 215.55123 
L 262.132364 214.287828 
L 265.378909 215.267639 
L 268.625455 214.294098 
L 271.872 212.032771 
L 275.118545 211.604776 
L 278.365091 216.06239 
L 281.611636 216.888463 
L 284.858182 216.968827 
L 288.104727 214.427486 
L 291.351273 218.036987 
L 294.597818 216.965267 
L 297.844364 214.829408 
L 301.090909 218.966885 
L 304.337455 218.129638 
L 307.584 219.115402 
L 310.830545 215.635025 
L 314.077091 216.297739 
L 317.323636 218.347003 
L 320.570182 214.698798 
L 323.816727 217.973792 
L 327.063273 214.698798 
L 330.309818 217.973792 
L 333.556364 214.720491 
L 336.802909 215.290311 
L 340.049455 215.125707 
L 343.296 213.551354 
L 346.542545 216.03004 
L 349.789091 211.370831 
L 353.035636 217.097013 
L 356.282182 213.047176 
L 359.528727 213.047176 
L 362.775273 213.493912 
L 366.021818 217.47395 
L 369.268364 216.683265 
L 372.514909 216.12618 
L 375.761455 214.206573 
L 379.008 215.717037 
L 382.254545 216.91141 
L 385.501091 219.695786 
L 388.747636 217.32124 
L 391.994182 219.904853 
L 395.240727 218.930226 
L 398.487273 65.597543 
L 398.487273 53.568 
L 398.487273 53.568 
L 395.240727 187.524702 
L 391.994182 196.725749 
L 388.747636 189.726315 
L 385.501091 196.577893 
L 382.254545 186.418758 
L 379.008 199.371389 
L 375.761455 177.823277 
L 372.514909 209.158123 
L 369.268364 199.374914 
L 366.021818 195.540281 
L 362.775273 210.01251 
L 359.528727 209.785807 
L 356.282182 209.785807 
L 353.035636 195.243779 
L 349.789091 173.399338 
L 346.542545 185.818561 
L 343.296 181.077973 
L 340.049455 201.121035 
L 336.802909 185.204676 
L 333.556364 210.25403 
L 330.309818 195.835098 
L 327.063273 178.125711 
L 323.816727 195.835098 
L 320.570182 178.125711 
L 317.323636 196.135327 
L 314.077091 210.912602 
L 310.830545 178.751864 
L 307.584 196.612791 
L 304.337455 210.185143 
L 301.090909 196.498667 
L 297.844364 210.239394 
L 294.597818 186.445714 
L 291.351273 195.866185 
L 288.104727 209.967876 
L 284.858182 195.089119 
L 281.611636 197.391835 
L 278.365091 185.826617 
L 275.118545 172.707454 
L 271.872 172.454554 
L 268.625455 209.724138 
L 265.378909 178.44581 
L 262.132364 209.737143 
L 258.885818 181.462074 
L 255.639273 167.205186 
L 252.392727 173.608932 
L 249.146182 179.869101 
L 245.899636 164.710195 
L 242.653091 163.947826 
L 239.406545 145.312802 
L 236.16 169.191083 
L 232.913455 170.34216 
L 229.666909 125.930044 
L 226.420364 149.941808 
L 223.173818 136.312419 
L 219.927273 115.342156 
L 216.680727 146.276673 
L 213.434182 125.597897 
L 210.187636 112.278192 
L 206.941091 115.251247 
L 203.694545 114.028258 
L 200.448 116.184846 
L 197.201455 114.404658 
L 193.954909 114.047947 
L 190.708364 123.873538 
L 187.461818 111.394964 
L 184.215273 118.54934 
L 180.968727 119.047707 
L 177.722182 122.157293 
L 174.475636 111.868491 
L 171.229091 114.704858 
L 167.982545 108.848935 
L 164.736 112.253597 
L 161.489455 121.170667 
L 158.242909 128.862528 
L 154.996364 128.014231 
L 151.749818 124.974173 
L 148.503273 128.986301 
L 145.256727 127.674202 
L 142.010182 122.480622 
L 138.763636 133.336086 
L 135.517091 139.537715 
L 132.270545 148.531749 
L 129.024 146.564731 
L 125.777455 150.353699 
L 122.530909 151.711063 
L 119.284364 162.176939 
L 116.037818 161.204015 
L 112.791273 158.550472 
L 109.544727 168.378122 
L 106.298182 170.498339 
L 103.051636 177.526766 
L 99.805091 182.331212 
L 96.558545 193.396468 
L 93.312 205.553846 
L 90.065455 209.742381 
L 86.818909 206.611126 
L 83.572364 205.038364 
L 80.325818 216.954939 
L 77.079273 235.155947 
L 73.832727 236.061401 
z
" clip-path="url(#pb3b2a57917)" style="fill: #1f77b4; fill-opacity: 0.2"/>
   </g>
   <g id="matplotlib.axis_1">
    <g id="xtick_1">
     <g id="line2d_1">
      <defs>
       <path id="m01f6a9ab9b" d="M 0 0 
L 0 3.5 
" style="stroke: #000000; stroke-width: 0.8"/>
      </defs>
      <g>
       <use xlink:href="#m01f6a9ab9b" x="73.832727" y="307.584" style="stroke: #000000; stroke-width: 0.8"/>
      </g>
     </g>
     <g id="text_1">
      <!-- 0 -->
      <g transform="translate(70.651477 322.182437) scale(0.1 -0.1)">
       <defs>
        <path id="DejaVuSans-30" d="M 2034 4250 
Q 1547 4250 1301 3770 
Q 1056 3291 1056 2328 
Q 1056 1369 1301 889 
Q 1547 409 2034 409 
Q 2525 409 2770 889 
Q 3016 1369 3016 2328 
Q 3016 3291 2770 3770 
Q 2525 4250 2034 4250 
z
M 2034 4750 
Q 2819 4750 3233 4129 
Q 3647 3509 3647 2328 
Q 3647 1150 3233 529 
Q 2819 -91 2034 -91 
Q 1250 -91 836 529 
Q 422 1150 422 2328 
Q 422 3509 836 4129 
Q 1250 4750 2034 4750 
z
" transform="scale(0.015625)"/>
       </defs>
       <use xlink:href="#DejaVuSans-30"/>
      </g>
     </g>
    </g>
    <g id="xtick_2">
     <g id="line2d_2">
      <g>
       <use xlink:href="#m01f6a9ab9b" x="90.065455" y="307.584" style="stroke: #000000; stroke-width: 0.8"/>
      </g>
     </g>
     <g id="text_2">
      <!-- 5 -->
      <g transform="translate(86.884205 322.182437) scale(0.1 -0.1)">
       <defs>
        <path id="DejaVuSans-35" d="M 691 4666 
L 3169 4666 
L 3169 4134 
L 1269 4134 
L 1269 2991 
Q 1406 3038 1543 3061 
Q 1681 3084 1819 3084 
Q 2600 3084 3056 2656 
Q 3513 2228 3513 1497 
Q 3513 744 3044 326 
Q 2575 -91 1722 -91 
Q 1428 -91 1123 -41 
Q 819 9 494 109 
L 494 744 
Q 775 591 1075 516 
Q 1375 441 1709 441 
Q 2250 441 2565 725 
Q 2881 1009 2881 1497 
Q 2881 1984 2565 2268 
Q 2250 2553 1709 2553 
Q 1456 2553 1204 2497 
Q 953 2441 691 2322 
L 691 4666 
z
" transform="scale(0.015625)"/>
       </defs>
       <use xlink:href="#DejaVuSans-35"/>
      </g>
     </g>
    </g>
    <g id="xtick_3">
     <g id="line2d_3">
      <g>
       <use xlink:href="#m01f6a9ab9b" x="106.298182" y="307.584" style="stroke: #000000; stroke-width: 0.8"/>
      </g>
     </g>
     <g id="text_3">
      <!-- 10 -->
      <g transform="translate(99.935682 322.182437) scale(0.1 -0.1)">
       <defs>
        <path id="DejaVuSans-31" d="M 794 531 
L 1825 531 
L 1825 4091 
L 703 3866 
L 703 4441 
L 1819 4666 
L 2450 4666 
L 2450 531 
L 3481 531 
L 3481 0 
L 794 0 
L 794 531 
z
" transform="scale(0.015625)"/>
       </defs>
       <use xlink:href="#DejaVuSans-31"/>
       <use xlink:href="#DejaVuSans-30" x="63.623047"/>
      </g>
     </g>
    </g>
    <g id="xtick_4">
     <g id="line2d_4">
      <g>
       <use xlink:href="#m01f6a9ab9b" x="122.530909" y="307.584" style="stroke: #000000; stroke-width: 0.8"/>
      </g>
     </g>
     <g id="text_4">
      <!-- 15 -->
      <g transform="translate(116.168409 322.182437) scale(0.1 -0.1)">
       <use xlink:href="#DejaVuSans-31"/>
       <use xlink:href="#DejaVuSans-35" x="63.623047"/>
      </g>
     </g>
    </g>
    <g id="xtick_5">
     <g id="line2d_5">
      <g>
       <use xlink:href="#m01f6a9ab9b" x="138.763636" y="307.584" style="stroke: #000000; stroke-width: 0.8"/>
      </g>
     </g>
     <g id="text_5">
      <!-- 20 -->
      <g transform="translate(132.401136 322.182437) scale(0.1 -0.1)">
       <defs>
        <path id="DejaVuSans-32" d="M 1228 531 
L 3431 531 
L 3431 0 
L 469 0 
L 469 531 
Q 828 903 1448 1529 
Q 2069 2156 2228 2338 
Q 2531 2678 2651 2914 
Q 2772 3150 2772 3378 
Q 2772 3750 2511 3984 
Q 2250 4219 1831 4219 
Q 1534 4219 1204 4116 
Q 875 4013 500 3803 
L 500 4441 
Q 881 4594 1212 4672 
Q 1544 4750 1819 4750 
Q 2544 4750 2975 4387 
Q 3406 4025 3406 3419 
Q 3406 3131 3298 2873 
Q 3191 2616 2906 2266 
Q 2828 2175 2409 1742 
Q 1991 1309 1228 531 
z
" transform="scale(0.015625)"/>
       </defs>
       <use xlink:href="#DejaVuSans-32"/>
       <use xlink:href="#DejaVuSans-30" x="63.623047"/>
      </g>
     </g>
    </g>
    <g id="xtick_6">
     <g id="line2d_6">
      <g>
       <use xlink:href="#m01f6a9ab9b" x="154.996364" y="307.584" style="stroke: #000000; stroke-width: 0.8"/>
      </g>
     </g>
     <g id="text_6">
      <!-- 25 -->
      <g transform="translate(148.633864 322.182437) scale(0.1 -0.1)">
       <use xlink:href="#DejaVuSans-32"/>
       <use xlink:href="#DejaVuSans-35" x="63.623047"/>
      </g>
     </g>
    </g>
    <g id="xtick_7">
     <g id="line2d_7">
      <g>
       <use xlink:href="#m01f6a9ab9b" x="171.229091" y="307.584" style="stroke: #000000; stroke-width: 0.8"/>
      </g>
     </g>
     <g id="text_7">
      <!-- 30 -->
      <g transform="translate(164.866591 322.182437) scale(0.1 -0.1)">
       <defs>
        <path id="DejaVuSans-33" d="M 2597 2516 
Q 3050 2419 3304 2112 
Q 3559 1806 3559 1356 
Q 3559 666 3084 287 
Q 2609 -91 1734 -91 
Q 1441 -91 1130 -33 
Q 819 25 488 141 
L 488 750 
Q 750 597 1062 519 
Q 1375 441 1716 441 
Q 2309 441 2620 675 
Q 2931 909 2931 1356 
Q 2931 1769 2642 2001 
Q 2353 2234 1838 2234 
L 1294 2234 
L 1294 2753 
L 1863 2753 
Q 2328 2753 2575 2939 
Q 2822 3125 2822 3475 
Q 2822 3834 2567 4026 
Q 2313 4219 1838 4219 
Q 1578 4219 1281 4162 
Q 984 4106 628 3988 
L 628 4550 
Q 988 4650 1302 4700 
Q 1616 4750 1894 4750 
Q 2613 4750 3031 4423 
Q 3450 4097 3450 3541 
Q 3450 3153 3228 2886 
Q 3006 2619 2597 2516 
z
" transform="scale(0.015625)"/>
       </defs>
       <use xlink:href="#DejaVuSans-33"/>
       <use xlink:href="#DejaVuSans-30" x="63.623047"/>
      </g>
     </g>
    </g>
    <g id="xtick_8">
     <g id="line2d_8">
      <g>
       <use xlink:href="#m01f6a9ab9b" x="187.461818" y="307.584" style="stroke: #000000; stroke-width: 0.8"/>
      </g>
     </g>
     <g id="text_8">
      <!-- 35 -->
      <g transform="translate(181.099318 322.182437) scale(0.1 -0.1)">
       <use xlink:href="#DejaVuSans-33"/>
       <use xlink:href="#DejaVuSans-35" x="63.623047"/>
      </g>
     </g>
    </g>
    <g id="xtick_9">
     <g id="line2d_9">
      <g>
       <use xlink:href="#m01f6a9ab9b" x="203.694545" y="307.584" style="stroke: #000000; stroke-width: 0.8"/>
      </g>
     </g>
     <g id="text_9">
      <!-- 40 -->
      <g transform="translate(197.332045 322.182437) scale(0.1 -0.1)">
       <defs>
        <path id="DejaVuSans-34" d="M 2419 4116 
L 825 1625 
L 2419 1625 
L 2419 4116 
z
M 2253 4666 
L 3047 4666 
L 3047 1625 
L 3713 1625 
L 3713 1100 
L 3047 1100 
L 3047 0 
L 2419 0 
L 2419 1100 
L 313 1100 
L 313 1709 
L 2253 4666 
z
" transform="scale(0.015625)"/>
       </defs>
       <use xlink:href="#DejaVuSans-34"/>
       <use xlink:href="#DejaVuSans-30" x="63.623047"/>
      </g>
     </g>
    </g>
    <g id="xtick_10">
     <g id="line2d_10">
      <g>
       <use xlink:href="#m01f6a9ab9b" x="219.927273" y="307.584" style="stroke: #000000; stroke-width: 0.8"/>
      </g>
     </g>
     <g id="text_10">
      <!-- 45 -->
      <g transform="translate(213.564773 322.182437) scale(0.1 -0.1)">
       <use xlink:href="#DejaVuSans-34"/>
       <use xlink:href="#DejaVuSans-35" x="63.623047"/>
      </g>
     </g>
    </g>
    <g id="xtick_11">
     <g id="line2d_11">
      <g>
       <use xlink:href="#m01f6a9ab9b" x="236.16" y="307.584" style="stroke: #000000; stroke-width: 0.8"/>
      </g>
     </g>
     <g id="text_11">
      <!-- 50 -->
      <g transform="translate(229.7975 322.182437) scale(0.1 -0.1)">
       <use xlink:href="#DejaVuSans-35"/>
       <use xlink:href="#DejaVuSans-30" x="63.623047"/>
      </g>
     </g>
    </g>
    <g id="xtick_12">
     <g id="line2d_12">
      <g>
       <use xlink:href="#m01f6a9ab9b" x="252.392727" y="307.584" style="stroke: #000000; stroke-width: 0.8"/>
      </g>
     </g>
     <g id="text_12">
      <!-- 55 -->
      <g transform="translate(246.030227 322.182437) scale(0.1 -0.1)">
       <use xlink:href="#DejaVuSans-35"/>
       <use xlink:href="#DejaVuSans-35" x="63.623047"/>
      </g>
     </g>
    </g>
    <g id="xtick_13">
     <g id="line2d_13">
      <g>
       <use xlink:href="#m01f6a9ab9b" x="268.625455" y="307.584" style="stroke: #000000; stroke-width: 0.8"/>
      </g>
     </g>
     <g id="text_13">
      <!-- 60 -->
      <g transform="translate(262.262955 322.182437) scale(0.1 -0.1)">
       <defs>
        <path id="DejaVuSans-36" d="M 2113 2584 
Q 1688 2584 1439 2293 
Q 1191 2003 1191 1497 
Q 1191 994 1439 701 
Q 1688 409 2113 409 
Q 2538 409 2786 701 
Q 3034 994 3034 1497 
Q 3034 2003 2786 2293 
Q 2538 2584 2113 2584 
z
M 3366 4563 
L 3366 3988 
Q 3128 4100 2886 4159 
Q 2644 4219 2406 4219 
Q 1781 4219 1451 3797 
Q 1122 3375 1075 2522 
Q 1259 2794 1537 2939 
Q 1816 3084 2150 3084 
Q 2853 3084 3261 2657 
Q 3669 2231 3669 1497 
Q 3669 778 3244 343 
Q 2819 -91 2113 -91 
Q 1303 -91 875 529 
Q 447 1150 447 2328 
Q 447 3434 972 4092 
Q 1497 4750 2381 4750 
Q 2619 4750 2861 4703 
Q 3103 4656 3366 4563 
z
" transform="scale(0.015625)"/>
       </defs>
       <use xlink:href="#DejaVuSans-36"/>
       <use xlink:href="#DejaVuSans-30" x="63.623047"/>
      </g>
     </g>
    </g>
    <g id="xtick_14">
     <g id="line2d_14">
      <g>
       <use xlink:href="#m01f6a9ab9b" x="284.858182" y="307.584" style="stroke: #000000; stroke-width: 0.8"/>
      </g>
     </g>
     <g id="text_14">
      <!-- 65 -->
      <g transform="translate(278.495682 322.182437) scale(0.1 -0.1)">
       <use xlink:href="#DejaVuSans-36"/>
       <use xlink:href="#DejaVuSans-35" x="63.623047"/>
      </g>
     </g>
    </g>
    <g id="xtick_15">
     <g id="line2d_15">
      <g>
       <use xlink:href="#m01f6a9ab9b" x="301.090909" y="307.584" style="stroke: #000000; stroke-width: 0.8"/>
      </g>
     </g>
     <g id="text_15">
      <!-- 70 -->
      <g transform="translate(294.728409 322.182437) scale(0.1 -0.1)">
       <defs>
        <path id="DejaVuSans-37" d="M 525 4666 
L 3525 4666 
L 3525 4397 
L 1831 0 
L 1172 0 
L 2766 4134 
L 525 4134 
L 525 4666 
z
" transform="scale(0.015625)"/>
       </defs>
       <use xlink:href="#DejaVuSans-37"/>
       <use xlink:href="#DejaVuSans-30" x="63.623047"/>
      </g>
     </g>
    </g>
    <g id="xtick_16">
     <g id="line2d_16">
      <g>
       <use xlink:href="#m01f6a9ab9b" x="317.323636" y="307.584" style="stroke: #000000; stroke-width: 0.8"/>
      </g>
     </g>
     <g id="text_16">
      <!-- 75 -->
      <g transform="translate(310.961136 322.182437) scale(0.1 -0.1)">
       <use xlink:href="#DejaVuSans-37"/>
       <use xlink:href="#DejaVuSans-35" x="63.623047"/>
      </g>
     </g>
    </g>
    <g id="xtick_17">
     <g id="line2d_17">
      <g>
       <use xlink:href="#m01f6a9ab9b" x="333.556364" y="307.584" style="stroke: #000000; stroke-width: 0.8"/>
      </g>
     </g>
     <g id="text_17">
      <!-- 80 -->
      <g transform="translate(327.193864 322.182437) scale(0.1 -0.1)">
       <defs>
        <path id="DejaVuSans-38" d="M 2034 2216 
Q 1584 2216 1326 1975 
Q 1069 1734 1069 1313 
Q 1069 891 1326 650 
Q 1584 409 2034 409 
Q 2484 409 2743 651 
Q 3003 894 3003 1313 
Q 3003 1734 2745 1975 
Q 2488 2216 2034 2216 
z
M 1403 2484 
Q 997 2584 770 2862 
Q 544 3141 544 3541 
Q 544 4100 942 4425 
Q 1341 4750 2034 4750 
Q 2731 4750 3128 4425 
Q 3525 4100 3525 3541 
Q 3525 3141 3298 2862 
Q 3072 2584 2669 2484 
Q 3125 2378 3379 2068 
Q 3634 1759 3634 1313 
Q 3634 634 3220 271 
Q 2806 -91 2034 -91 
Q 1263 -91 848 271 
Q 434 634 434 1313 
Q 434 1759 690 2068 
Q 947 2378 1403 2484 
z
M 1172 3481 
Q 1172 3119 1398 2916 
Q 1625 2713 2034 2713 
Q 2441 2713 2670 2916 
Q 2900 3119 2900 3481 
Q 2900 3844 2670 4047 
Q 2441 4250 2034 4250 
Q 1625 4250 1398 4047 
Q 1172 3844 1172 3481 
z
" transform="scale(0.015625)"/>
       </defs>
       <use xlink:href="#DejaVuSans-38"/>
       <use xlink:href="#DejaVuSans-30" x="63.623047"/>
      </g>
     </g>
    </g>
    <g id="xtick_18">
     <g id="line2d_18">
      <g>
       <use xlink:href="#m01f6a9ab9b" x="349.789091" y="307.584" style="stroke: #000000; stroke-width: 0.8"/>
      </g>
     </g>
     <g id="text_18">
      <!-- 85 -->
      <g transform="translate(343.426591 322.182437) scale(0.1 -0.1)">
       <use xlink:href="#DejaVuSans-38"/>
       <use xlink:href="#DejaVuSans-35" x="63.623047"/>
      </g>
     </g>
    </g>
    <g id="xtick_19">
     <g id="line2d_19">
      <g>
       <use xlink:href="#m01f6a9ab9b" x="366.021818" y="307.584" style="stroke: #000000; stroke-width: 0.8"/>
      </g>
     </g>
     <g id="text_19">
      <!-- 90 -->
      <g transform="translate(359.659318 322.182437) scale(0.1 -0.1)">
       <defs>
        <path id="DejaVuSans-39" d="M 703 97 
L 703 672 
Q 941 559 1184 500 
Q 1428 441 1663 441 
Q 2288 441 2617 861 
Q 2947 1281 2994 2138 
Q 2813 1869 2534 1725 
Q 2256 1581 1919 1581 
Q 1219 1581 811 2004 
Q 403 2428 403 3163 
Q 403 3881 828 4315 
Q 1253 4750 1959 4750 
Q 2769 4750 3195 4129 
Q 3622 3509 3622 2328 
Q 3622 1225 3098 567 
Q 2575 -91 1691 -91 
Q 1453 -91 1209 -44 
Q 966 3 703 97 
z
M 1959 2075 
Q 2384 2075 2632 2365 
Q 2881 2656 2881 3163 
Q 2881 3666 2632 3958 
Q 2384 4250 1959 4250 
Q 1534 4250 1286 3958 
Q 1038 3666 1038 3163 
Q 1038 2656 1286 2365 
Q 1534 2075 1959 2075 
z
" transform="scale(0.015625)"/>
       </defs>
       <use xlink:href="#DejaVuSans-39"/>
       <use xlink:href="#DejaVuSans-30" x="63.623047"/>
      </g>
     </g>
    </g>
    <g id="xtick_20">
     <g id="line2d_20">
      <g>
       <use xlink:href="#m01f6a9ab9b" x="382.254545" y="307.584" style="stroke: #000000; stroke-width: 0.8"/>
      </g>
     </g>
     <g id="text_20">
      <!-- 95 -->
      <g transform="translate(375.892045 322.182437) scale(0.1 -0.1)">
       <use xlink:href="#DejaVuSans-39"/>
       <use xlink:href="#DejaVuSans-35" x="63.623047"/>
      </g>
     </g>
    </g>
    <g id="xtick_21">
     <g id="line2d_21">
      <g>
       <use xlink:href="#m01f6a9ab9b" x="398.487273" y="307.584" style="stroke: #000000; stroke-width: 0.8"/>
      </g>
     </g>
     <g id="text_21">
      <!-- 100 -->
      <g transform="translate(388.943523 322.182437) scale(0.1 -0.1)">
       <use xlink:href="#DejaVuSans-31"/>
       <use xlink:href="#DejaVuSans-30" x="63.623047"/>
       <use xlink:href="#DejaVuSans-30" x="127.246094"/>
      </g>
     </g>
    </g>
    <g id="text_22">
     <!-- Generation -->
     <g transform="translate(197.109844 338.899937) scale(0.14 -0.14)">
      <defs>
       <path id="DejaVuSans-47" d="M 3809 666 
L 3809 1919 
L 2778 1919 
L 2778 2438 
L 4434 2438 
L 4434 434 
Q 4069 175 3628 42 
Q 3188 -91 2688 -91 
Q 1594 -91 976 548 
Q 359 1188 359 2328 
Q 359 3472 976 4111 
Q 1594 4750 2688 4750 
Q 3144 4750 3555 4637 
Q 3966 4525 4313 4306 
L 4313 3634 
Q 3963 3931 3569 4081 
Q 3175 4231 2741 4231 
Q 1884 4231 1454 3753 
Q 1025 3275 1025 2328 
Q 1025 1384 1454 906 
Q 1884 428 2741 428 
Q 3075 428 3337 486 
Q 3600 544 3809 666 
z
" transform="scale(0.015625)"/>
       <path id="DejaVuSans-65" d="M 3597 1894 
L 3597 1613 
L 953 1613 
Q 991 1019 1311 708 
Q 1631 397 2203 397 
Q 2534 397 2845 478 
Q 3156 559 3463 722 
L 3463 178 
Q 3153 47 2828 -22 
Q 2503 -91 2169 -91 
Q 1331 -91 842 396 
Q 353 884 353 1716 
Q 353 2575 817 3079 
Q 1281 3584 2069 3584 
Q 2775 3584 3186 3129 
Q 3597 2675 3597 1894 
z
M 3022 2063 
Q 3016 2534 2758 2815 
Q 2500 3097 2075 3097 
Q 1594 3097 1305 2825 
Q 1016 2553 972 2059 
L 3022 2063 
z
" transform="scale(0.015625)"/>
       <path id="DejaVuSans-6e" d="M 3513 2113 
L 3513 0 
L 2938 0 
L 2938 2094 
Q 2938 2591 2744 2837 
Q 2550 3084 2163 3084 
Q 1697 3084 1428 2787 
Q 1159 2491 1159 1978 
L 1159 0 
L 581 0 
L 581 3500 
L 1159 3500 
L 1159 2956 
Q 1366 3272 1645 3428 
Q 1925 3584 2291 3584 
Q 2894 3584 3203 3211 
Q 3513 2838 3513 2113 
z
" transform="scale(0.015625)"/>
       <path id="DejaVuSans-72" d="M 2631 2963 
Q 2534 3019 2420 3045 
Q 2306 3072 2169 3072 
Q 1681 3072 1420 2755 
Q 1159 2438 1159 1844 
L 1159 0 
L 581 0 
L 581 3500 
L 1159 3500 
L 1159 2956 
Q 1341 3275 1631 3429 
Q 1922 3584 2338 3584 
Q 2397 3584 2469 3576 
Q 2541 3569 2628 3553 
L 2631 2963 
z
" transform="scale(0.015625)"/>
       <path id="DejaVuSans-61" d="M 2194 1759 
Q 1497 1759 1228 1600 
Q 959 1441 959 1056 
Q 959 750 1161 570 
Q 1363 391 1709 391 
Q 2188 391 2477 730 
Q 2766 1069 2766 1631 
L 2766 1759 
L 2194 1759 
z
M 3341 1997 
L 3341 0 
L 2766 0 
L 2766 531 
Q 2569 213 2275 61 
Q 1981 -91 1556 -91 
Q 1019 -91 701 211 
Q 384 513 384 1019 
Q 384 1609 779 1909 
Q 1175 2209 1959 2209 
L 2766 2209 
L 2766 2266 
Q 2766 2663 2505 2880 
Q 2244 3097 1772 3097 
Q 1472 3097 1187 3025 
Q 903 2953 641 2809 
L 641 3341 
Q 956 3463 1253 3523 
Q 1550 3584 1831 3584 
Q 2591 3584 2966 3190 
Q 3341 2797 3341 1997 
z
" transform="scale(0.015625)"/>
       <path id="DejaVuSans-74" d="M 1172 4494 
L 1172 3500 
L 2356 3500 
L 2356 3053 
L 1172 3053 
L 1172 1153 
Q 1172 725 1289 603 
Q 1406 481 1766 481 
L 2356 481 
L 2356 0 
L 1766 0 
Q 1100 0 847 248 
Q 594 497 594 1153 
L 594 3053 
L 172 3053 
L 172 3500 
L 594 3500 
L 594 4494 
L 1172 4494 
z
" transform="scale(0.015625)"/>
       <path id="DejaVuSans-69" d="M 603 3500 
L 1178 3500 
L 1178 0 
L 603 0 
L 603 3500 
z
M 603 4863 
L 1178 4863 
L 1178 4134 
L 603 4134 
L 603 4863 
z
" transform="scale(0.015625)"/>
       <path id="DejaVuSans-6f" d="M 1959 3097 
Q 1497 3097 1228 2736 
Q 959 2375 959 1747 
Q 959 1119 1226 758 
Q 1494 397 1959 397 
Q 2419 397 2687 759 
Q 2956 1122 2956 1747 
Q 2956 2369 2687 2733 
Q 2419 3097 1959 3097 
z
M 1959 3584 
Q 2709 3584 3137 3096 
Q 3566 2609 3566 1747 
Q 3566 888 3137 398 
Q 2709 -91 1959 -91 
Q 1206 -91 779 398 
Q 353 888 353 1747 
Q 353 2609 779 3096 
Q 1206 3584 1959 3584 
z
" transform="scale(0.015625)"/>
      </defs>
      <use xlink:href="#DejaVuSans-47"/>
      <use xlink:href="#DejaVuSans-65" x="77.490234"/>
      <use xlink:href="#DejaVuSans-6e" x="139.013672"/>
      <use xlink:href="#DejaVuSans-65" x="202.392578"/>
      <use xlink:href="#DejaVuSans-72" x="263.916016"/>
      <use xlink:href="#DejaVuSans-61" x="305.029297"/>
      <use xlink:href="#DejaVuSans-74" x="366.308594"/>
      <use xlink:href="#DejaVuSans-69" x="405.517578"/>
      <use xlink:href="#DejaVuSans-6f" x="433.300781"/>
      <use xlink:href="#DejaVuSans-6e" x="494.482422"/>
     </g>
    </g>
   </g>
   <g id="matplotlib.axis_2">
    <g id="ytick_1">
     <g id="line2d_22">
      <defs>
       <path id="m57d51375cf" d="M 0 0 
L -3.5 0 
" style="stroke: #000000; stroke-width: 0.8"/>
      </defs>
      <g>
       <use xlink:href="#m57d51375cf" x="57.6" y="295.609925" style="stroke: #000000; stroke-width: 0.8"/>
      </g>
     </g>
     <g id="text_23">
      <!-- 69.5 -->
      <g transform="translate(28.334375 299.409144) scale(0.1 -0.1)">
       <defs>
        <path id="DejaVuSans-2e" d="M 684 794 
L 1344 794 
L 1344 0 
L 684 0 
L 684 794 
z
" transform="scale(0.015625)"/>
       </defs>
       <use xlink:href="#DejaVuSans-36"/>
       <use xlink:href="#DejaVuSans-39" x="63.623047"/>
       <use xlink:href="#DejaVuSans-2e" x="127.246094"/>
       <use xlink:href="#DejaVuSans-35" x="159.033203"/>
      </g>
     </g>
    </g>
    <g id="ytick_2">
     <g id="line2d_23">
      <g>
       <use xlink:href="#m57d51375cf" x="57.6" y="265.305138" style="stroke: #000000; stroke-width: 0.8"/>
      </g>
     </g>
     <g id="text_24">
      <!-- 70.0 -->
      <g transform="translate(28.334375 269.104356) scale(0.1 -0.1)">
       <use xlink:href="#DejaVuSans-37"/>
       <use xlink:href="#DejaVuSans-30" x="63.623047"/>
       <use xlink:href="#DejaVuSans-2e" x="127.246094"/>
       <use xlink:href="#DejaVuSans-30" x="159.033203"/>
      </g>
     </g>
    </g>
    <g id="ytick_3">
     <g id="line2d_24">
      <g>
       <use xlink:href="#m57d51375cf" x="57.6" y="235.00035" style="stroke: #000000; stroke-width: 0.8"/>
      </g>
     </g>
     <g id="text_25">
      <!-- 70.5 -->
      <g transform="translate(28.334375 238.799569) scale(0.1 -0.1)">
       <use xlink:href="#DejaVuSans-37"/>
       <use xlink:href="#DejaVuSans-30" x="63.623047"/>
       <use xlink:href="#DejaVuSans-2e" x="127.246094"/>
       <use xlink:href="#DejaVuSans-35" x="159.033203"/>
      </g>
     </g>
    </g>
    <g id="ytick_4">
     <g id="line2d_25">
      <g>
       <use xlink:href="#m57d51375cf" x="57.6" y="204.695563" style="stroke: #000000; stroke-width: 0.8"/>
      </g>
     </g>
     <g id="text_26">
      <!-- 71.0 -->
      <g transform="translate(28.334375 208.494782) scale(0.1 -0.1)">
       <use xlink:href="#DejaVuSans-37"/>
       <use xlink:href="#DejaVuSans-31" x="63.623047"/>
       <use xlink:href="#DejaVuSans-2e" x="127.246094"/>
       <use xlink:href="#DejaVuSans-30" x="159.033203"/>
      </g>
     </g>
    </g>
    <g id="ytick_5">
     <g id="line2d_26">
      <g>
       <use xlink:href="#m57d51375cf" x="57.6" y="174.390775" style="stroke: #000000; stroke-width: 0.8"/>
      </g>
     </g>
     <g id="text_27">
      <!-- 71.5 -->
      <g transform="translate(28.334375 178.189994) scale(0.1 -0.1)">
       <use xlink:href="#DejaVuSans-37"/>
       <use xlink:href="#DejaVuSans-31" x="63.623047"/>
       <use xlink:href="#DejaVuSans-2e" x="127.246094"/>
       <use xlink:href="#DejaVuSans-35" x="159.033203"/>
      </g>
     </g>
    </g>
    <g id="ytick_6">
     <g id="line2d_27">
      <g>
       <use xlink:href="#m57d51375cf" x="57.6" y="144.085988" style="stroke: #000000; stroke-width: 0.8"/>
      </g>
     </g>
     <g id="text_28">
      <!-- 72.0 -->
      <g transform="translate(28.334375 147.885207) scale(0.1 -0.1)">
       <use xlink:href="#DejaVuSans-37"/>
       <use xlink:href="#DejaVuSans-32" x="63.623047"/>
       <use xlink:href="#DejaVuSans-2e" x="127.246094"/>
       <use xlink:href="#DejaVuSans-30" x="159.033203"/>
      </g>
     </g>
    </g>
    <g id="ytick_7">
     <g id="line2d_28">
      <g>
       <use xlink:href="#m57d51375cf" x="57.6" y="113.7812" style="stroke: #000000; stroke-width: 0.8"/>
      </g>
     </g>
     <g id="text_29">
      <!-- 72.5 -->
      <g transform="translate(28.334375 117.580419) scale(0.1 -0.1)">
       <use xlink:href="#DejaVuSans-37"/>
       <use xlink:href="#DejaVuSans-32" x="63.623047"/>
       <use xlink:href="#DejaVuSans-2e" x="127.246094"/>
       <use xlink:href="#DejaVuSans-35" x="159.033203"/>
      </g>
     </g>
    </g>
    <g id="ytick_8">
     <g id="line2d_29">
      <g>
       <use xlink:href="#m57d51375cf" x="57.6" y="83.476413" style="stroke: #000000; stroke-width: 0.8"/>
      </g>
     </g>
     <g id="text_30">
      <!-- 73.0 -->
      <g transform="translate(28.334375 87.275632) scale(0.1 -0.1)">
       <use xlink:href="#DejaVuSans-37"/>
       <use xlink:href="#DejaVuSans-33" x="63.623047"/>
       <use xlink:href="#DejaVuSans-2e" x="127.246094"/>
       <use xlink:href="#DejaVuSans-30" x="159.033203"/>
      </g>
     </g>
    </g>
    <g id="ytick_9">
     <g id="line2d_30">
      <g>
       <use xlink:href="#m57d51375cf" x="57.6" y="53.171625" style="stroke: #000000; stroke-width: 0.8"/>
      </g>
     </g>
     <g id="text_31">
      <!-- 73.5 -->
      <g transform="translate(28.334375 56.970844) scale(0.1 -0.1)">
       <use xlink:href="#DejaVuSans-37"/>
       <use xlink:href="#DejaVuSans-33" x="63.623047"/>
       <use xlink:href="#DejaVuSans-2e" x="127.246094"/>
       <use xlink:href="#DejaVuSans-35" x="159.033203"/>
      </g>
     </g>
    </g>
    <g id="text_32">
     <!-- Test Accuracy -->
     <g transform="translate(21.422812 222.4955) rotate(-90) scale(0.14 -0.14)">
      <defs>
       <path id="DejaVuSans-54" d="M -19 4666 
L 3928 4666 
L 3928 4134 
L 2272 4134 
L 2272 0 
L 1638 0 
L 1638 4134 
L -19 4134 
L -19 4666 
z
" transform="scale(0.015625)"/>
       <path id="DejaVuSans-73" d="M 2834 3397 
L 2834 2853 
Q 2591 2978 2328 3040 
Q 2066 3103 1784 3103 
Q 1356 3103 1142 2972 
Q 928 2841 928 2578 
Q 928 2378 1081 2264 
Q 1234 2150 1697 2047 
L 1894 2003 
Q 2506 1872 2764 1633 
Q 3022 1394 3022 966 
Q 3022 478 2636 193 
Q 2250 -91 1575 -91 
Q 1294 -91 989 -36 
Q 684 19 347 128 
L 347 722 
Q 666 556 975 473 
Q 1284 391 1588 391 
Q 1994 391 2212 530 
Q 2431 669 2431 922 
Q 2431 1156 2273 1281 
Q 2116 1406 1581 1522 
L 1381 1569 
Q 847 1681 609 1914 
Q 372 2147 372 2553 
Q 372 3047 722 3315 
Q 1072 3584 1716 3584 
Q 2034 3584 2315 3537 
Q 2597 3491 2834 3397 
z
" transform="scale(0.015625)"/>
       <path id="DejaVuSans-20" transform="scale(0.015625)"/>
       <path id="DejaVuSans-41" d="M 2188 4044 
L 1331 1722 
L 3047 1722 
L 2188 4044 
z
M 1831 4666 
L 2547 4666 
L 4325 0 
L 3669 0 
L 3244 1197 
L 1141 1197 
L 716 0 
L 50 0 
L 1831 4666 
z
" transform="scale(0.015625)"/>
       <path id="DejaVuSans-63" d="M 3122 3366 
L 3122 2828 
Q 2878 2963 2633 3030 
Q 2388 3097 2138 3097 
Q 1578 3097 1268 2742 
Q 959 2388 959 1747 
Q 959 1106 1268 751 
Q 1578 397 2138 397 
Q 2388 397 2633 464 
Q 2878 531 3122 666 
L 3122 134 
Q 2881 22 2623 -34 
Q 2366 -91 2075 -91 
Q 1284 -91 818 406 
Q 353 903 353 1747 
Q 353 2603 823 3093 
Q 1294 3584 2113 3584 
Q 2378 3584 2631 3529 
Q 2884 3475 3122 3366 
z
" transform="scale(0.015625)"/>
       <path id="DejaVuSans-75" d="M 544 1381 
L 544 3500 
L 1119 3500 
L 1119 1403 
Q 1119 906 1312 657 
Q 1506 409 1894 409 
Q 2359 409 2629 706 
Q 2900 1003 2900 1516 
L 2900 3500 
L 3475 3500 
L 3475 0 
L 2900 0 
L 2900 538 
Q 2691 219 2414 64 
Q 2138 -91 1772 -91 
Q 1169 -91 856 284 
Q 544 659 544 1381 
z
M 1991 3584 
L 1991 3584 
z
" transform="scale(0.015625)"/>
       <path id="DejaVuSans-79" d="M 2059 -325 
Q 1816 -950 1584 -1140 
Q 1353 -1331 966 -1331 
L 506 -1331 
L 506 -850 
L 844 -850 
Q 1081 -850 1212 -737 
Q 1344 -625 1503 -206 
L 1606 56 
L 191 3500 
L 800 3500 
L 1894 763 
L 2988 3500 
L 3597 3500 
L 2059 -325 
z
" transform="scale(0.015625)"/>
      </defs>
      <use xlink:href="#DejaVuSans-54"/>
      <use xlink:href="#DejaVuSans-65" x="44.083984"/>
      <use xlink:href="#DejaVuSans-73" x="105.607422"/>
      <use xlink:href="#DejaVuSans-74" x="157.707031"/>
      <use xlink:href="#DejaVuSans-20" x="196.916016"/>
      <use xlink:href="#DejaVuSans-41" x="228.703125"/>
      <use xlink:href="#DejaVuSans-63" x="295.361328"/>
      <use xlink:href="#DejaVuSans-63" x="350.341797"/>
      <use xlink:href="#DejaVuSans-75" x="405.322266"/>
      <use xlink:href="#DejaVuSans-72" x="468.701172"/>
      <use xlink:href="#DejaVuSans-61" x="509.814453"/>
      <use xlink:href="#DejaVuSans-63" x="571.09375"/>
      <use xlink:href="#DejaVuSans-79" x="626.074219"/>
     </g>
    </g>
   </g>
   <g id="line2d_31">
    <path d="M 73.832727 265.008824 
L 77.079273 265.321974 
L 80.325818 248.99106 
L 83.572364 239.660553 
L 86.818909 241.748216 
L 90.065455 242.105139 
L 93.312 230.343515 
L 96.558545 215.224793 
L 99.805091 202.73922 
L 103.051636 210.221136 
L 106.298182 203.139917 
L 109.544727 201.436115 
L 112.791273 191.502879 
L 116.037818 193.944098 
L 119.284364 181.956871 
L 122.530909 173.491733 
L 125.777455 173.289701 
L 129.024 169.4814 
L 132.270545 172.370456 
L 135.517091 162.511299 
L 138.763636 156.406568 
L 142.010182 148.419572 
L 145.256727 153.153854 
L 148.503273 155.130399 
L 151.749818 152.874376 
L 154.996364 156.399833 
L 158.242909 157.416727 
L 161.489455 149.207497 
L 164.736 141.624566 
L 167.982545 137.550255 
L 171.229091 142.217193 
L 174.475636 140.732258 
L 177.722182 151.561169 
L 180.968727 147.372374 
L 184.215273 148.163665 
L 187.461818 140.139631 
L 190.708364 156.026074 
L 193.954909 147.321866 
L 197.201455 144.466481 
L 200.448 145.944681 
L 203.694545 143.877222 
L 206.941091 144.934522 
L 210.187636 141.728949 
L 213.434182 154.685929 
L 216.680727 172.087611 
L 219.927273 145.022069 
L 223.173818 164.141023 
L 226.420364 175.246044 
L 229.666909 154.537772 
L 232.913455 191.15269 
L 236.16 191.004533 
L 239.406545 172.148221 
L 242.653091 186.829207 
L 245.899636 186.950426 
L 249.146182 198.520121 
L 252.392727 193.314431 
L 255.639273 188.522908 
L 258.885818 198.506652 
L 262.132364 212.012485 
L 265.378909 196.856724 
L 268.625455 212.009118 
L 271.872 192.243662 
L 275.118545 192.156115 
L 278.365091 200.944504 
L 281.611636 207.140149 
L 284.858182 206.028973 
L 288.104727 212.197681 
L 291.351273 206.951586 
L 294.597818 201.70549 
L 297.844364 212.534401 
L 301.090909 207.732776 
L 304.337455 214.157391 
L 307.584 207.864097 
L 310.830545 197.193444 
L 314.077091 213.60517 
L 317.323636 207.241165 
L 320.570182 196.412254 
L 323.816727 206.904445 
L 327.063273 196.412254 
L 330.309818 206.904445 
L 333.556364 212.48726 
L 336.802909 200.247493 
L 340.049455 208.123371 
L 343.296 197.314663 
L 346.542545 200.9243 
L 349.789091 192.385085 
L 353.035636 206.170396 
L 356.282182 211.416491 
L 359.528727 211.416491 
L 362.775273 211.753211 
L 366.021818 206.507116 
L 369.268364 208.029089 
L 372.514909 212.642151 
L 375.761455 196.014925 
L 379.008 207.544213 
L 382.254545 201.665084 
L 385.501091 208.13684 
L 388.747636 203.523778 
L 391.994182 208.315301 
L 395.240727 203.227464 
L 398.487273 59.582772 
" clip-path="url(#pb3b2a57917)" style="fill: none; stroke: #1f77b4; stroke-linecap: square"/>
    <defs>
     <path id="m128dc55adb" d="M 0 2.5 
C 0.663008 2.5 1.29895 2.236584 1.767767 1.767767 
C 2.236584 1.29895 2.5 0.663008 2.5 0 
C 2.5 -0.663008 2.236584 -1.29895 1.767767 -1.767767 
C 1.29895 -2.236584 0.663008 -2.5 0 -2.5 
C -0.663008 -2.5 -1.29895 -2.236584 -1.767767 -1.767767 
C -2.236584 -1.29895 -2.5 -0.663008 -2.5 0 
C -2.5 0.663008 -2.236584 1.29895 -1.767767 1.767767 
C -1.29895 2.236584 -0.663008 2.5 0 2.5 
z
" style="stroke: #1f77b4"/>
    </defs>
    <g clip-path="url(#pb3b2a57917)">
     <use xlink:href="#m128dc55adb" x="73.832727" y="265.008824" style="fill: #1f77b4; stroke: #1f77b4"/>
     <use xlink:href="#m128dc55adb" x="77.079273" y="265.321974" style="fill: #1f77b4; stroke: #1f77b4"/>
     <use xlink:href="#m128dc55adb" x="80.325818" y="248.99106" style="fill: #1f77b4; stroke: #1f77b4"/>
     <use xlink:href="#m128dc55adb" x="83.572364" y="239.660553" style="fill: #1f77b4; stroke: #1f77b4"/>
     <use xlink:href="#m128dc55adb" x="86.818909" y="241.748216" style="fill: #1f77b4; stroke: #1f77b4"/>
     <use xlink:href="#m128dc55adb" x="90.065455" y="242.105139" style="fill: #1f77b4; stroke: #1f77b4"/>
     <use xlink:href="#m128dc55adb" x="93.312" y="230.343515" style="fill: #1f77b4; stroke: #1f77b4"/>
     <use xlink:href="#m128dc55adb" x="96.558545" y="215.224793" style="fill: #1f77b4; stroke: #1f77b4"/>
     <use xlink:href="#m128dc55adb" x="99.805091" y="202.73922" style="fill: #1f77b4; stroke: #1f77b4"/>
     <use xlink:href="#m128dc55adb" x="103.051636" y="210.221136" style="fill: #1f77b4; stroke: #1f77b4"/>
     <use xlink:href="#m128dc55adb" x="106.298182" y="203.139917" style="fill: #1f77b4; stroke: #1f77b4"/>
     <use xlink:href="#m128dc55adb" x="109.544727" y="201.436115" style="fill: #1f77b4; stroke: #1f77b4"/>
     <use xlink:href="#m128dc55adb" x="112.791273" y="191.502879" style="fill: #1f77b4; stroke: #1f77b4"/>
     <use xlink:href="#m128dc55adb" x="116.037818" y="193.944098" style="fill: #1f77b4; stroke: #1f77b4"/>
     <use xlink:href="#m128dc55adb" x="119.284364" y="181.956871" style="fill: #1f77b4; stroke: #1f77b4"/>
     <use xlink:href="#m128dc55adb" x="122.530909" y="173.491733" style="fill: #1f77b4; stroke: #1f77b4"/>
     <use xlink:href="#m128dc55adb" x="125.777455" y="173.289701" style="fill: #1f77b4; stroke: #1f77b4"/>
     <use xlink:href="#m128dc55adb" x="129.024" y="169.4814" style="fill: #1f77b4; stroke: #1f77b4"/>
     <use xlink:href="#m128dc55adb" x="132.270545" y="172.370456" style="fill: #1f77b4; stroke: #1f77b4"/>
     <use xlink:href="#m128dc55adb" x="135.517091" y="162.511299" style="fill: #1f77b4; stroke: #1f77b4"/>
     <use xlink:href="#m128dc55adb" x="138.763636" y="156.406568" style="fill: #1f77b4; stroke: #1f77b4"/>
     <use xlink:href="#m128dc55adb" x="142.010182" y="148.419572" style="fill: #1f77b4; stroke: #1f77b4"/>
     <use xlink:href="#m128dc55adb" x="145.256727" y="153.153854" style="fill: #1f77b4; stroke: #1f77b4"/>
     <use xlink:href="#m128dc55adb" x="148.503273" y="155.130399" style="fill: #1f77b4; stroke: #1f77b4"/>
     <use xlink:href="#m128dc55adb" x="151.749818" y="152.874376" style="fill: #1f77b4; stroke: #1f77b4"/>
     <use xlink:href="#m128dc55adb" x="154.996364" y="156.399833" style="fill: #1f77b4; stroke: #1f77b4"/>
     <use xlink:href="#m128dc55adb" x="158.242909" y="157.416727" style="fill: #1f77b4; stroke: #1f77b4"/>
     <use xlink:href="#m128dc55adb" x="161.489455" y="149.207497" style="fill: #1f77b4; stroke: #1f77b4"/>
     <use xlink:href="#m128dc55adb" x="164.736" y="141.624566" style="fill: #1f77b4; stroke: #1f77b4"/>
     <use xlink:href="#m128dc55adb" x="167.982545" y="137.550255" style="fill: #1f77b4; stroke: #1f77b4"/>
     <use xlink:href="#m128dc55adb" x="171.229091" y="142.217193" style="fill: #1f77b4; stroke: #1f77b4"/>
     <use xlink:href="#m128dc55adb" x="174.475636" y="140.732258" style="fill: #1f77b4; stroke: #1f77b4"/>
     <use xlink:href="#m128dc55adb" x="177.722182" y="151.561169" style="fill: #1f77b4; stroke: #1f77b4"/>
     <use xlink:href="#m128dc55adb" x="180.968727" y="147.372374" style="fill: #1f77b4; stroke: #1f77b4"/>
     <use xlink:href="#m128dc55adb" x="184.215273" y="148.163665" style="fill: #1f77b4; stroke: #1f77b4"/>
     <use xlink:href="#m128dc55adb" x="187.461818" y="140.139631" style="fill: #1f77b4; stroke: #1f77b4"/>
     <use xlink:href="#m128dc55adb" x="190.708364" y="156.026074" style="fill: #1f77b4; stroke: #1f77b4"/>
     <use xlink:href="#m128dc55adb" x="193.954909" y="147.321866" style="fill: #1f77b4; stroke: #1f77b4"/>
     <use xlink:href="#m128dc55adb" x="197.201455" y="144.466481" style="fill: #1f77b4; stroke: #1f77b4"/>
     <use xlink:href="#m128dc55adb" x="200.448" y="145.944681" style="fill: #1f77b4; stroke: #1f77b4"/>
     <use xlink:href="#m128dc55adb" x="203.694545" y="143.877222" style="fill: #1f77b4; stroke: #1f77b4"/>
     <use xlink:href="#m128dc55adb" x="206.941091" y="144.934522" style="fill: #1f77b4; stroke: #1f77b4"/>
     <use xlink:href="#m128dc55adb" x="210.187636" y="141.728949" style="fill: #1f77b4; stroke: #1f77b4"/>
     <use xlink:href="#m128dc55adb" x="213.434182" y="154.685929" style="fill: #1f77b4; stroke: #1f77b4"/>
     <use xlink:href="#m128dc55adb" x="216.680727" y="172.087611" style="fill: #1f77b4; stroke: #1f77b4"/>
     <use xlink:href="#m128dc55adb" x="219.927273" y="145.022069" style="fill: #1f77b4; stroke: #1f77b4"/>
     <use xlink:href="#m128dc55adb" x="223.173818" y="164.141023" style="fill: #1f77b4; stroke: #1f77b4"/>
     <use xlink:href="#m128dc55adb" x="226.420364" y="175.246044" style="fill: #1f77b4; stroke: #1f77b4"/>
     <use xlink:href="#m128dc55adb" x="229.666909" y="154.537772" style="fill: #1f77b4; stroke: #1f77b4"/>
     <use xlink:href="#m128dc55adb" x="232.913455" y="191.15269" style="fill: #1f77b4; stroke: #1f77b4"/>
     <use xlink:href="#m128dc55adb" x="236.16" y="191.004533" style="fill: #1f77b4; stroke: #1f77b4"/>
     <use xlink:href="#m128dc55adb" x="239.406545" y="172.148221" style="fill: #1f77b4; stroke: #1f77b4"/>
     <use xlink:href="#m128dc55adb" x="242.653091" y="186.829207" style="fill: #1f77b4; stroke: #1f77b4"/>
     <use xlink:href="#m128dc55adb" x="245.899636" y="186.950426" style="fill: #1f77b4; stroke: #1f77b4"/>
     <use xlink:href="#m128dc55adb" x="249.146182" y="198.520121" style="fill: #1f77b4; stroke: #1f77b4"/>
     <use xlink:href="#m128dc55adb" x="252.392727" y="193.314431" style="fill: #1f77b4; stroke: #1f77b4"/>
     <use xlink:href="#m128dc55adb" x="255.639273" y="188.522908" style="fill: #1f77b4; stroke: #1f77b4"/>
     <use xlink:href="#m128dc55adb" x="258.885818" y="198.506652" style="fill: #1f77b4; stroke: #1f77b4"/>
     <use xlink:href="#m128dc55adb" x="262.132364" y="212.012485" style="fill: #1f77b4; stroke: #1f77b4"/>
     <use xlink:href="#m128dc55adb" x="265.378909" y="196.856724" style="fill: #1f77b4; stroke: #1f77b4"/>
     <use xlink:href="#m128dc55adb" x="268.625455" y="212.009118" style="fill: #1f77b4; stroke: #1f77b4"/>
     <use xlink:href="#m128dc55adb" x="271.872" y="192.243662" style="fill: #1f77b4; stroke: #1f77b4"/>
     <use xlink:href="#m128dc55adb" x="275.118545" y="192.156115" style="fill: #1f77b4; stroke: #1f77b4"/>
     <use xlink:href="#m128dc55adb" x="278.365091" y="200.944504" style="fill: #1f77b4; stroke: #1f77b4"/>
     <use xlink:href="#m128dc55adb" x="281.611636" y="207.140149" style="fill: #1f77b4; stroke: #1f77b4"/>
     <use xlink:href="#m128dc55adb" x="284.858182" y="206.028973" style="fill: #1f77b4; stroke: #1f77b4"/>
     <use xlink:href="#m128dc55adb" x="288.104727" y="212.197681" style="fill: #1f77b4; stroke: #1f77b4"/>
     <use xlink:href="#m128dc55adb" x="291.351273" y="206.951586" style="fill: #1f77b4; stroke: #1f77b4"/>
     <use xlink:href="#m128dc55adb" x="294.597818" y="201.70549" style="fill: #1f77b4; stroke: #1f77b4"/>
     <use xlink:href="#m128dc55adb" x="297.844364" y="212.534401" style="fill: #1f77b4; stroke: #1f77b4"/>
     <use xlink:href="#m128dc55adb" x="301.090909" y="207.732776" style="fill: #1f77b4; stroke: #1f77b4"/>
     <use xlink:href="#m128dc55adb" x="304.337455" y="214.157391" style="fill: #1f77b4; stroke: #1f77b4"/>
     <use xlink:href="#m128dc55adb" x="307.584" y="207.864097" style="fill: #1f77b4; stroke: #1f77b4"/>
     <use xlink:href="#m128dc55adb" x="310.830545" y="197.193444" style="fill: #1f77b4; stroke: #1f77b4"/>
     <use xlink:href="#m128dc55adb" x="314.077091" y="213.60517" style="fill: #1f77b4; stroke: #1f77b4"/>
     <use xlink:href="#m128dc55adb" x="317.323636" y="207.241165" style="fill: #1f77b4; stroke: #1f77b4"/>
     <use xlink:href="#m128dc55adb" x="320.570182" y="196.412254" style="fill: #1f77b4; stroke: #1f77b4"/>
     <use xlink:href="#m128dc55adb" x="323.816727" y="206.904445" style="fill: #1f77b4; stroke: #1f77b4"/>
     <use xlink:href="#m128dc55adb" x="327.063273" y="196.412254" style="fill: #1f77b4; stroke: #1f77b4"/>
     <use xlink:href="#m128dc55adb" x="330.309818" y="206.904445" style="fill: #1f77b4; stroke: #1f77b4"/>
     <use xlink:href="#m128dc55adb" x="333.556364" y="212.48726" style="fill: #1f77b4; stroke: #1f77b4"/>
     <use xlink:href="#m128dc55adb" x="336.802909" y="200.247493" style="fill: #1f77b4; stroke: #1f77b4"/>
     <use xlink:href="#m128dc55adb" x="340.049455" y="208.123371" style="fill: #1f77b4; stroke: #1f77b4"/>
     <use xlink:href="#m128dc55adb" x="343.296" y="197.314663" style="fill: #1f77b4; stroke: #1f77b4"/>
     <use xlink:href="#m128dc55adb" x="346.542545" y="200.9243" style="fill: #1f77b4; stroke: #1f77b4"/>
     <use xlink:href="#m128dc55adb" x="349.789091" y="192.385085" style="fill: #1f77b4; stroke: #1f77b4"/>
     <use xlink:href="#m128dc55adb" x="353.035636" y="206.170396" style="fill: #1f77b4; stroke: #1f77b4"/>
     <use xlink:href="#m128dc55adb" x="356.282182" y="211.416491" style="fill: #1f77b4; stroke: #1f77b4"/>
     <use xlink:href="#m128dc55adb" x="359.528727" y="211.416491" style="fill: #1f77b4; stroke: #1f77b4"/>
     <use xlink:href="#m128dc55adb" x="362.775273" y="211.753211" style="fill: #1f77b4; stroke: #1f77b4"/>
     <use xlink:href="#m128dc55adb" x="366.021818" y="206.507116" style="fill: #1f77b4; stroke: #1f77b4"/>
     <use xlink:href="#m128dc55adb" x="369.268364" y="208.029089" style="fill: #1f77b4; stroke: #1f77b4"/>
     <use xlink:href="#m128dc55adb" x="372.514909" y="212.642151" style="fill: #1f77b4; stroke: #1f77b4"/>
     <use xlink:href="#m128dc55adb" x="375.761455" y="196.014925" style="fill: #1f77b4; stroke: #1f77b4"/>
     <use xlink:href="#m128dc55adb" x="379.008" y="207.544213" style="fill: #1f77b4; stroke: #1f77b4"/>
     <use xlink:href="#m128dc55adb" x="382.254545" y="201.665084" style="fill: #1f77b4; stroke: #1f77b4"/>
     <use xlink:href="#m128dc55adb" x="385.501091" y="208.13684" style="fill: #1f77b4; stroke: #1f77b4"/>
     <use xlink:href="#m128dc55adb" x="388.747636" y="203.523778" style="fill: #1f77b4; stroke: #1f77b4"/>
     <use xlink:href="#m128dc55adb" x="391.994182" y="208.315301" style="fill: #1f77b4; stroke: #1f77b4"/>
     <use xlink:href="#m128dc55adb" x="395.240727" y="203.227464" style="fill: #1f77b4; stroke: #1f77b4"/>
     <use xlink:href="#m128dc55adb" x="398.487273" y="59.582772" style="fill: #1f77b4; stroke: #1f77b4"/>
    </g>
   </g>
   <g id="patch_3">
    <path d="M 57.6 307.584 
L 57.6 41.472 
" style="fill: none; stroke: #000000; stroke-width: 0.8; stroke-linejoin: miter; stroke-linecap: square"/>
   </g>
   <g id="patch_4">
    <path d="M 414.72 307.584 
L 414.72 41.472 
" style="fill: none; stroke: #000000; stroke-width: 0.8; stroke-linejoin: miter; stroke-linecap: square"/>
   </g>
   <g id="patch_5">
    <path d="M 57.6 307.584 
L 414.72 307.584 
" style="fill: none; stroke: #000000; stroke-width: 0.8; stroke-linejoin: miter; stroke-linecap: square"/>
   </g>
   <g id="patch_6">
    <path d="M 57.6 41.472 
L 414.72 41.472 
" style="fill: none; stroke: #000000; stroke-width: 0.8; stroke-linejoin: miter; stroke-linecap: square"/>
   </g>
   <g id="text_33">
    <!-- Mean Test Accuracy (with 95% Confidence  -->
    <g transform="translate(67.257656 19.685688) scale(0.14 -0.14)">
     <defs>
      <path id="DejaVuSans-Bold-4d" d="M 588 4666 
L 2119 4666 
L 3181 2169 
L 4250 4666 
L 5778 4666 
L 5778 0 
L 4641 0 
L 4641 3413 
L 3566 897 
L 2803 897 
L 1728 3413 
L 1728 0 
L 588 0 
L 588 4666 
z
" transform="scale(0.015625)"/>
      <path id="DejaVuSans-Bold-65" d="M 4031 1759 
L 4031 1441 
L 1416 1441 
Q 1456 1047 1700 850 
Q 1944 653 2381 653 
Q 2734 653 3104 758 
Q 3475 863 3866 1075 
L 3866 213 
Q 3469 63 3072 -14 
Q 2675 -91 2278 -91 
Q 1328 -91 801 392 
Q 275 875 275 1747 
Q 275 2603 792 3093 
Q 1309 3584 2216 3584 
Q 3041 3584 3536 3087 
Q 4031 2591 4031 1759 
z
M 2881 2131 
Q 2881 2450 2695 2645 
Q 2509 2841 2209 2841 
Q 1884 2841 1681 2658 
Q 1478 2475 1428 2131 
L 2881 2131 
z
" transform="scale(0.015625)"/>
      <path id="DejaVuSans-Bold-61" d="M 2106 1575 
Q 1756 1575 1579 1456 
Q 1403 1338 1403 1106 
Q 1403 894 1545 773 
Q 1688 653 1941 653 
Q 2256 653 2472 879 
Q 2688 1106 2688 1447 
L 2688 1575 
L 2106 1575 
z
M 3816 1997 
L 3816 0 
L 2688 0 
L 2688 519 
Q 2463 200 2181 54 
Q 1900 -91 1497 -91 
Q 953 -91 614 226 
Q 275 544 275 1050 
Q 275 1666 698 1953 
Q 1122 2241 2028 2241 
L 2688 2241 
L 2688 2328 
Q 2688 2594 2478 2717 
Q 2269 2841 1825 2841 
Q 1466 2841 1156 2769 
Q 847 2697 581 2553 
L 581 3406 
Q 941 3494 1303 3539 
Q 1666 3584 2028 3584 
Q 2975 3584 3395 3211 
Q 3816 2838 3816 1997 
z
" transform="scale(0.015625)"/>
      <path id="DejaVuSans-Bold-6e" d="M 4056 2131 
L 4056 0 
L 2931 0 
L 2931 347 
L 2931 1631 
Q 2931 2084 2911 2256 
Q 2891 2428 2841 2509 
Q 2775 2619 2662 2680 
Q 2550 2741 2406 2741 
Q 2056 2741 1856 2470 
Q 1656 2200 1656 1722 
L 1656 0 
L 538 0 
L 538 3500 
L 1656 3500 
L 1656 2988 
Q 1909 3294 2193 3439 
Q 2478 3584 2822 3584 
Q 3428 3584 3742 3212 
Q 4056 2841 4056 2131 
z
" transform="scale(0.015625)"/>
      <path id="DejaVuSans-Bold-20" transform="scale(0.015625)"/>
      <path id="DejaVuSans-Bold-54" d="M 31 4666 
L 4331 4666 
L 4331 3756 
L 2784 3756 
L 2784 0 
L 1581 0 
L 1581 3756 
L 31 3756 
L 31 4666 
z
" transform="scale(0.015625)"/>
      <path id="DejaVuSans-Bold-73" d="M 3272 3391 
L 3272 2541 
Q 2913 2691 2578 2766 
Q 2244 2841 1947 2841 
Q 1628 2841 1473 2761 
Q 1319 2681 1319 2516 
Q 1319 2381 1436 2309 
Q 1553 2238 1856 2203 
L 2053 2175 
Q 2913 2066 3209 1816 
Q 3506 1566 3506 1031 
Q 3506 472 3093 190 
Q 2681 -91 1863 -91 
Q 1516 -91 1145 -36 
Q 775 19 384 128 
L 384 978 
Q 719 816 1070 734 
Q 1422 653 1784 653 
Q 2113 653 2278 743 
Q 2444 834 2444 1013 
Q 2444 1163 2330 1236 
Q 2216 1309 1875 1350 
L 1678 1375 
Q 931 1469 631 1722 
Q 331 1975 331 2491 
Q 331 3047 712 3315 
Q 1094 3584 1881 3584 
Q 2191 3584 2531 3537 
Q 2872 3491 3272 3391 
z
" transform="scale(0.015625)"/>
      <path id="DejaVuSans-Bold-74" d="M 1759 4494 
L 1759 3500 
L 2913 3500 
L 2913 2700 
L 1759 2700 
L 1759 1216 
Q 1759 972 1856 886 
Q 1953 800 2241 800 
L 2816 800 
L 2816 0 
L 1856 0 
Q 1194 0 917 276 
Q 641 553 641 1216 
L 641 2700 
L 84 2700 
L 84 3500 
L 641 3500 
L 641 4494 
L 1759 4494 
z
" transform="scale(0.015625)"/>
      <path id="DejaVuSans-Bold-41" d="M 3419 850 
L 1538 850 
L 1241 0 
L 31 0 
L 1759 4666 
L 3194 4666 
L 4922 0 
L 3713 0 
L 3419 850 
z
M 1838 1716 
L 3116 1716 
L 2478 3572 
L 1838 1716 
z
" transform="scale(0.015625)"/>
      <path id="DejaVuSans-Bold-63" d="M 3366 3391 
L 3366 2478 
Q 3138 2634 2908 2709 
Q 2678 2784 2431 2784 
Q 1963 2784 1702 2511 
Q 1441 2238 1441 1747 
Q 1441 1256 1702 982 
Q 1963 709 2431 709 
Q 2694 709 2930 787 
Q 3166 866 3366 1019 
L 3366 103 
Q 3103 6 2833 -42 
Q 2563 -91 2291 -91 
Q 1344 -91 809 395 
Q 275 881 275 1747 
Q 275 2613 809 3098 
Q 1344 3584 2291 3584 
Q 2566 3584 2833 3536 
Q 3100 3488 3366 3391 
z
" transform="scale(0.015625)"/>
      <path id="DejaVuSans-Bold-75" d="M 500 1363 
L 500 3500 
L 1625 3500 
L 1625 3150 
Q 1625 2866 1622 2436 
Q 1619 2006 1619 1863 
Q 1619 1441 1641 1255 
Q 1663 1069 1716 984 
Q 1784 875 1895 815 
Q 2006 756 2150 756 
Q 2500 756 2700 1025 
Q 2900 1294 2900 1772 
L 2900 3500 
L 4019 3500 
L 4019 0 
L 2900 0 
L 2900 506 
Q 2647 200 2364 54 
Q 2081 -91 1741 -91 
Q 1134 -91 817 281 
Q 500 653 500 1363 
z
" transform="scale(0.015625)"/>
      <path id="DejaVuSans-Bold-72" d="M 3138 2547 
Q 2991 2616 2845 2648 
Q 2700 2681 2553 2681 
Q 2122 2681 1889 2404 
Q 1656 2128 1656 1613 
L 1656 0 
L 538 0 
L 538 3500 
L 1656 3500 
L 1656 2925 
Q 1872 3269 2151 3426 
Q 2431 3584 2822 3584 
Q 2878 3584 2943 3579 
Q 3009 3575 3134 3559 
L 3138 2547 
z
" transform="scale(0.015625)"/>
      <path id="DejaVuSans-Bold-79" d="M 78 3500 
L 1197 3500 
L 2138 1125 
L 2938 3500 
L 4056 3500 
L 2584 -331 
Q 2363 -916 2067 -1148 
Q 1772 -1381 1288 -1381 
L 641 -1381 
L 641 -647 
L 991 -647 
Q 1275 -647 1404 -556 
Q 1534 -466 1606 -231 
L 1638 -134 
L 78 3500 
z
" transform="scale(0.015625)"/>
      <path id="DejaVuSans-Bold-28" d="M 2413 -844 
L 1484 -844 
Q 1006 -72 778 623 
Q 550 1319 550 2003 
Q 550 2688 779 3389 
Q 1009 4091 1484 4856 
L 2413 4856 
Q 2013 4116 1813 3408 
Q 1613 2700 1613 2009 
Q 1613 1319 1811 609 
Q 2009 -100 2413 -844 
z
" transform="scale(0.015625)"/>
      <path id="DejaVuSans-Bold-77" d="M 225 3500 
L 1313 3500 
L 1900 1088 
L 2491 3500 
L 3425 3500 
L 4013 1113 
L 4603 3500 
L 5691 3500 
L 4769 0 
L 3547 0 
L 2956 2406 
L 2369 0 
L 1147 0 
L 225 3500 
z
" transform="scale(0.015625)"/>
      <path id="DejaVuSans-Bold-69" d="M 538 3500 
L 1656 3500 
L 1656 0 
L 538 0 
L 538 3500 
z
M 538 4863 
L 1656 4863 
L 1656 3950 
L 538 3950 
L 538 4863 
z
" transform="scale(0.015625)"/>
      <path id="DejaVuSans-Bold-68" d="M 4056 2131 
L 4056 0 
L 2931 0 
L 2931 347 
L 2931 1625 
Q 2931 2084 2911 2256 
Q 2891 2428 2841 2509 
Q 2775 2619 2662 2680 
Q 2550 2741 2406 2741 
Q 2056 2741 1856 2470 
Q 1656 2200 1656 1722 
L 1656 0 
L 538 0 
L 538 4863 
L 1656 4863 
L 1656 2988 
Q 1909 3294 2193 3439 
Q 2478 3584 2822 3584 
Q 3428 3584 3742 3212 
Q 4056 2841 4056 2131 
z
" transform="scale(0.015625)"/>
      <path id="DejaVuSans-Bold-39" d="M 641 103 
L 641 966 
Q 928 831 1190 764 
Q 1453 697 1709 697 
Q 2247 697 2547 995 
Q 2847 1294 2900 1881 
Q 2688 1725 2447 1647 
Q 2206 1569 1925 1569 
Q 1209 1569 770 1986 
Q 331 2403 331 3084 
Q 331 3838 820 4291 
Q 1309 4744 2131 4744 
Q 3044 4744 3544 4128 
Q 4044 3513 4044 2388 
Q 4044 1231 3459 570 
Q 2875 -91 1856 -91 
Q 1528 -91 1228 -42 
Q 928 6 641 103 
z
M 2125 2350 
Q 2441 2350 2600 2554 
Q 2759 2759 2759 3169 
Q 2759 3575 2600 3781 
Q 2441 3988 2125 3988 
Q 1809 3988 1650 3781 
Q 1491 3575 1491 3169 
Q 1491 2759 1650 2554 
Q 1809 2350 2125 2350 
z
" transform="scale(0.015625)"/>
      <path id="DejaVuSans-Bold-35" d="M 678 4666 
L 3669 4666 
L 3669 3781 
L 1638 3781 
L 1638 3059 
Q 1775 3097 1914 3117 
Q 2053 3138 2203 3138 
Q 3056 3138 3531 2711 
Q 4006 2284 4006 1522 
Q 4006 766 3489 337 
Q 2972 -91 2053 -91 
Q 1656 -91 1267 -14 
Q 878 63 494 219 
L 494 1166 
Q 875 947 1217 837 
Q 1559 728 1863 728 
Q 2300 728 2551 942 
Q 2803 1156 2803 1522 
Q 2803 1891 2551 2103 
Q 2300 2316 1863 2316 
Q 1603 2316 1309 2248 
Q 1016 2181 678 2041 
L 678 4666 
z
" transform="scale(0.015625)"/>
      <path id="DejaVuSans-Bold-25" d="M 4959 1925 
Q 4738 1925 4616 1733 
Q 4494 1541 4494 1184 
Q 4494 825 4614 633 
Q 4734 441 4959 441 
Q 5184 441 5303 633 
Q 5422 825 5422 1184 
Q 5422 1541 5301 1733 
Q 5181 1925 4959 1925 
z
M 4959 2450 
Q 5541 2450 5875 2112 
Q 6209 1775 6209 1184 
Q 6209 594 5875 251 
Q 5541 -91 4959 -91 
Q 4378 -91 4042 251 
Q 3706 594 3706 1184 
Q 3706 1772 4042 2111 
Q 4378 2450 4959 2450 
z
M 2094 -91 
L 1403 -91 
L 4319 4750 
L 5013 4750 
L 2094 -91 
z
M 1453 4750 
Q 2034 4750 2367 4411 
Q 2700 4072 2700 3481 
Q 2700 2891 2367 2550 
Q 2034 2209 1453 2209 
Q 872 2209 539 2550 
Q 206 2891 206 3481 
Q 206 4072 539 4411 
Q 872 4750 1453 4750 
z
M 1453 4225 
Q 1228 4225 1106 4031 
Q 984 3838 984 3481 
Q 984 3122 1106 2926 
Q 1228 2731 1453 2731 
Q 1678 2731 1798 2926 
Q 1919 3122 1919 3481 
Q 1919 3838 1797 4031 
Q 1675 4225 1453 4225 
z
" transform="scale(0.015625)"/>
      <path id="DejaVuSans-Bold-43" d="M 4288 256 
Q 3956 84 3597 -3 
Q 3238 -91 2847 -91 
Q 1681 -91 1000 561 
Q 319 1213 319 2328 
Q 319 3447 1000 4098 
Q 1681 4750 2847 4750 
Q 3238 4750 3597 4662 
Q 3956 4575 4288 4403 
L 4288 3438 
Q 3953 3666 3628 3772 
Q 3303 3878 2944 3878 
Q 2300 3878 1931 3465 
Q 1563 3053 1563 2328 
Q 1563 1606 1931 1193 
Q 2300 781 2944 781 
Q 3303 781 3628 887 
Q 3953 994 4288 1222 
L 4288 256 
z
" transform="scale(0.015625)"/>
      <path id="DejaVuSans-Bold-6f" d="M 2203 2784 
Q 1831 2784 1636 2517 
Q 1441 2250 1441 1747 
Q 1441 1244 1636 976 
Q 1831 709 2203 709 
Q 2569 709 2762 976 
Q 2956 1244 2956 1747 
Q 2956 2250 2762 2517 
Q 2569 2784 2203 2784 
z
M 2203 3584 
Q 3106 3584 3614 3096 
Q 4122 2609 4122 1747 
Q 4122 884 3614 396 
Q 3106 -91 2203 -91 
Q 1297 -91 786 396 
Q 275 884 275 1747 
Q 275 2609 786 3096 
Q 1297 3584 2203 3584 
z
" transform="scale(0.015625)"/>
      <path id="DejaVuSans-Bold-66" d="M 2841 4863 
L 2841 4128 
L 2222 4128 
Q 1984 4128 1890 4042 
Q 1797 3956 1797 3744 
L 1797 3500 
L 2753 3500 
L 2753 2700 
L 1797 2700 
L 1797 0 
L 678 0 
L 678 2700 
L 122 2700 
L 122 3500 
L 678 3500 
L 678 3744 
Q 678 4316 997 4589 
Q 1316 4863 1984 4863 
L 2841 4863 
z
" transform="scale(0.015625)"/>
      <path id="DejaVuSans-Bold-64" d="M 2919 2988 
L 2919 4863 
L 4044 4863 
L 4044 0 
L 2919 0 
L 2919 506 
Q 2688 197 2409 53 
Q 2131 -91 1766 -91 
Q 1119 -91 703 423 
Q 288 938 288 1747 
Q 288 2556 703 3070 
Q 1119 3584 1766 3584 
Q 2128 3584 2408 3439 
Q 2688 3294 2919 2988 
z
M 2181 722 
Q 2541 722 2730 984 
Q 2919 1247 2919 1747 
Q 2919 2247 2730 2509 
Q 2541 2772 2181 2772 
Q 1825 2772 1636 2509 
Q 1447 2247 1447 1747 
Q 1447 1247 1636 984 
Q 1825 722 2181 722 
z
" transform="scale(0.015625)"/>
     </defs>
     <use xlink:href="#DejaVuSans-Bold-4d"/>
     <use xlink:href="#DejaVuSans-Bold-65" x="99.511719"/>
     <use xlink:href="#DejaVuSans-Bold-61" x="167.333984"/>
     <use xlink:href="#DejaVuSans-Bold-6e" x="234.814453"/>
     <use xlink:href="#DejaVuSans-Bold-20" x="306.005859"/>
     <use xlink:href="#DejaVuSans-Bold-54" x="340.820312"/>
     <use xlink:href="#DejaVuSans-Bold-65" x="395.783203"/>
     <use xlink:href="#DejaVuSans-Bold-73" x="463.605469"/>
     <use xlink:href="#DejaVuSans-Bold-74" x="523.126953"/>
     <use xlink:href="#DejaVuSans-Bold-20" x="570.929688"/>
     <use xlink:href="#DejaVuSans-Bold-41" x="605.744141"/>
     <use xlink:href="#DejaVuSans-Bold-63" x="683.136719"/>
     <use xlink:href="#DejaVuSans-Bold-63" x="742.414062"/>
     <use xlink:href="#DejaVuSans-Bold-75" x="801.691406"/>
     <use xlink:href="#DejaVuSans-Bold-72" x="872.882812"/>
     <use xlink:href="#DejaVuSans-Bold-61" x="922.199219"/>
     <use xlink:href="#DejaVuSans-Bold-63" x="989.679688"/>
     <use xlink:href="#DejaVuSans-Bold-79" x="1048.957031"/>
     <use xlink:href="#DejaVuSans-Bold-20" x="1114.142578"/>
     <use xlink:href="#DejaVuSans-Bold-28" x="1148.957031"/>
     <use xlink:href="#DejaVuSans-Bold-77" x="1194.660156"/>
     <use xlink:href="#DejaVuSans-Bold-69" x="1287.042969"/>
     <use xlink:href="#DejaVuSans-Bold-74" x="1321.320312"/>
     <use xlink:href="#DejaVuSans-Bold-68" x="1369.123047"/>
     <use xlink:href="#DejaVuSans-Bold-20" x="1440.314453"/>
     <use xlink:href="#DejaVuSans-Bold-39" x="1475.128906"/>
     <use xlink:href="#DejaVuSans-Bold-35" x="1544.708984"/>
     <use xlink:href="#DejaVuSans-Bold-25" x="1614.289062"/>
     <use xlink:href="#DejaVuSans-Bold-20" x="1714.484375"/>
     <use xlink:href="#DejaVuSans-Bold-43" x="1749.298828"/>
     <use xlink:href="#DejaVuSans-Bold-6f" x="1822.6875"/>
     <use xlink:href="#DejaVuSans-Bold-6e" x="1891.388672"/>
     <use xlink:href="#DejaVuSans-Bold-66" x="1962.580078"/>
     <use xlink:href="#DejaVuSans-Bold-69" x="2006.085938"/>
     <use xlink:href="#DejaVuSans-Bold-64" x="2040.363281"/>
     <use xlink:href="#DejaVuSans-Bold-65" x="2111.945312"/>
     <use xlink:href="#DejaVuSans-Bold-6e" x="2179.767578"/>
     <use xlink:href="#DejaVuSans-Bold-63" x="2250.958984"/>
     <use xlink:href="#DejaVuSans-Bold-65" x="2310.236328"/>
     <use xlink:href="#DejaVuSans-Bold-20" x="2378.058594"/>
    </g>
    <!-- Interval) over Generations -->
    <g transform="translate(131.590937 35.472) scale(0.14 -0.14)">
     <defs>
      <path id="DejaVuSans-Bold-49" d="M 588 4666 
L 1791 4666 
L 1791 0 
L 588 0 
L 588 4666 
z
" transform="scale(0.015625)"/>
      <path id="DejaVuSans-Bold-76" d="M 97 3500 
L 1216 3500 
L 2088 1081 
L 2956 3500 
L 4078 3500 
L 2700 0 
L 1472 0 
L 97 3500 
z
" transform="scale(0.015625)"/>
      <path id="DejaVuSans-Bold-6c" d="M 538 4863 
L 1656 4863 
L 1656 0 
L 538 0 
L 538 4863 
z
" transform="scale(0.015625)"/>
      <path id="DejaVuSans-Bold-29" d="M 513 -844 
Q 913 -100 1113 609 
Q 1313 1319 1313 2009 
Q 1313 2700 1113 3408 
Q 913 4116 513 4856 
L 1441 4856 
Q 1916 4091 2145 3389 
Q 2375 2688 2375 2003 
Q 2375 1319 2147 623 
Q 1919 -72 1441 -844 
L 513 -844 
z
" transform="scale(0.015625)"/>
      <path id="DejaVuSans-Bold-47" d="M 4781 347 
Q 4331 128 3847 18 
Q 3363 -91 2847 -91 
Q 1681 -91 1000 561 
Q 319 1213 319 2328 
Q 319 3456 1012 4103 
Q 1706 4750 2913 4750 
Q 3378 4750 3804 4662 
Q 4231 4575 4609 4403 
L 4609 3438 
Q 4219 3659 3833 3768 
Q 3447 3878 3059 3878 
Q 2341 3878 1952 3476 
Q 1563 3075 1563 2328 
Q 1563 1588 1938 1184 
Q 2313 781 3003 781 
Q 3191 781 3352 804 
Q 3513 828 3641 878 
L 3641 1784 
L 2906 1784 
L 2906 2591 
L 4781 2591 
L 4781 347 
z
" transform="scale(0.015625)"/>
     </defs>
     <use xlink:href="#DejaVuSans-Bold-49"/>
     <use xlink:href="#DejaVuSans-Bold-6e" x="37.207031"/>
     <use xlink:href="#DejaVuSans-Bold-74" x="108.398438"/>
     <use xlink:href="#DejaVuSans-Bold-65" x="156.201172"/>
     <use xlink:href="#DejaVuSans-Bold-72" x="224.023438"/>
     <use xlink:href="#DejaVuSans-Bold-76" x="273.339844"/>
     <use xlink:href="#DejaVuSans-Bold-61" x="338.525391"/>
     <use xlink:href="#DejaVuSans-Bold-6c" x="406.005859"/>
     <use xlink:href="#DejaVuSans-Bold-29" x="440.283203"/>
     <use xlink:href="#DejaVuSans-Bold-20" x="485.986328"/>
     <use xlink:href="#DejaVuSans-Bold-6f" x="520.800781"/>
     <use xlink:href="#DejaVuSans-Bold-76" x="589.501953"/>
     <use xlink:href="#DejaVuSans-Bold-65" x="654.6875"/>
     <use xlink:href="#DejaVuSans-Bold-72" x="722.509766"/>
     <use xlink:href="#DejaVuSans-Bold-20" x="771.826172"/>
     <use xlink:href="#DejaVuSans-Bold-47" x="806.640625"/>
     <use xlink:href="#DejaVuSans-Bold-65" x="888.720703"/>
     <use xlink:href="#DejaVuSans-Bold-6e" x="956.542969"/>
     <use xlink:href="#DejaVuSans-Bold-65" x="1027.734375"/>
     <use xlink:href="#DejaVuSans-Bold-72" x="1095.556641"/>
     <use xlink:href="#DejaVuSans-Bold-61" x="1144.873047"/>
     <use xlink:href="#DejaVuSans-Bold-74" x="1212.353516"/>
     <use xlink:href="#DejaVuSans-Bold-69" x="1260.15625"/>
     <use xlink:href="#DejaVuSans-Bold-6f" x="1294.433594"/>
     <use xlink:href="#DejaVuSans-Bold-6e" x="1363.134766"/>
     <use xlink:href="#DejaVuSans-Bold-73" x="1434.326172"/>
    </g>
   </g>
  </g>
 </g>
 <defs>
  <clipPath id="pb3b2a57917">
   <rect x="57.6" y="41.472" width="357.12" height="266.112"/>
  </clipPath>
 </defs>
</svg>
